{
.appVersion = "3337";
.formatVersion = 3;
DisplayStrings = (
"The new Æ needs to go into Ǽ too.Ǣ6
- There seems to be an issue with U+25ef and U+25f4. As shown in the attached image, move the glyph on U+25ef to replace the glyph on U+25f4 (make sure to update the width), and then copy the glyph for U+25cb to replace the one on U+25ef.
- Still missing the new  you designed a few days ago
- The  character seems to be missing

Have you taken a pass at the hinting? At certain sizes, the the letters can look a bit uneven.

If you take of of the above, then feel free to deliver otf, woff and the sources, and we can call the project complete!


ы shouldn't have a serif on the top left of the ь part
- The outer ring of the @ sign could be a bit more elliptical and the inner ɑ part could be a bit more closed.
- I love what you've done with  (U+03c7) — do you think you could add a little tail to the top of @χλν (U+03bb) and the right arm of ν (U+03bd)?



",
"",
"⁵₅",
"◴",
"◯◴",
"/U1D569/U1D568/U1D53D/U1D53E/U1D54E/U1D54F/U1D557/U1D558/U1D54A/U1D563/U1D564",
"/asciicircum.001",
"/U211D",
"/U1D53D"
);
customParameters = (
{
name = vendorID;
value = acds;
},
{
name = panose;
value = (
2,
11,
7,
9,
0,
2,
2,
0,
2,
3
);
},
{
name = unicodeRanges;
value = (
0,
1,
2,
6,
7,
9,
31,
32,
37,
38,
39,
42,
43,
44,
46
);
},
{
name = codePageRanges;
value = (
"1252"
);
},
{
name = fsType;
value = (
);
},
{
name = glyphOrder;
value = (
.notdef,
.null,
CR,
space,
exclam,
quotedbl,
numbersign,
dollar,
percent,
ampersand,
quotesingle,
parenleft,
parenright,
asterisk,
plus,
comma,
hyphen,
period,
slash,
zero,
one,
two,
three,
four,
five,
six,
seven,
eight,
nine,
colon,
semicolon,
less,
equal,
greater,
question,
at,
A,
B,
C,
D,
E,
F,
G,
H,
I,
J,
K,
L,
M,
N,
O,
P,
Q,
R,
S,
T,
U,
V,
W,
X,
Y,
Z,
bracketleft,
backslash,
bracketright,
asciicircum,
underscore,
grave,
a,
b,
c,
d,
e,
f,
g,
h,
i,
j,
k,
l,
m,
n,
o,
p,
q,
r,
s,
t,
u,
v,
w,
x,
y,
z,
braceleft,
bar,
braceright,
asciitilde,
uni007F,
uni00A0,

glyphs = (
{
color = 0;
glyphname = .notdef;
lastChange = "2025-01-20 12:00:30 +0000";
layers = (
{
layerId = m01;
shapes = (
{
closed = 1;
nodes = (
(466,170,l),
(127,170,l),
(127,483,l),
(466,483,l),
(466,483,l)
);
}
);
width = 600;
}
);
note = .notdef;
},
{
color = 7;
glyphname = exclam;
lastChange = "2025-01-18 15:02:46 +0000";
layers = (
{
layerId = m01;
shapes = (
{
closed = 1;
nodes = (
(344,226,o),
(322,210,o),
(301,210,cs),
(278,210,o),
(258,228,o),
(258,252,cs),
(258,725,ls),
(258,750,o),
(276,768,o),
(301,768,cs),
(325,768,o),
(344,751,o),
(344,727,cs),
(344,250,l),
(344,250,l)
);
},
{
closed = 1;
nodes = (
(335,-10,o),
(363,19,o),
(363,53,c),
(363,88,o),
(335,116,o),
(300,116,c),
(265,116,o),
(237,88,o),
(237,53,c),
(237,19,o),
(265,-10,o),
(300,-10,c)
);
}
);
userData = {
assembly = "NPUSHB[ ]	/* 8 values pushed */
19 0 27 4 1 3 7 4 
CALL[ ]	/* CallFunction */
SVTCA[0]	/* SetFreedomAndProjectionVectorToAxis */
CALL[ ]	/* CallFunction */
IUP[0]	/* InterpolateUntPts */
IUP[1]	/* InterpolateUntPts */";
};
width = 600;
}
);
note = exclam;
unicode = 33;
},
{
color = 7;
glyphname = quotedbl;
lastChange = "2025-01-18 15:02:46 +0000";
layers = (
{
layerId = m01;
shapes = (
{
closed = 1;
nodes = (
(249,675,o),
(227,692,o),
(206,692,cs),
(183,692,o),
(163,673,o),
(163,649,cs),
(163,440,ls),
(163,417,o),
(181,398,o),
(206,398,cs),
(230,398,o),
(249,415,o),
(249,438,cs),
(249,652,ls)
);
},
{
closed = 1;
nodes = (
(420,675,o),
(398,692,o),
(377,692,cs),
(354,692,o),
(334,673,o),
(334,649,cs),
(334,440,ls),
(334,417,o),
(352,398,o),
(377,398,cs),
(401,398,o),
(420,415,o),
(420,438,cs),
(420,652,ls)
);
}
);
userData = {
assembly = "NPUSHB[ ]	/* 6 values pushed */
0 3 5 20 3 26 
MDAP[1]	/* MoveDirectAbsPt */
MIRP[11100]	/* MoveIndirectRelPt */
MDRP[11100]	/* MoveDirectRelPt */
MIRP[11100]	/* MoveIndirectRelPt */
IUP[0]	/* InterpolateUntPts */
IUP[1]	/* InterpolateUntPts */";
};
width = 600;
}
);
note = quotedbl;
unicode = 34;
},
{
color = 7;
glyphname = numbersign;
lastChange = "2025-01-18 15:02:46 +0000";
layers = (
{
layerId = m01;
shapes = (
{
closed = 1;
nodes = (
(97,504,o),
(80,482,o),
(80,461,cs),
(80,438,o),
(99,418,o),
(123,418,cs),
(181,418,l),
(147,251,l),
(70,251,ls),
(47,251,o),
(30,229,o),
(30,208,cs),
(30,185,o),
(49,165,o),
(73,165,cs),
(130,165,l),
(106,43,ls),
(102,21,o),
(118,-1,o),
(143,-1,cs),
(166,-1,o),
(185,14,o),
(190,38,cs),
(215,165,l),
(319,165,l),
(295,43,ls),
(291,21,o),
(307,-1,o),
(332,-1,cs),
(355,-1,o),
(374,14,o),
(379,38,cs),
(404,165,l),
(477,165,ls),
(500,165,o),
(519,183,o),
(519,208,cs),
(519,232,o),
(502,251,o),
(479,251,cs),
(421,251,l),
(455,418,l),
(527,418,ls),
(550,418,o),
(569,436,o),
(569,461,cs),
(569,485,o),
(552,504,o),
(529,504,cs),
(472,504,l),
(495,620,ls),
(501,649,o),
(483,665,o),
(458,665,cs),
(435,665,o),
(416,650,o),
(411,626,cs),
(387,504,l),
(283,504,l),
(306,620,ls),
(312,649,o),
(294,665,o),
(269,665,cs),
(246,665,o),
(227,650,o),
(222,626,cs),
(198,504,l),
(120,504,ls)
);
},
{
closed = 1;
nodes = (
(266,418,l),
(370,418,l),
(336,251,l),
(232,251,l)
);
}
);
userData = {
assembly = "NPUSHB[ ]	/* 8 values pushed */
86 0 59 4 15 0 87 4 
SVTCA[0]	/* SetFreedomAndProjectionVectorToAxis */
CALL[ ]	/* CallFunction */
CALL[ ]	/* CallFunction */
IUP[0]	/* InterpolateUntPts */
IUP[1]	/* InterpolateUntPts */";
};
width = 600;
}
);
note = numbersign;
unicode = 35;
},
{
color = 7;
glyphname = dollar;
lastChange = "2025-02-01 15:08:57 +0000";
layers = (
{
layerId = m01;
shapes = (
{
closed = 1;
nodes = (
(326,-100,o),
(348,-84,o),
(348,-60,c),
(348,727,ls),
(348,751,o),
(329,768,o),
(305,768,cs),
(280,768,o),
(262,750,o),
(262,725,cs),
(262,-58,ls),
(262,-82,o),
(282,-100,o),
(305,-100,cs)
);
},
{
closed = 1;
nodes = (
(421,-8,o),
(500,67,o),
(500,183,cs),
(500,264,o),
(446,319,o),
(327,375,cs),
(242,415,o),
(207,449,o),
(207,504,cs),
(207,546,o),
(241,579,o),
(284,579,cs),
(310,579,o),
(346,573,o),
(388,552,cs),
(416,538,o),
(436,544,o),
(449,570,cs),
(459,590,o),
(451,608,o),
(427,623,cs),
(389,646,o),
(341,660,o),
(283,660,cs),
(190,660,o),
(117,591,o),
(117,502,cs),
(117,424,o),
(168,359,o),
(266,312,cs),
(326,283,o),
(414,246,o),
(414,184,cs),
(414,122,o),
(364,76,o),
(291,76,cs),
(252,76,o),
(211,92,o),
(167,126,cs),
(144,143,o),
(127,148,o),
(106,129,cs),
(86,110,o),
(83,85,o),
(106,66,cs),
(159,24,o),
(225,-8,o),
(299,-8,cs)
);
}
);
userData = {
assembly = "NPUSHB[ ]	/* 16 values pushed */
49 3 41 4 64 3 28 4 11 3 19 4 2 3 53 4 
CALL[ ]	/* CallFunction */
CALL[ ]	/* CallFunction */
CALL[ ]	/* CallFunction */
CALL[ ]	/* CallFunction */
IUP[0]	/* InterpolateUntPts */
IUP[1]	/* InterpolateUntPts */";
};
width = 600;
}
);
note = dollar;
unicode = 36;
},
{
color = 7;
glyphname = percent;
lastChange = "2025-01-18 15:02:46 +0000";
layers = (
{
layerId = m01;
shapes = (
{
closed = 1;
nodes = (
(259,451,o),
(316,508,o),
(316,578,cs),
(316,647,o),
(259,704,o),
(189,704,cs),
(119,704,o),
(63,647,o),
(63,578,cs),
(63,508,o),
(119,451,o),
(189,451,cs)
);
},
{
closed = 1;
nodes = (
(159,524,o),
(135,548,o),
(135,578,cs),
(135,607,o),
(159,631,o),
(189,631,cs),
(219,631,o),
(243,607,o),
(243,578,cs),
(243,548,o),
(219,524,o),
(189,524,cs)
);
},
{
closed = 1;
nodes = (
(481,-29,o),
(538,28,o),
(538,98,cs),
(538,167,o),
(481,224,o),
(411,224,cs),
(341,224,o),
(285,167,o),
(285,98,cs),
(285,28,o),
(341,-29,o),
(411,-29,cs)
);
},
{
closed = 1;
nodes = (
(381,44,o),
(357,68,o),
(357,98,cs),
(357,127,o),
(381,151,o),
(411,151,cs),
(441,151,o),
(465,127,o),
(465,98,cs),
(465,68,o),
(441,44,o),
(411,44,cs)
);
},
{
closed = 1;
nodes = (
(501,660,o),
(492,685,o),
(470,696,cs),
(447,707,o),
(421,696,o),
(410,673,cs),
(95,29,ls),
(83,4,o),
(93,-22,o),
(115,-32,cs),
(138,-43,o),
(162,-33,o),
(174,-8,cs),
(489,635,ls)
);
}
);
userData = {
assembly = "NPUSHB[ ]	/* 38 values pushed */
42 0 75 0 69 0 50 12 0 57 0 63 0 4 31 10 50 10 4 38 3 66 4 72 3 46 36 3 24 4 0 3 54 4 60 3 8 46 
RUTG[ ]	/* RoundUpToGrid */
MDAP[1]	/* MoveDirectAbsPt */
RTG[ ]	/* RoundToGrid */
RDTG[ ]	/* RoundDownToGrid */
MDAP[1]	/* MoveDirectAbsPt */
RTG[ ]	/* RoundToGrid */
MIRP[11100]	/* MoveIndirectRelPt */
MIRP[11100]	/* MoveIndirectRelPt */
MIRP[11100]	/* MoveIndirectRelPt */
CALL[ ]	/* CallFunction */
SRP0[ ]	/* SetRefPoint0 */
MIRP[11100]	/* MoveIndirectRelPt */
MIRP[11100]	/* MoveIndirectRelPt */
MIRP[11100]	/* MoveIndirectRelPt */
SVTCA[0]	/* SetFreedomAndProjectionVectorToAxis */
MDAP[1]	/* MoveDirectAbsPt */
MIAP[1]	/* MoveIndirectAbsPt */
MIAP[1]	/* MoveIndirectAbsPt */
SRP0[ ]	/* SetRefPoint0 */
MIRP[11100]	/* MoveIndirectRelPt */
MIRP[11100]	/* MoveIndirectRelPt */
MIRP[11100]	/* MoveIndirectRelPt */
SRP0[ ]	/* SetRefPoint0 */
MIRP[11100]	/* MoveIndirectRelPt */
MIRP[11100]	/* MoveIndirectRelPt */
MIRP[11100]	/* MoveIndirectRelPt */
IUP[0]	/* InterpolateUntPts */
IUP[1]	/* InterpolateUntPts */";
};
width = 600;
}
);
note = percent;
unicode = 37;
},
{
color = 7;
glyphname = ampersand;
lastChange = "2025-01-18 15:02:46 +0000";
layers = (
{
layerId = m01;
shapes = (
{
closed = 1;
nodes = (
(525,175,ls),
(543,153,o),
(540,131,o),
(516,114,cs),
(478,86,l),
(496,63,ls),
(514,40,o),
(512,18,o),
(489,2,cs),
(489,2,ls),
(466,-14,o),
(444,-11,o),
(427,12,cs),
(408,38,l),
(369,9,o),
(323.667,-11,o),
(263,-11,cs),
(158,-11,o),
(56,38,o),
(56,150,cs),
(56,210,o),
(103.333,280.333,o),
(198,361,c),
(176,389,o),
(110,465,o),
(110,540,cs),
(110,632,o),
(193,683,o),
(285,683,cs),
(356,683,o),
(452,645,o),
(452,554,cs),
(452,488,o),
(404,422,o),
(319,357,c),
(438,166,l),
(462,183,ls),
(485,200,o),
(507,197,o),
(525,175,cs)
);
},
{
closed = 1;
nodes = (
(360,583,o),
(320,605,o),
(281,605,cs),
(249,605,o),
(205,583,o),
(205,533,cs),
(205,485,o),
(251,433,o),
(266,417,c),
(298,437,o),
(360,495,o),
(360,543,cs)
);
},
{
closed = 1;
nodes = (
(199.333,254.667,o),
(148.333,195.333,o),
(151,146,c),
(148.333,96.667,o),
(195.667,71,o),
(249,71,cs),
(297.667,71,o),
(331,87,o),
(359,111,c),
(250,288,l),
(250,288,l)
);
}
);
userData = {
assembly = "NPUSHB[ ]	/* 22 values pushed */
59 0 28 54 0 13 28 10 13 8 62 3 24 4 51 3 17 4 9 3 42 4 
CALL[ ]	/* CallFunction */
CALL[ ]	/* CallFunction */
CALL[ ]	/* CallFunction */
SVTCA[0]	/* SetFreedomAndProjectionVectorToAxis */
MIAP[1]	/* MoveIndirectAbsPt */
MIAP[1]	/* MoveIndirectAbsPt */
SRP0[ ]	/* SetRefPoint0 */
MIRP[11100]	/* MoveIndirectRelPt */
SRP0[ ]	/* SetRefPoint0 */
MIRP[11100]	/* MoveIndirectRelPt */
IUP[0]	/* InterpolateUntPts */
IUP[1]	/* InterpolateUntPts */";
};
width = 600;
}
);
note = ampersand;
unicode = 38;
},
{
color = 7;
glyphname = quotesingle;
lastChange = "2025-01-18 15:02:46 +0000";
layers = (
{
layerId = m01;
shapes = (
{
closed = 1;
nodes = (
(341,675,o),
(319,692,o),
(298,692,cs),
(275,692,o),
(255,673,o),
(255,649,cs),
(255,440,ls),
(255,417,o),
(273,398,o),
(298,398,cs),
(322,398,o),
(341,415,o),
(341,438,cs),
(341,652,ls)
);
}
);
userData = {
assembly = "NPUSHB[ ]	/* 4 values pushed */
1 3 5 4 
CALL[ ]	/* CallFunction */
IUP[0]	/* InterpolateUntPts */
IUP[1]	/* InterpolateUntPts */";
};
width = 600;
}
);
note = quotesingle;
unicode = 39;
},
{
color = 7;
glyphname = parenleft;
lastChange = "2025-01-18 15:02:46 +0000";
layers = (
{
layerId = m01;
shapes = (
{
closed = 1;
nodes = (
(190,150,o),
(246,2,o),
(330,-77,cs),
(351,-97,o),
(379,-103,o),
(399,-87,cs),
(418,-72,o),
(414,-46,o),
(395,-25,cs),
(330,47,o),
(287,175,o),
(287,318,cs),
(287,460,o),
(330,588,o),
(395,660,cs),
(414,681,o),
(418,707,o),
(399,722,cs),
(379,738,o),
(351,732,o),
(330,712,cs),
(246,633,o),
(190,485,o),
(190,318,cs),
(190,317,ls)
);
}
);
userData = {
assembly = "NPUSHB[ ]	/* 8 values pushed */
75 9 1 14 21 3 6 4 
CALL[ ]	/* CallFunction */
SVTCA[0]	/* SetFreedomAndProjectionVectorToAxis */
RDTG[ ]	/* RoundDownToGrid */
MDAP[1]	/* MoveDirectAbsPt */
RTG[ ]	/* RoundToGrid */
IUP[0]	/* InterpolateUntPts */
IUP[1]	/* InterpolateUntPts */
SVTCA[1]	/* SetFreedomAndProjectionVectorToAxis */
DELTAP1[ ]	/* DeltaExceptionP1 */";
};
width = 600;
}
);
note = parenleft;
unicode = 40;
},
{
color = 7;
glyphname = parenright;
lastChange = "2025-01-18 15:02:46 +0000";
layers = (
{
layerId = m01;
shapes = (
{
closed = 1;
nodes = (
(410,318,ls),
(410,485,o),
(354,633,o),
(270,712,cs),
(249,732,o),
(221,738,o),
(201,722,cs),
(182,707,o),
(186,681,o),
(205,660,cs),
(270,588,o),
(313,460,o),
(313,318,cs),
(313,175,o),
(270,47,o),
(205,-25,cs),
(186,-46,o),
(182,-72,o),
(201,-87,cs),
(221,-103,o),
(249,-97,o),
(270,-77,cs),
(354,2,o),
(410,150,o),
(410,317,cs)
);
}
);
userData = {
assembly = "NPUSHB[ ]	/* 8 values pushed */
68 25 1 20 29 3 10 4 
CALL[ ]	/* CallFunction */
SVTCA[0]	/* SetFreedomAndProjectionVectorToAxis */
RDTG[ ]	/* RoundDownToGrid */
MDAP[1]	/* MoveDirectAbsPt */
RTG[ ]	/* RoundToGrid */
IUP[0]	/* InterpolateUntPts */
IUP[1]	/* InterpolateUntPts */
SVTCA[1]	/* SetFreedomAndProjectionVectorToAxis */
DELTAP1[ ]	/* DeltaExceptionP1 */";
};
width = 600;
}
);
note = parenright;
unicode = 41;
},
{
color = 7;
glyphname = asterisk;
lastChange = "2025-01-27 19:20:44 +0000";
layers = (
{
layerId = m01;
shapes = (
{
closed = 1;
nodes = (
(346,535,o),
(322,554,o),
(299,554,cs),
(274,554,o),
(252,533,o),
(252,507,cs),
(252,400,l),
(145,439,ls),
(122,448,o),
(96,429,o),
(90,407,cs),
(82,383,o),
(96,357,o),
(119,349,cs),
(223,310,l),
(153,220,ls),
(139,199,o),
(148,170,o),
(167,157,cs),
(188,143,o),
(217,147,o),
(231,167,cs),
(299,255,l),
(367,167,ls),
(381,147,o),
(410,143,o),
(431,157,cs),
(450,170,o),
(459,199,o),
(445,220,cs),
(375,310,l),
(479,349,ls),
(502,357,o),
(516,383,o),
(508,407,cs),
(502,429,o),
(476,448,o),
(453,439,cs),
(346,400,l),
(346,510,ls)
);
}
);
userData = {
assembly = "NPUSHB[ ]	/* 9 values pushed */
64 60 1 64 42 1 64 38 1 
IUP[0]	/* InterpolateUntPts */
IUP[1]	/* InterpolateUntPts */
DELTAP1[ ]	/* DeltaExceptionP1 */
DELTAP1[ ]	/* DeltaExceptionP1 */
DELTAP1[ ]	/* DeltaExceptionP1 */";
};
width = 600;
}
);
note = asterisk;
unicode = 42;
},
{
color = 7;
glyphname = plus;
lastChange = "2025-01-27 19:17:04 +0000";
layers = (
{
layerId = m01;
shapes = (
{
closed = 1;
nodes = (
(119,374,o),
(102,352,o),
(102,331,cs),
(102,308,o),
(121,288,o),
(145,288,cs),
(257,288,l),
(257,175,ls),
(257,152,o),
(275,133,o),
(300,133,cs),
(324,133,o),
(343,150,o),
(343,173,cs),
(343,288,l),
(456,288,ls),
(479,288,o),
(498,306,o),
(498,331,cs),
(498,355,o),
(481,374,o),
(458,374,cs),
(343,374,l),
(343,489,ls),
(343,512,o),
(321,529,o),
(300,529,cs),
(277,529,o),
(257,510,o),
(257,486,cs),
(257,374,l),
(142,374,ls)
);
}
);
userData = {
assembly = "NPUSHB[ ]	/* 8 values pushed */
10 0 16 4 3 3 10 4 
CALL[ ]	/* CallFunction */
SVTCA[0]	/* SetFreedomAndProjectionVectorToAxis */
CALL[ ]	/* CallFunction */
IUP[0]	/* InterpolateUntPts */
IUP[1]	/* InterpolateUntPts */";
};
width = 600;
}
);
note = plus;
unicode = 43;
},
{
color = 7;
glyphname = comma;
lastChange = "2025-01-26 12:12:47 +0000";
layers = (
{
layerId = m01;
shapes = (
{
closed = 1;
nodes = (
(300,-7,o),
(306,-7,o),
(318,3,c),
(318,-51,o),
(281,-63,o),
(249,-63,cs),
(232,-63,o),
(223,-75,o),
(223,-92,cs),
(223,-107,o),
(236,-117,o),
(251,-117,cs),
(309,-117,o),
(373,-82,o),
(373,31,cs),
(373,81,o),
(346,115,o),
(297,115,cs),
(254,115,o),
(230,81,o),
(230,49,cs),
(230,16,o),
(263,-7,o),
(287,-7,cs)
);
}
);
userData = {
assembly = "NPUSHB[ ]	/* 1 value pushed */
2 
SVTCA[0]	/* SetFreedomAndProjectionVectorToAxis */
MDAP[1]	/* MoveDirectAbsPt */
IUP[0]	/* InterpolateUntPts */
IUP[1]	/* InterpolateUntPts */";
};
width = 600;
}
);
note = comma;
unicode = 44;
},
{
color = 7;
glyphname = hyphen;
lastChange = "2025-02-01 23:37:31 +0000";
layers = (
{
layerId = m01;
shapes = (
{
closed = 1;
nodes = (
(104,373,o),
(87,351,o),
(87,330,cs),
(87,307,o),
(106,287,o),
(130,287,cs),
(471,287,ls),
(494,287,o),
(513,305,o),
(513,330,cs),
(513,354,o),
(496,373,o),
(473,373,cs),
(127,373,ls)
);
}
);
userData = {
assembly = "NPUSHB[ ]	/* 4 values pushed */
16 0 3 4 
SVTCA[0]	/* SetFreedomAndProjectionVectorToAxis */
CALL[ ]	/* CallFunction */
IUP[0]	/* InterpolateUntPts */
IUP[1]	/* InterpolateUntPts */";
};
width = 600;
}
);
note = hyphen;
unicode = 45;
},
{
color = 7;
glyphname = period;
lastChange = "2025-01-27 19:23:57 +0000";
layers = (
{
layerId = m01;
shapes = (
{
closed = 1;
nodes = (
(341,-16,o),
(374,18,o),
(374,58,c),
(374,100,o),
(341,133,o),
(300,133,c),
(259,133,o),
(226,100,o),
(226,58,c),
(226,18,o),
(259,-16,o),
(300,-16,c)
);
}
);
userData = {
assembly = "NPUSHB[ ]	/* 2 values pushed */
0 10 
MDAP[1]	/* MoveDirectAbsPt */
MDAP[1]	/* MoveDirectAbsPt */
IUP[0]	/* InterpolateUntPts */
IUP[1]	/* InterpolateUntPts */";
};
width = 600;
}
);
note = period;
unicode = 46;
},
{
color = 7;
glyphname = slash;
lastChange = "2025-01-18 15:02:46 +0000";
layers = (
{
layerId = m01;
shapes = (
{
closed = 1;
nodes = (
(565,706,o),
(555,734,o),
(531,746,cs),
(506,757,o),
(479,746,o),
(466,720,cs),
(96,-36,ls),
(83,-63,o),
(93,-91,o),
(117,-102,cs),
(142,-114,o),
(169,-103,o),
(182,-76,cs),
(552,679,ls)
);
}
);
userData = {
assembly = "NPUSHB[ ]	/* 4 values pushed */
15 4 7 4 
CALL[ ]	/* CallFunction */
IUP[0]	/* InterpolateUntPts */
IUP[1]	/* InterpolateUntPts */";
};
width = 600;
}
);
note = slash;
unicode = 47;
},
{
color = 7;
glyphname = zero;
lastChange = "2025-01-18 15:02:46 +0000";
layers = (
{
layerId = m01;
shapes = (
{
closed = 1;
nodes = (
(446,666,o),
(531,506,o),
(531,334,cs),
(531,133,o),
(437,-11,o),
(300,-10,cs),
(163,-9,o),
(69,133,o),
(69,334,cs),
(69,506,o),
(154,664,o),
(300,665,cs)
);
},
{
closed = 1;
nodes = (
(159,171,o),
(218,77,o),
(300,77,cs),
(382,77,o),
(441,171,o),
(441,334,cs),
(441,492,o),
(383,578,o),
(300,578,cs),
(217,578,o),
(159,492,o),
(159,334,cs)
);
},
{
closed = 1;
nodes = (
(330,274,o),
(354,298,o),
(354,328,cs),
(354,358,o),
(330,382,o),
(300,382,cs),
(270,382,o),
(246,358,o),
(246,328,cs),
(246,298,o),
(270,274,o),
(300,274,cs)
);
}
);
width = 600;
}
);
note = zero;
unicode = 48;
},
{
color = 7;
glyphname = one;
lastChange = "2025-01-18 15:02:46 +0000";
layers = (
{
layerId = m01;
shapes = (
{
closed = 1;
nodes = (
(422,1,ls),
(445,1,o),
(464,19,o),
(464,40,cs),
(464,60,o),
(447,79,o),
(424,79,cs),
(353,79,l),
(353,615,ls),
(353,656,o),
(305,677,o),
(280,644,cs),
(168,496,ls),
(143,463,o),
(153,438,o),
(170,426,cs),
(189,413,o),
(217,413,o),
(235,443,cs),
(276,513,l),
(266,513,l),
(266,79,l),
(190,79,ls),
(167,79,o),
(150,58,o),
(150,40,cs),
(150,21,o),
(169,1,o),
(193,1,cs)
);
}
);
userData = {
assembly = "NPUSHB[ ]	/* 17 values pushed */
79 21 1 24 0 32 2 0 32 10 9 8 4 3 24 4 29 
MDAP[1]	/* MoveDirectAbsPt */
CALL[ ]	/* CallFunction */
SVTCA[0]	/* SetFreedomAndProjectionVectorToAxis */
MIAP[1]	/* MoveIndirectAbsPt */
MIAP[1]	/* MoveIndirectAbsPt */
MIRP[11100]	/* MoveIndirectRelPt */
SRP0[ ]	/* SetRefPoint0 */
MIRP[11100]	/* MoveIndirectRelPt */
IUP[0]	/* InterpolateUntPts */
IUP[1]	/* InterpolateUntPts */
DELTAP1[ ]	/* DeltaExceptionP1 */";
};
width = 600;
}
);
note = one;
unicode = 49;
},
{
color = 7;
glyphname = two;
lastChange = "2025-01-18 15:02:46 +0000";
layers = (
{
guides = (
{
angle = 90;
pos = (425,351);
}
);
layerId = m01;
shapes = (
{
closed = 1;
nodes = (
(465,0,l),
(488,0,o),
(507,18,o),
(507,40,cs),
(507,61,o),
(490,80,o),
(467,80,cs),
(226,80,l),
(381,253,ls),
(450,331,o),
(495,405,o),
(495,474,cs),
(495,590,o),
(425,660,o),
(302,660,cs),
(189,660,o),
(109,585,o),
(109,485,cs),
(109,451,o),
(130,439,o),
(154,439,cs),
(176,439,o),
(194,447,o),
(194,474,cs),
(194,533,o),
(226,574,o),
(297,574,cs),
(357,574,o),
(409,545,o),
(409,465,cs),
(409,414,o),
(347,341,o),
(310,299,cs),
(173,142,ls),
(145,110,o),
(123,81,o),
(123,53,cs),
(123,18,o),
(152,0,o),
(178,0,cs)
);
}
);
userData = {
assembly = "NPUSHB[ ]	/* 9 values pushed */
24 0 11 4 0 35 10 11 8 
SVTCA[0]	/* SetFreedomAndProjectionVectorToAxis */
MIAP[1]	/* MoveIndirectAbsPt */
MIAP[1]	/* MoveIndirectAbsPt */
MIRP[11100]	/* MoveIndirectRelPt */
SRP0[ ]	/* SetRefPoint0 */
MIRP[11100]	/* MoveIndirectRelPt */
IUP[0]	/* InterpolateUntPts */
IUP[1]	/* InterpolateUntPts */";
};
width = 600;
}
);
note = two;
unicode = 50;
},
{
color = 7;
glyphname = three;
lastChange = "2025-01-18 15:02:46 +0000";
layers = (
{
layerId = m01;
shapes = (
{
closed = 1;
nodes = (
(247,381,o),
(232,369,o),
(232,341,cs),
(232,314,o),
(247,302,o),
(274,298,cs),
(349,288,o),
(407,260,o),
(407,177,cs),
(407,102,o),
(335,79,o),
(300,79,cs),
(257,79,o),
(211,91,o),
(177,120,cs),
(152,142,o),
(133,148,o),
(113,128,cs),
(92,107,o),
(87,83,o),
(109,60,cs),
(156,13,o),
(228,-12,o),
(293,-12,cs),
(397,-12,o),
(497,50,o),
(497,167,cs),
(497,257,o),
(458,323,o),
(370,347,c),
(458,378,o),
(477,449,o),
(477,501,cs),
(477,597,o),
(407,659,o),
(292,659,cs),
(225,659,o),
(163,634,o),
(124,594,cs),
(102,572,o),
(106,548,o),
(126,528,cs),
(145,509,o),
(163,515,o),
(188,538,cs),
(218,565,o),
(255,574,o),
(299,574,cs),
(345,574,o),
(387,561,o),
(387,501,cs),
(387,447,o),
(351,394,o),
(274,384,cs)
);
}
);
userData = {
assembly = "NPUSHB[ ]	/* 28 values pushed */
50 21 1 50 16 1 45 0 59 33 0 37 4 24 0 11 59 10 11 8 6 3 29 4 0 3 41 4 
CALL[ ]	/* CallFunction */
CALL[ ]	/* CallFunction */
SVTCA[0]	/* SetFreedomAndProjectionVectorToAxis */
MIAP[1]	/* MoveIndirectAbsPt */
MIAP[1]	/* MoveIndirectAbsPt */
SRP0[ ]	/* SetRefPoint0 */
MIRP[11100]	/* MoveIndirectRelPt */
CALL[ ]	/* CallFunction */
SRP0[ ]	/* SetRefPoint0 */
MIRP[11100]	/* MoveIndirectRelPt */
IUP[0]	/* InterpolateUntPts */
IUP[1]	/* InterpolateUntPts */
SVTCA[1]	/* SetFreedomAndProjectionVectorToAxis */
DELTAP1[ ]	/* DeltaExceptionP1 */
DELTAP1[ ]	/* DeltaExceptionP1 */";
};
width = 600;
}
);
note = three;
unicode = 51;
},
{
color = 7;
glyphname = four;
lastChange = "2025-01-18 15:02:46 +0000";
layers = (
{
layerId = m01;
shapes = (
{
closed = 1;
nodes = (
(412,260,l),
(483,260,ls),
(510,260,o),
(520,238,o),
(520,219,cs),
(520,199,o),
(508,178,o),
(480,178,cs),
(412,178,l),
(412,24,ls),
(412,-2,o),
(391,-11,o),
(368,-11,cs),
(344,-11,o),
(324,0,o),
(324,27,cs),
(324,178,l),
(136,178,ls),
(107,178,o),
(85,202,o),
(85,219,cs),
(85,224,ls),
(85,225,o),
(86,229,o),
(86,231,c),
(119,360,o),
(136,444,o),
(134,617,c),
(139,641,o),
(162,655,o),
(183,652,cs),
(205,648,o),
(218,625,o),
(217,600,cs),
(210,448,o),
(202,371,o),
(177,260,c),
(324,260,l),
(324,457,ls),
(324,484,o),
(347,496,o),
(368,496,cs),
(388,496,o),
(412,486,o),
(412,461,cs)
);
}
);
userData = {
assembly = "NPUSHB[ ]	/* 24 values pushed */
9 0 29 4 2 0 40 4 34 10 15 8 13 3 17 4 10 3 22 4 4 3 8 4 
CALL[ ]	/* CallFunction */
CALL[ ]	/* CallFunction */
CALL[ ]	/* CallFunction */
SVTCA[0]	/* SetFreedomAndProjectionVectorToAxis */
MIAP[1]	/* MoveIndirectAbsPt */
MIAP[1]	/* MoveIndirectAbsPt */
CALL[ ]	/* CallFunction */
CALL[ ]	/* CallFunction */
IUP[0]	/* InterpolateUntPts */
IUP[1]	/* InterpolateUntPts */";
};
width = 600;
}
);
note = four;
unicode = 52;
},
{
color = 7;
glyphname = five;
lastChange = "2025-01-18 15:02:46 +0000";
layers = (
{
layerId = m01;
shapes = (
{
closed = 1;
nodes = (
(435,-12,o),
(515,95,o),
(515,213,cs),
(515,341,o),
(447,430,o),
(305,430,cs),
(259,430,o),
(222,411,o),
(196,388,c),
(196,568,l),
(439,568,ls),
(467,568,o),
(489,589,o),
(489,609,cs),
(489,628,o),
(469,650,o),
(442,650,cs),
(159,650,ls),
(158,650,o),
(158,650,o),
(157,650,cs),
(157,650,ls),
(135,650,o),
(111,628,o),
(111,599,cs),
(111,294,ls),
(111,291,o),
(117,284,o),
(129,284,cs),
(171,284,ls),
(180,284,o),
(188,284,o),
(191,287,cs),
(232,334,o),
(263,351,o),
(305,351,cs),
(397,351,o),
(425,290,o),
(425,223,cs),
(425,147,o),
(393,79,o),
(288,79,cs),
(235,79,o),
(203,94,o),
(175,120,cs),
(147,146,o),
(127,148,o),
(107,128,cs),
(86,107,o),
(85,83,o),
(107,60,cs),
(154,13,o),
(206,-12,o),
(281,-12,cs)
);
}
);
userData = {
assembly = "NPUSHB[ ]	/* 30 values pushed */
75 25 1 29 0 43 8 0 12 4 0 23 4 43 10 12 8 19 33 3 38 4 7 3 16 4 0 3 27 4 
CALL[ ]	/* CallFunction */
CALL[ ]	/* CallFunction */
CALL[ ]	/* CallFunction */
SVTCA[0]	/* SetFreedomAndProjectionVectorToAxis */
RUTG[ ]	/* RoundUpToGrid */
MDAP[1]	/* MoveDirectAbsPt */
RTG[ ]	/* RoundToGrid */
MIAP[1]	/* MoveIndirectAbsPt */
MIAP[1]	/* MoveIndirectAbsPt */
CALL[ ]	/* CallFunction */
SRP0[ ]	/* SetRefPoint0 */
MIRP[11100]	/* MoveIndirectRelPt */
SRP0[ ]	/* SetRefPoint0 */
MIRP[11100]	/* MoveIndirectRelPt */
IUP[0]	/* InterpolateUntPts */
IUP[1]	/* InterpolateUntPts */
SVTCA[1]	/* SetFreedomAndProjectionVectorToAxis */
DELTAP1[ ]	/* DeltaExceptionP1 */";
};
width = 600;
}
);
note = five;
unicode = 53;
},
{
color = 7;
glyphname = six;
lastChange = "2025-02-04 10:09:34 +0000";
layers = (
{
background = {
shapes = (
{
closed = 1;
nodes = (
(508,88,o),
(428,-6,o),
(291,-6,cs),
(153,-6,o),
(84,80,o),
(84,252,cs),
(84,323,o),
(98,387,o),
(127,445,cs),
(152,497,o),
(190,551,o),
(242,607,c),
(297,655,o),
(331,679,o),
(345,679,cs),
(374,679,o),
(394,674,o),
(393,631,cs),
(393,614,o),
(362,581,o),
(299,534,c),
(244,472,o),
(212,429,o),
(204,404,c),
(232,414,o),
(272,438,o),
(313,438,c),
(428,431,o),
(516,356,o),
(516,227,c)
);
},
{
closed = 1;
nodes = (
(431,304,o),
(377,348,o),
(297,348,cs),
(268,348,o),
(231,328,o),
(185,289,c),
(184,274,o),
(182,264,o),
(178,257,cs),
(174,250,o),
(172,246,o),
(172,245,cs),
(169,129,o),
(211,71,o),
(298,71,cs),
(379,71,o),
(431,140,o),
(431,227,cs)
);
}
);
};
layerId = m01;
shapes = (
{
closed = 1;
nodes = (
(197,72,o),
(304,72,cs),
(365,72,o),
(434,115,o),
(434,213,cs),
(434,305,o),
(374,352,o),
(312,352,cs),
(265,352,o),
(219,332,o),
(172,274,c),
(161,153,o)
);
},
{
closed = 1;
nodes = (
(409,637,cs),
(421,620,o),
(414,593,o),
(384,580,cs),
(280,534,o),
(215,474,o),
(189,382,c),
(233,421,o),
(270,433,o),
(325,433,cs),
(419,433,o),
(517,360,o),
(517,220,cs),
(517,86,o),
(424,-11,o),
(301,-11,cs),
(139,-11,o),
(85,131,o),
(85,250,cs),
(85,424,o),
(182,583,o),
(351,653,cs),
(375,663,o),
(395,659,o)
);
}
);
userData = {
assembly = "NPUSHB[ ]	/* 19 values pushed */
28 0 22 35 0 3 4 22 10 14 8 30 3 20 4 0 3 25 4 
CALL[ ]	/* CallFunction */
CALL[ ]	/* CallFunction */
SVTCA[0]	/* SetFreedomAndProjectionVectorToAxis */
MIAP[1]	/* MoveIndirectAbsPt */
MIAP[1]	/* MoveIndirectAbsPt */
CALL[ ]	/* CallFunction */
SRP0[ ]	/* SetRefPoint0 */
MIRP[11100]	/* MoveIndirectRelPt */
IUP[0]	/* InterpolateUntPts */
IUP[1]	/* InterpolateUntPts */";
};
width = 600;
}
);
note = six;
unicode = 54;
},
{
color = 7;
glyphname = seven;
lastChange = "2025-01-18 15:02:46 +0000";
layers = (
{
layerId = m01;
shapes = (
{
closed = 1;
nodes = (
(393,568,l),
(215,58,ls),
(206,32,o),
(216,9,o),
(237,1,cs),
(260,-9,o),
(283,3,o),
(292,28,cs),
(489,589,ls),
(497,613,o),
(487,637,o),
(466,646,cs),
(461,648,o),
(455,650,o),
(428,650,cs),
(142,650,ls),
(116,650,o),
(101,635,o),
(101,609,cs),
(101,583,o),
(116,568,o),
(142,568,cs)
);
}
);
userData = {
assembly = "NPUSHB[ ]	/* 7 values pushed */
12 0 7 0 10 7 8 
SVTCA[0]	/* SetFreedomAndProjectionVectorToAxis */
MIAP[1]	/* MoveIndirectAbsPt */
MIAP[1]	/* MoveIndirectAbsPt */
SRP0[ ]	/* SetRefPoint0 */
MIRP[11100]	/* MoveIndirectRelPt */
IUP[0]	/* InterpolateUntPts */
IUP[1]	/* InterpolateUntPts */";
};
width = 600;
}
);
note = seven;
unicode = 55;
},
{
color = 7;
glyphname = eight;
lastChange = "2025-01-18 15:02:46 +0000";
layers = (
{
background = {
shapes = (
{
closed = 1;
nodes = (
(528,115,o),
(507,70,o),
(464,39,cs),
(426,11,o),
(376,-3,o),
(314,-3,cs),
(253,-3,o),
(204,9,o),
(168,33,cs),
(126,62,o),
(105,105,o),
(105,163,cs),
(105,201,o),
(113,237,o),
(128,271,cs),
(145,307,o),
(169,334,o),
(200,351,c),
(151,383,o),
(126,427,o),
(126,483,cs),
(126,536,o),
(145,581,o),
(182,617,cs),
(219,653,o),
(264,671,o),
(318,671,cs),
(377,671,o),
(422,656,o),
(453,626,cs),
(486,596,o),
(503,552,o),
(503,493,cs),
(503,462,o),
(495,436,o),
(478,415,cs),
(465,398,o),
(443,381,o),
(412,364,c),
(489,328,o),
(528,265,o),
(528,176,cs)
);
},
{
closed = 1;
nodes = (
(420,542,o),
(409,563,o),
(387,577,c),
(369,586,o),
(346,590,o),
(317,590,cs),
(245,590,o),
(210,551,o),
(210,483,cs),
(210,443,o),
(244,416,o),
(313,401,c),
(354,411,o),
(380,422,o),
(393,434,cs),
(411,450,o),
(420,477,o),
(420,514,cs)
);
},
{
closed = 1;
nodes = (
(449,244,o),
(402,290,o),
(309,324,c),
(265,302,o),
(235,282,o),
(218,263,cs),
(193,236,o),
(180,202,o),
(180,162,cs),
(180,131,o),
(195,108,o),
(226,91,c),
(251,80,o),
(281,75,o),
(317,75,cs),
(405,75,o),
(449,112,o),
(449,185,cs)
);
}
);
};
guides = (
{
pos = (281,75);
}
);
layerId = m01;
shapes = (
{
closed = 1;
nodes = (
(222,408,o),
(187,431,o),
(187,485,cs),
(187,545,o),
(229,577,o),
(300,577,cs),
(371,577,o),
(413,545,o),
(413,485,cs),
(413,431,o),
(378,408,o),
(300,388,c)
);
},
{
closed = 1;
nodes = (
(77,50,o),
(177,-10,o),
(300,-10,cs),
(423,-10,o),
(523,50,o),
(523,187,cs),
(523,257,o),
(484,326,o),
(396,350,c),
(484,381,o),
(503,449,o),
(503,501,cs),
(503,597,o),
(433,659,o),
(300,659,cs),
(167,659,o),
(97,597,o),
(97,501,cs),
(97,449,o),
(116,381,o),
(204,350,c),
(116,326,o),
(77,257,o),
(77,187,cs)
);
},
{
closed = 1;
nodes = (
(167,265,o),
(224,298,o),
(300,318,c),
(376,298,o),
(433,265,o),
(433,182,cs),
(433,107,o),
(361,79,o),
(300,79,cs),
(239,79,o),
(167,107,o),
(167,182,cs)
);
}
);
userData = {
assembly = "NPUSHB[ ]	/* 40 values pushed */
60 52 76 52 2 51 50 67 50 2 43 0 24 37 0 10 32 0 51 4 24 10 10 8 47 3 20 4 34 3 14 4 6 3 28 4 0 3 41 4 
CALL[ ]	/* CallFunction */
CALL[ ]	/* CallFunction */
CALL[ ]	/* CallFunction */
CALL[ ]	/* CallFunction */
SVTCA[0]	/* SetFreedomAndProjectionVectorToAxis */
MIAP[1]	/* MoveIndirectAbsPt */
MIAP[1]	/* MoveIndirectAbsPt */
CALL[ ]	/* CallFunction */
SRP0[ ]	/* SetRefPoint0 */
MIRP[11100]	/* MoveIndirectRelPt */
SRP0[ ]	/* SetRefPoint0 */
MIRP[11100]	/* MoveIndirectRelPt */
IUP[0]	/* InterpolateUntPts */
IUP[1]	/* InterpolateUntPts */
SVTCA[1]	/* SetFreedomAndProjectionVectorToAxis */
DELTAP1[ ]	/* DeltaExceptionP1 */
DELTAP1[ ]	/* DeltaExceptionP1 */";
};
width = 600;
}
);
note = eight;
unicode = 56;
},
{
color = 7;
glyphname = nine;
lastChange = "2025-01-18 15:02:46 +0000";
layers = (
{
layerId = m01;
shapes = (
{
closed = 1;
nodes = (
(439,534,o),
(385,577,o),
(307,577,cs),
(226,577,o),
(157,534,o),
(157,436,cs),
(157,344,o),
(217,297,o),
(299,297,cs),
(336,297,o),
(385,318,o),
(432,359,c),
(437,378,o),
(439,407,o),
(439,428,cs)
);
},
{
closed = 1;
nodes = (
(129,51,o),
(143,68,o),
(176,75,cs),
(316,104,o),
(389,173,o),
(426,269,c),
(378,228,o),
(331,216,o),
(286,216,cs),
(172,216,o),
(74,289,o),
(74,429,cs),
(74,563,o),
(167,660,o),
(310,660,cs),
(452,660,o),
(526,558,o),
(526,409,cs),
(526,216,o),
(429,33,o),
(191,-9,cs),
(160,-15,o),
(143,-4,o),
(136,24,cs)
);
}
);
userData = {
assembly = "NPUSHB[ ]	/* 35 values pushed */
66 36 1 76 44 1 76 6 1 76 32 1 42 0 4 16 0 28 4 34 0 12 4 26 10 4 8 38 3 8 4 0 3 30 4 
CALL[ ]	/* CallFunction */
CALL[ ]	/* CallFunction */
SVTCA[0]	/* SetFreedomAndProjectionVectorToAxis */
MIAP[1]	/* MoveIndirectAbsPt */
MIAP[1]	/* MoveIndirectAbsPt */
CALL[ ]	/* CallFunction */
CALL[ ]	/* CallFunction */
SRP0[ ]	/* SetRefPoint0 */
MIRP[11100]	/* MoveIndirectRelPt */
IUP[0]	/* InterpolateUntPts */
IUP[1]	/* InterpolateUntPts */
SVTCA[1]	/* SetFreedomAndProjectionVectorToAxis */
DELTAP1[ ]	/* DeltaExceptionP1 */
DELTAP1[ ]	/* DeltaExceptionP1 */
DELTAP1[ ]	/* DeltaExceptionP1 */
DELTAP1[ ]	/* DeltaExceptionP1 */";
};
width = 600;
}
);
note = nine;
unicode = 57;
},
{
color = 7;
glyphname = colon;
lastChange = "2025-02-01 15:02:23 +0000";
layers = (
{
layerId = m01;
shapes = (
{
closed = 1;
nodes = (
(341,323,o),
(374,357,o),
(374,397,c),
(374,439,o),
(341,472,o),
(300,472,c),
(259,472,o),
(226,439,o),
(226,397,c),
(226,357,o),
(259,323,o),
(300,323,c)
);
},
{
closed = 1;
nodes = (
(341,-3,o),
(374,31,o),
(374,71,c),
(374,113,o),
(341,146,o),
(300,146,c),
(259,146,o),
(226,113,o),
(226,71,c),
(226,31,o),
(259,-3,o),
(300,-3,c)
);
}
);
userData = {
assembly = "NPUSHB[ ]	/* 4 values pushed */
13 32 27 10 
MDAP[1]	/* MoveDirectAbsPt */
MDAP[1]	/* MoveDirectAbsPt */
SVTCA[0]	/* SetFreedomAndProjectionVectorToAxis */
MDAP[1]	/* MoveDirectAbsPt */
MDAP[1]	/* MoveDirectAbsPt */
IUP[0]	/* InterpolateUntPts */
IUP[1]	/* InterpolateUntPts */";
};
width = 600;
}
);
note = colon;
unicode = 58;
},
{
color = 7;
glyphname = semicolon;
lastChange = "2025-02-01 15:03:02 +0000";
layers = (
{
layerId = m01;
shapes = (
{
closed = 1;
nodes = (
(300,0,o),
(306,0,o),
(318,10,c),
(318,-44,o),
(281,-56,o),
(249,-56,cs),
(232,-56,o),
(223,-68,o),
(223,-85,cs),
(223,-100,o),
(236,-110,o),
(251,-110,cs),
(309,-110,o),
(373,-75,o),
(373,38,cs),
(373,88,o),
(346,122,o),
(297,122,cs),
(254,122,o),
(230,88,o),
(230,56,cs),
(230,23,o),
(263,0,o),
(287,0,cs)
);
},
{
closed = 1;
nodes = (
(341,323,o),
(374,357,o),
(374,397,c),
(374,439,o),
(341,472,o),
(300,472,c),
(259,472,o),
(226,439,o),
(226,397,c),
(226,357,o),
(259,323,o),
(300,323,c)
);
}
);
userData = {
assembly = "NPUSHB[ ]	/* 3 values pushed */
5 6 0 
MDAP[1]	/* MoveDirectAbsPt */
SVTCA[0]	/* SetFreedomAndProjectionVectorToAxis */
MIAP[1]	/* MoveIndirectAbsPt */
IUP[0]	/* InterpolateUntPts */
IUP[1]	/* InterpolateUntPts */";
};
width = 600;
}
);
note = semicolon;
unicode = 59;
},
{
color = 7;
glyphname = less;
lastChange = "2025-01-26 11:50:43 +0000";
layers = (
{
layerId = m01;
shapes = (
{
closed = 1;
nodes = (
(483,452,o),
(486,485,o),
(474,507,cs),
(460,530,o),
(427,540,o),
(404,526,cs),
(145,374,ls),
(109,353,o),
(108,299,o),
(147,276,cs),
(408,122,ls),
(430,109,o),
(460,119,o),
(474,143,cs),
(489,169,o),
(481,200,o),
(457,213,cs),
(244,325,l),
(459,439,ls)
);
}
);
userData = {
assembly = "NPUSHB[ ]	/* 1 value pushed */
11 
MDAP[1]	/* MoveDirectAbsPt */
IUP[0]	/* InterpolateUntPts */
IUP[1]	/* InterpolateUntPts */";
};
width = 600;
}
);
note = less;
unicode = 60;
},
{
color = 7;
glyphname = equal;
lastChange = "2025-02-01 15:13:28 +0000";
layers = (
{
layerId = m01;
shapes = (
{
closed = 1;
nodes = (
(97,462,o),
(80,440,o),
(80,419,cs),
(80,396,o),
(99,376,o),
(123,376,cs),
(474,376,ls),
(497,376,o),
(516,394,o),
(516,419,cs),
(516,443,o),
(499,462,o),
(476,462,cs),
(120,462,ls)
);
},
{
closed = 1;
nodes = (
(97,290,o),
(80,268,o),
(80,247,cs),
(80,224,o),
(99,204,o),
(123,204,cs),
(474,204,ls),
(497,204,o),
(516,222,o),
(516,247,cs),
(516,271,o),
(499,290,o),
(476,290,cs),
(120,290,ls)
);
}
);
userData = {
assembly = "NPUSHB[ ]	/* 9 values pushed */
3 0 9 0 19 19 0 26 4 
SVTCA[0]	/* SetFreedomAndProjectionVectorToAxis */
CALL[ ]	/* CallFunction */
SRP0[ ]	/* SetRefPoint0 */
MIRP[11100]	/* MoveIndirectRelPt */
MIRP[11100]	/* MoveIndirectRelPt */
IUP[0]	/* InterpolateUntPts */
IUP[1]	/* InterpolateUntPts */";
};
width = 600;
}
);
note = equal;
unicode = 61;
},
{
color = 7;
glyphname = greater;
lastChange = "2025-01-26 11:50:47 +0000";
layers = (
{
layerId = m01;
shapes = (
{
closed = 1;
nodes = (
(355,325,l),
(142,213,ls),
(118,200,o),
(110,169,o),
(125,143,cs),
(139,119,o),
(169,109,o),
(191,122,cs),
(452,276,ls),
(491,299,o),
(490,353,o),
(454,374,cs),
(195,526,ls),
(172,540,o),
(139,530,o),
(125,507,cs),
(113,485,o),
(116,452,o),
(140,439,cs)
);
}
);
userData = {
assembly = "NPUSHB[ ]	/* 8 values pushed */
12 0 17 4 3 0 10 4 
SVTCA[0]	/* SetFreedomAndProjectionVectorToAxis */
CALL[ ]	/* CallFunction */
CALL[ ]	/* CallFunction */
IUP[0]	/* InterpolateUntPts */
IUP[1]	/* InterpolateUntPts */";
};
width = 600;
}
);
note = greater;
unicode = 62;
},
{
color = 7;
glyphname = question;
lastChange = "2025-01-18 15:02:46 +0000";
layers = (
{
background = {
shapes = (
{
closed = 1;
nodes = (
(393,465,o),
(385,434,o),
(369,403,cs),
(358,384,o),
(342,359,o),
(315,326,cs),
(288,291,o),
(270,266,o),
(259,247,cs),
(256,240,o),
(252,228,o),
(248,209,cs),
(244,193,o),
(239,181,o),
(233,174,cs),
(225,164,o),
(213,159,o),
(197,159,cs),
(174,159,o),
(153,177,o),
(153,200,cs),
(153,245,o),
(185,308,o),
(250,389,cs),
(259,400,o),
(271,415,o),
(286,436,c),
(292,448,o),
(295,463,o),
(295,482,cs),
(295,529,o),
(267,559,o),
(220,559,cs),
(203,559,o),
(187,554,o),
(170,543,cs),
(157,534,o),
(147,528,o),
(140,524,cs),
(132,519,o),
(127,516,o),
(124,515,c),
(99,524,o),
(86,542,o),
(86,568,cs),
(86,590,o),
(102,610,o),
(134,627,cs),
(161,642,o),
(187,650,o),
(212,650,cs),
(260,650,o),
(297,642,o),
(324,625,cs),
(353,607,o),
(374,576,o),
(386,531,cs),
(391,515,o),
(393,503,o),
(393,496,cs)
);
}
);
};
layerId = m01;
shapes = (
{
closed = 1;
nodes = (
(156,535,cs),
(175,518,o),
(197,515,o),
(223,542,cs),
(248,568,o),
(279,574,o),
(302,574,cs),
(337,574,o),
(365,542,o),
(365,502,cs),
(365,388,o),
(228,330,o),
(224,214,cs),
(223,180,o),
(238,162,o),
(266,162,cs),
(295,162,o),
(310,179,o),
(311,213,cs),
(314,301,o),
(453,379,o),
(453,503,cs),
(453,602,o),
(393,659,o),
(299,659,cs),
(246,659,o),
(202,644,o),
(158,600,cs),
(135,577,o),
(133,554,o)
);
},
{
closed = 1;
nodes = (
(297,-10,o),
(325,19,o),
(325,53,c),
(325,88,o),
(297,116,o),
(262,116,c),
(227,116,o),
(199,88,o),
(199,53,c),
(199,19,o),
(227,-10,o),
(262,-10,c)
);
}
);
userData = {
assembly = "NPUSHB[ ]	/* 21 values pushed */
48 0 55 4 17 0 6 4 44 3 52 4 36 3 27 4 2 3 20 4 10 
MDAP[1]	/* MoveDirectAbsPt */
CALL[ ]	/* CallFunction */
CALL[ ]	/* CallFunction */
CALL[ ]	/* CallFunction */
SVTCA[0]	/* SetFreedomAndProjectionVectorToAxis */
CALL[ ]	/* CallFunction */
CALL[ ]	/* CallFunction */
IUP[0]	/* InterpolateUntPts */
IUP[1]	/* InterpolateUntPts */";
};
width = 600;
}
);
note = question;
unicode = 63;
},
{
color = 7;
glyphname = at;
lastChange = "2025-02-04 10:12:05 +0000";
layers = (
{
background = {
shapes = (
{
closed = 1;
nodes = (
(582,335,o),
(571,287,o),
(549,248,cs),
(523,204,o),
(487,182,o),
(440,182,cs),
(395,182,o),
(363,197,o),
(345,227,c),
(321,200,o),
(298,186,o),
(276,186,cs),
(248,186,o),
(224,197,o),
(203,219,cs),
(182,242,o),
(172,267,o),
(172,295,cs),
(172,348,o),
(184,395,o),
(208,434,cs),
(237,480,o),
(278,502,o),
(331,499,cs),
(351,498,o),
(366,477,o),
(366,456,cs),
(366,442,o),
(355,432,o),
(333,425,cs),
(301,414,o),
(280,405,o),
(271,397,cs),
(249,379,o),
(238,350,o),
(238,311,cs),
(238,290,o),
(255,266,o),
(271,266,cs),
(290,266,o),
(308,285,o),
(326,324,cs),
(344,363,o),
(358,382,o),
(369,382,cs),
(392,382,o),
(404,366,o),
(404,335,cs),
(404,330,o),
(403,323,o),
(402,314,cs),
(401,304,o),
(400,297,o),
(400,292,cs),
(400,270,o),
(413,259,o),
(440,259,cs),
(457,259,o),
(473,272,o),
(488,298,cs),
(502,321,o),
(509,341,o),
(509,359,cs),
(509,410,o),
(504,447,o),
(495,469,cs),
(481,502,o),
(457,531,o),
(424,556,cs),
(389,582,o),
(354,595,o),
(321,595,cs),
(250,595,o),
(193,565,o),
(150,505,cs),
(112,452,o),
(93,389,o),
(93,317,cs),
(93,250,o),
(114,191,o),
(155,142,cs),
(199,91,o),
(254,65,o),
(321,65,cs),
(354,65,o),
(403,79,o),
(468,108,c),
(492,103,o),
(504,88,o),
(504,65,cs),
(504,40,o),
(479,20,o),
(428,6,cs),
(391,-3,o),
(356,-8,o),
(321,-8,cs),
(236,-8,o),
(164,25,o),
(104,91,cs),
(47,156,o),
(18,232,o),
(18,317,cs),
(18,410,o),
(42,492,o),
(90,561,cs),
(145,638,o),
(217,677,o),
(306,677,cs),
(383,677,o),
(449,649,o),
(503,593,cs),
(556,538,o),
(582,472,o),
(582,394,cs)
);
}
);
};
layerId = m01;
shapes = (
{
closed = 1;
nodes = (
(388,407,ls),
(366,407,o),
(354,393,o),
(354,368,cs),
(354,364,o),
(354,330,o),
(354,326,cs),
(350,285,o),
(329,266,o),
(294,266,cs),
(269,266,o),
(241,286,o),
(241,334,cs),
(241,371,o),
(255,428,o),
(343,429,cs),
(375,429,o),
(386,440,o),
(385,460,cs),
(384,485,o),
(361,494,o),
(339,494,cs),
(208,495,o),
(170,405,o),
(170,334,cs),
(170,231,o),
(243,196,o),
(287,196,cs),
(330,196,o),
(362,223,o),
(377,259,c),
(366,289,l),
(367,241,l),
(369,190,o),
(420,177,o),
(455,177,cs),
(548,177,o),
(581,300,o),
(581,365,cs),
(581,521,o),
(512,659,o),
(313,659,cs),
(107,659,o),
(20,501,o),
(20,331,cs),
(20,132,o),
(116,-10,o),
(323,-10,cs),
(406,-10,o),
(472,12,o),
(519,46,cs),
(546,66,o),
(550,88,o),
(533,108,cs),
(514,129,o),
(494,130,o),
(467,111,cs),
(437,90,o),
(391,72,o),
(323,72,cs),
(168,72,o),
(101,170,o),
(101,331,cs),
(101,488,o),
(161,578,o),
(313,578,cs),
(468,578,o),
(503,471,o),
(503,364,cs),
(503,321,o),
(490,245,o),
(452,245,cs),
(431,245,o),
(422,279,o),
(422,315,cs),
(422,368,ls),
(422,393,o),
(410,407,o),
(388,407,cs)
);
}
);
userData = {
assembly = "NPUSHB[ ]	/* 20 values pushed */
29 0 4 21 0 12 10 4 8 65 3 25 25 3 8 4 0 3 35 4 
CALL[ ]	/* CallFunction */
CALL[ ]	/* CallFunction */
SRP0[ ]	/* SetRefPoint0 */
MIRP[11100]	/* MoveIndirectRelPt */
SVTCA[0]	/* SetFreedomAndProjectionVectorToAxis */
MIAP[1]	/* MoveIndirectAbsPt */
MIAP[1]	/* MoveIndirectAbsPt */
MIRP[11100]	/* MoveIndirectRelPt */
SRP0[ ]	/* SetRefPoint0 */
MIRP[11100]	/* MoveIndirectRelPt */
IUP[0]	/* InterpolateUntPts */
IUP[1]	/* InterpolateUntPts */";
};
width = 600;
}
);
note = at;
unicode = 64;
},
{
color = 7;
glyphname = A;
lastChange = "2025-01-18 15:02:46 +0000";
layers = (
{
anchors = (
{
name = bottom;
pos = (300,0);
},
{
name = ogonek;
pos = (540,10);
},
{
name = top;
pos = (300,650);
}
);
layerId = m01;
shapes = (
{
closed = 1;
nodes = (
(31,34,o),
(43,13,o),
(68,3,cs),
(93,-5,o),
(115,1,o),
(129,40,cs),
(299,503,l),
(469,40,ls),
(483,1,o),
(505,-5,o),
(530,3,cs),
(555,13,o),
(567,34,o),
(553,71,c),
(335,633,ls),
(328,651,o),
(313,661,o),
(298,661,cs),
(283,661,o),
(267,651,o),
(260,632,cs),
(45,71,l)
);
},
{
closed = 1;
nodes = (
(171,176,l),
(427,176,l),
(427,256,l),
(171,256,l)
);
}
);
userData = {
assembly = "NPUSHB[ ]	/* 12 values pushed */
18 0 13 4 16 10 9 10 20 6 4 8 
SVTCA[0]	/* SetFreedomAndProjectionVectorToAxis */
MIAP[1]	/* MoveIndirectAbsPt */
MIAP[1]	/* MoveIndirectAbsPt */
MIAP[1]	/* MoveIndirectAbsPt */
MIAP[1]	/* MoveIndirectAbsPt */
CALL[ ]	/* CallFunction */
IUP[0]	/* InterpolateUntPts */
IUP[1]	/* InterpolateUntPts */";
};
width = 600;
}
);
note = A;
unicode = 65;
},
{
color = 7;
glyphname = B;
lastChange = "2025-01-18 17:03:51 +0000";
layers = (
{
anchors = (
{
name = bottom;
pos = (286,0);
},
{
name = center;
pos = (286,325);
},
{
name = top;
pos = (253,661);
}
);
layerId = m01;
shapes = (
{
closed = 1;
nodes = (
(306,0,ls),
(445,0,o),
(535,70,o),
(535,194,cs),
(535,271,o),
(478,330,o),
(398,348,c),
(439,365,o),
(478,417,o),
(478,475,cs),
(478,605,o),
(394,650,o),
(282,650,cs),
(146,650,ls),
(98,650,o),
(71,623,o),
(71,575,cs),
(71,75,ls),
(71,27,o),
(98,0,o),
(146,0,cs)
);
},
{
closed = 1;
nodes = (
(158,291,l),
(291,291,ls),
(409,291,o),
(448,250,o),
(448,191,cs),
(448,113,o),
(384,80,o),
(306,80,cs),
(158,80,l)
);
},
{
closed = 1;
nodes = (
(158,570,l),
(284,570,ls),
(374,570,o),
(394,528,o),
(394,473,cs),
(394,402,o),
(340,371,o),
(260,371,cs),
(158,371,l)
);
}
);
width = 600;
}
);
metricLeft = H;
note = B;
unicode = 66;
},
{
color = 7;
glyphname = C;
lastChange = "2025-01-18 15:02:46 +0000";
layers = (
{
anchors = (
{
name = bottom;
pos = (281,0);
},
{
name = top;
pos = (291,677);
}
);
layerId = m01;
shapes = (
{
closed = 1;
nodes = (
(555,183,o),
(557,163,o),
(547,142,cs),
(497,38,o),
(421,-9,o),
(312,-10,cs),
(135,-12,o),
(39,132,o),
(39,331,cs),
(39,501,o),
(126,661,o),
(312,659,cs),
(428,658,o),
(511,601,o),
(532,498,cs),
(536,479,o),
(535,460,o),
(511,450,cs),
(488,440,o),
(467,451,o),
(459,473,cs),
(430,549,o),
(390,573,o),
(312,573,cs),
(189,573,o),
(129,483,o),
(129,331,cs),
(129,174,o),
(190,78,o),
(312,76,cs),
(380,75,o),
(425,96,o),
(479,181,cs),
(490,199,o),
(513,208,o),
(533,196,cs)
);
}
);
userData = {
assembly = "NPUSHB[ ]	/* 13 values pushed */
32 0 6 24 0 13 10 6 8 28 3 10 4 
CALL[ ]	/* CallFunction */
SVTCA[0]	/* SetFreedomAndProjectionVectorToAxis */
MIAP[1]	/* MoveIndirectAbsPt */
MIAP[1]	/* MoveIndirectAbsPt */
MIRP[11100]	/* MoveIndirectRelPt */
SRP0[ ]	/* SetRefPoint0 */
MIRP[11100]	/* MoveIndirectRelPt */
IUP[0]	/* InterpolateUntPts */
IUP[1]	/* InterpolateUntPts */";
};
width = 600;
}
);
metricLeft = O;
note = C;
unicode = 67;
},
{
color = 7;
glyphname = D;
lastChange = "2025-01-18 15:02:46 +0000";
layers = (
{
anchors = (
{
name = bottom;
pos = (288,0);
},
{
name = center;
pos = (288,325);
},
{
name = top;
pos = (288,668);
}
);
layerId = m01;
shapes = (
{
closed = 1;
nodes = (
(256,0,ls),
(428,0,o),
(561,123,o),
(561,330,cs),
(561,536,o),
(420,650,o),
(231,650,cs),
(146,650,ls),
(98,650,o),
(71,623,o),
(71,575,cs),
(71,75,ls),
(71,27,o),
(98,0,o),
(146,0,cs)
);
},
{
closed = 1;
nodes = (
(158,570,l),
(231,570,ls),
(347,570,o),
(473,513,o),
(471,334,cs),
(469,156,o),
(365,79,o),
(257,79,cs),
(158,79,l)
);
}
);
userData = {
assembly = "NPUSHB[ ]	/* 17 values pushed */
20 0 2 18 0 10 10 2 8 20 3 4 4 0 3 16 4 
CALL[ ]	/* CallFunction */
CALL[ ]	/* CallFunction */
SVTCA[0]	/* SetFreedomAndProjectionVectorToAxis */
MIAP[1]	/* MoveIndirectAbsPt */
MIAP[1]	/* MoveIndirectAbsPt */
MIRP[11100]	/* MoveIndirectRelPt */
SRP0[ ]	/* SetRefPoint0 */
MIRP[11100]	/* MoveIndirectRelPt */
IUP[0]	/* InterpolateUntPts */
IUP[1]	/* InterpolateUntPts */";
};
width = 600;
}
);
metricLeft = H;
note = D;
unicode = 68;
},
{
color = 7;
glyphname = E;
lastChange = "2025-01-23 21:48:40 +0000";
layers = (
{
anchors = (
{
name = bottom;
pos = (231,0);
},
{
name = ogonek;
pos = (438,10);
},
{
name = top;
pos = (231,670);
},
{
name = topleft;
pos = (241,453);
}
);
layerId = m01;
shapes = (
{
closed = 1;
nodes = (
(188,212,l),
(188,570,l),
(479,570,ls),
(516,570,o),
(530,587,o),
(530,611,cs),
(530,632,o),
(516,650,o),
(479,650,cs),
(176,650,ls),
(128,650,o),
(101,623,o),
(101,575,cs),
(101,212,l)
);
},
{
closed = 1;
nodes = (
(101,75,ls),
(101,27,o),
(128,0,o),
(176,0,cs),
(479,0,ls),
(516,0,o),
(530,18,o),
(530,41,cs),
(530,62,o),
(516,80,o),
(479,80,cs),
(188,80,l),
(188,438,l),
(101,438,l)
);
},
{
closed = 1;
nodes = (
(399,305,ls),
(436,305,o),
(450,322,o),
(450,345,cs),
(450,367,o),
(436,385,o),
(399,385,cs),
(152,385,ls),
(115,385,o),
(101,368,o),
(101,342,cs),
(101,323,o),
(115,305,o),
(152,305,cs)
);
}
);
userData = {
assembly = "NPUSHB[ ]	/* 19 values pushed */
15 0 19 12 0 7 4 5 0 27 10 19 8 20 8 14 3 23 4 
CALL[ ]	/* CallFunction */
SVTCA[0]	/* SetFreedomAndProjectionVectorToAxis */
MIAP[1]	/* MoveIndirectAbsPt */
MIAP[1]	/* MoveIndirectAbsPt */
MIAP[1]	/* MoveIndirectAbsPt */
MIRP[11100]	/* MoveIndirectRelPt */
CALL[ ]	/* CallFunction */
SRP0[ ]	/* SetRefPoint0 */
MIRP[11100]	/* MoveIndirectRelPt */
IUP[0]	/* InterpolateUntPts */
IUP[1]	/* InterpolateUntPts */";
};
width = 600;
}
);
note = E;
unicode = 69;
},
{
color = 7;
glyphname = F;
lastChange = "2025-01-18 15:02:46 +0000";
layers = (
{
anchors = (
{
name = bottom;
pos = (251,0);
},
{
name = top;
pos = (251,670);
}
);
layerId = m01;
shapes = (
{
closed = 1;
nodes = (
(158,192,l),
(158,570,l),
(479,570,ls),
(516,570,o),
(530,587,o),
(530,610,cs),
(530,632,o),
(516,650,o),
(479,650,cs),
(146,650,ls),
(98,650,o),
(71,623,o),
(71,575,cs),
(71,192,l)
);
},
{
closed = 1;
nodes = (
(399,265,ls),
(436,265,o),
(450,282,o),
(450,305,cs),
(450,327,o),
(436,345,o),
(399,345,cs),
(122,345,ls),
(85,345,o),
(71,328,o),
(71,302,cs),
(71,283,o),
(85,265,o),
(122,265,cs)
);
},
{
closed = 1;
nodes = (
(71,125,l),
(158,137,l),
(158,438,l),
(71,438,l)
);
},
{
closed = 1;
nodes = (
(71,50,ls),
(71,13,o),
(88,-1,o),
(114,-1,cs),
(140,-1,o),
(158,13,o),
(158,50,cs),
(158,217,ls),
(158,254,o),
(141,268,o),
(115,268,cs),
(89,268,o),
(71,254,o),
(71,217,cs)
);
}
);
userData = {
assembly = "NPUSHB[ ]	/* 21 values pushed */
4 3 1 66 22 1 25 0 20 4 1 0 6 13 10 6 8 0 3 9 4 
CALL[ ]	/* CallFunction */
SVTCA[0]	/* SetFreedomAndProjectionVectorToAxis */
MIAP[1]	/* MoveIndirectAbsPt */
MIAP[1]	/* MoveIndirectAbsPt */
SRP0[ ]	/* SetRefPoint0 */
MIRP[11100]	/* MoveIndirectRelPt */
CALL[ ]	/* CallFunction */
IUP[0]	/* InterpolateUntPts */
IUP[1]	/* InterpolateUntPts */
SVTCA[1]	/* SetFreedomAndProjectionVectorToAxis */
DELTAP1[ ]	/* DeltaExceptionP1 */
DELTAP1[ ]	/* DeltaExceptionP1 */";
};
width = 600;
}
);
metricLeft = H;
note = F;
unicode = 70;
},
{
color = 7;
glyphname = G;
lastChange = "2025-01-18 15:02:46 +0000";
layers = (
{
anchors = (
{
name = bottom;
pos = (300,0);
},
{
name = top;
pos = (300,680);
}
);
layerId = m01;
shapes = (
{
closed = 1;
nodes = (
(421,-9,o),
(485,32,o),
(529,108,cs),
(558,158,o),
(570,232,o),
(570,270,cs),
(570,301,o),
(560,313,o),
(532,313,cs),
(519,313,o),
(480,313,o),
(480,313,cs),
(480,321,o),
(512,250,o),
(479,181,cs),
(434,87,o),
(380,75,o),
(312,76,cs),
(190,77,o),
(129,174,o),
(129,341,cs),
(129,484,o),
(189,574,o),
(312,574,cs),
(390,574,o),
(430,550,o),
(459,474,cs),
(467,452,o),
(488,441,o),
(511,451,cs),
(535,461,o),
(536,480,o),
(532,499,cs),
(511,602,o),
(428,659,o),
(312,659,cs),
(126,659,o),
(39,502,o),
(39,341,cs),
(39,132,o),
(135,-9,o),
(312,-9,cs)
);
},
{
closed = 1;
nodes = (
(505,233,ls),
(532,233,o),
(546,249,o),
(546,273,cs),
(546,296,o),
(532,313,o),
(495,313,cs),
(358,313,ls),
(311,313,o),
(297,297,o),
(297,274,cs),
(297,250,o),
(311,233,o),
(358,233,cs)
);
}
);
userData = {
assembly = "NPUSHB[ ]	/* 22 values pushed */
52 0 0 39 0 11 31 0 26 4 11 10 0 8 21 3 32 4 45 3 6 4 
CALL[ ]	/* CallFunction */
CALL[ ]	/* CallFunction */
SVTCA[0]	/* SetFreedomAndProjectionVectorToAxis */
MIAP[1]	/* MoveIndirectAbsPt */
MIAP[1]	/* MoveIndirectAbsPt */
CALL[ ]	/* CallFunction */
SRP0[ ]	/* SetRefPoint0 */
MIRP[11100]	/* MoveIndirectRelPt */
SRP0[ ]	/* SetRefPoint0 */
MIRP[11100]	/* MoveIndirectRelPt */
IUP[0]	/* InterpolateUntPts */
IUP[1]	/* InterpolateUntPts */";
};
width = 600;
}
);
metricLeft = O;
note = G;
unicode = 71;
},
{
color = 7;
glyphname = H;
lastChange = "2025-01-18 15:02:46 +0000";
layers = (
{
anchors = (
{
name = bottom;
pos = (309,0);
},
{
name = center;
pos = (309,325);
},
{
name = top;
pos = (309,670);
},
{
name = topleft;
pos = (303,550);
}
);
layerId = m01;
shapes = (
{
closed = 1;
nodes = (
(472,296,ls),
(509,296,o),
(523,312,o),
(523,336,cs),
(523,360,o),
(509,376,o),
(472,376,cs),
(128,376,ls),
(91,376,o),
(77,361,o),
(77,337,cs),
(77,313,o),
(91,296,o),
(128,296,cs)
);
},
{
closed = 1;
nodes = (
(158,598,ls),
(158,636,o),
(141,650,o),
(115,650,cs),
(89,650,o),
(71,636,o),
(71,598,cs),
(71,52,ls),
(71,14,o),
(88,0,o),
(114,0,cs),
(140,0,o),
(158,14,o),
(158,52,cs)
);
},
{
closed = 1;
nodes = (
(529,598,ls),
(529,636,o),
(512,650,o),
(486,650,cs),
(460,650,o),
(442,636,o),
(442,598,cs),
(442,52,ls),
(442,14,o),
(459,0,o),
(485,0,cs),
(511,0,o),
(529,14,o),
(529,52,cs)
);
}
);
userData = {
assembly = "NPUSHB[ ]	/* 28 values pushed */
9 0 24 4 20 10 29 10 12 8 4 8 23 3 17 4 10 3 16 4 1 3 7 4 0 3 26 4 
CALL[ ]	/* CallFunction */
CALL[ ]	/* CallFunction */
CALL[ ]	/* CallFunction */
CALL[ ]	/* CallFunction */
SVTCA[0]	/* SetFreedomAndProjectionVectorToAxis */
MIAP[1]	/* MoveIndirectAbsPt */
MIAP[1]	/* MoveIndirectAbsPt */
MIAP[1]	/* MoveIndirectAbsPt */
MIAP[1]	/* MoveIndirectAbsPt */
CALL[ ]	/* CallFunction */
IUP[0]	/* InterpolateUntPts */
IUP[1]	/* InterpolateUntPts */";
};
width = 600;
}
);
note = H;
unicode = 72;
},
{
color = 7;
glyphname = I;
lastChange = "2025-01-18 15:02:46 +0000";
layers = (
{
anchors = (
{
name = bottom;
pos = (240,0);
},
{
name = ogonek;
pos = (431,10);
},
{
name = top;
pos = (240,670);
},
{
name = topleft;
pos = (20,650);
}
);
layerId = m01;
shapes = (
{
closed = 1;
nodes = (
(479,571,ls),
(516,571,o),
(530,588,o),
(530,611,cs),
(530,633,o),
(516,651,o),
(479,651,cs),
(121,651,ls),
(84,651,o),
(70,634,o),
(70,612,cs),
(70,589,o),
(84,571,o),
(121,571,cs)
);
},
{
closed = 1;
nodes = (
(344,579,ls),
(344,617,o),
(327,631,o),
(301,631,cs),
(275,631,o),
(257,617,o),
(257,579,cs),
(257,80,ls),
(257,42,o),
(274,28,o),
(300,28,cs),
(326,28,o),
(344,42,o),
(344,80,cs)
);
},
{
closed = 1;
nodes = (
(479,0,ls),
(516,0,o),
(530,17,o),
(530,40,cs),
(530,62,o),
(516,80,o),
(479,80,cs),
(121,80,ls),
(84,80,o),
(70,63,o),
(70,41,cs),
(70,18,o),
(84,0,o),
(121,0,cs)
);
}
);
userData = {
assembly = "NPUSHB[ ]	/* 24 values pushed */
20 0 26 17 0 12 7 0 11 4 0 27 26 10 27 10 11 8 12 8 6 3 18 4 
CALL[ ]	/* CallFunction */
SVTCA[0]	/* SetFreedomAndProjectionVectorToAxis */
MIAP[1]	/* MoveIndirectAbsPt */
MIAP[1]	/* MoveIndirectAbsPt */
MIAP[1]	/* MoveIndirectAbsPt */
MIAP[1]	/* MoveIndirectAbsPt */
SRP0[ ]	/* SetRefPoint0 */
MIRP[11100]	/* MoveIndirectRelPt */
SRP0[ ]	/* SetRefPoint0 */
MIRP[11100]	/* MoveIndirectRelPt */
SRP0[ ]	/* SetRefPoint0 */
MIRP[11100]	/* MoveIndirectRelPt */
SRP0[ ]	/* SetRefPoint0 */
MIRP[11100]	/* MoveIndirectRelPt */
IUP[0]	/* InterpolateUntPts */
IUP[1]	/* InterpolateUntPts */";
};
width = 600;
}
);
note = I;
unicode = 73;
},
{
color = 7;
glyphname = J;
lastChange = "2025-01-18 15:02:46 +0000";
layers = (
{
anchors = (
{
name = bottom;
pos = (252,0);
},
{
name = top;
pos = (252,670);
}
);
background = {
shapes = (
{
closed = 1;
nodes = (
(528,595,o),
(509,581,o),
(471,581,cs),
(461,581,o),
(445,584,o),
(422,584,c),
(422,216,ls),
(422,137,o),
(414,83,o),
(397,54,cs),
(372,13,o),
(325,-7,o),
(256,-6,cs),
(209,-7,o),
(166,4,o),
(126,29,c),
(90,64,o),
(72,105,o),
(72,150,cs),
(72,185,o),
(83,203,o),
(106,203,cs),
(124,203,o),
(139,181,o),
(150,138,c),
(182,73,o),
(224,70,o),
(263,75,c),
(294,75,o),
(315,89,o),
(326,117,cs),
(333,134,o),
(336,162,o),
(336,199,cs),
(336,584,l),
(203,585,ls),
(182,585,o),
(171,599,o),
(171,627,cs),
(171,648,o),
(192,670,o),
(213,670,cs),
(488,670,ls),
(512,670,o),
(528,647,o),
(528,622,cs)
);
}
);
};
layerId = m01;
shapes = (
{
closed = 1;
nodes = (
(443,599,ls),
(443,637,o),
(426,648,o),
(401,648,cs),
(376,648,o),
(356,636,o),
(356,599,cs),
(356,205,ls),
(356,122,o),
(313,76,o),
(241,76,cs),
(195,76,o),
(165,99,o),
(148,133,cs),
(135,160,o),
(119,170,o),
(93,160,cs),
(93,160,ls),
(67,150,o),
(55,131,o),
(66,105,cs),
(90,49,o),
(146,-10,o),
(241,-10,cs),
(361,-10,o),
(443,72,o),
(443,205,cs)
);
},
{
closed = 1;
nodes = (
(502,571,ls),
(539,571,o),
(553,588,o),
(553,611,cs),
(553,633,o),
(539,651,o),
(502,651,cs),
(215,651,ls),
(178,651,o),
(164,634,o),
(164,612,cs),
(164,589,o),
(178,571,o),
(215,571,cs)
);
}
);
userData = {
assembly = "NPUSHB[ ]	/* 28 values pushed */
50 28 66 28 2 35 0 3 15 0 26 9 0 4 26 10 4 8 3 8 18 3 22 4 30 3 11 4 
CALL[ ]	/* CallFunction */
CALL[ ]	/* CallFunction */
SVTCA[0]	/* SetFreedomAndProjectionVectorToAxis */
MIAP[1]	/* MoveIndirectAbsPt */
MIAP[1]	/* MoveIndirectAbsPt */
MIAP[1]	/* MoveIndirectAbsPt */
SRP0[ ]	/* SetRefPoint0 */
MIRP[11100]	/* MoveIndirectRelPt */
SRP0[ ]	/* SetRefPoint0 */
MIRP[11100]	/* MoveIndirectRelPt */
SRP0[ ]	/* SetRefPoint0 */
MIRP[11100]	/* MoveIndirectRelPt */
IUP[0]	/* InterpolateUntPts */
IUP[1]	/* InterpolateUntPts */
SVTCA[1]	/* SetFreedomAndProjectionVectorToAxis */
DELTAP1[ ]	/* DeltaExceptionP1 */";
};
width = 600;
}
);
note = J;
unicode = 74;
},
{
color = 7;
glyphname = K;
lastChange = "2025-01-18 15:02:46 +0000";
layers = (
{
anchors = (
{
name = bottom;
pos = (278,0);
},
{
name = top;
pos = (278,670);
}
);
layerId = m01;
shapes = (
{
closed = 1;
nodes = (
(105,122,l),
(125,122,l),
(476,575,l),
(497,606,o),
(491,628,o),
(471,641,cs),
(450,656,o),
(428,655,o),
(406,625,c),
(105,224,l)
);
},
{
closed = 1;
nodes = (
(225,340,l),
(446,25,l),
(468,-5,o),
(490,-6,o),
(511,9,cs),
(531,22,o),
(537,44,o),
(516,75,c),
(283,407,l)
);
},
{
closed = 1;
nodes = (
(158,598,ls),
(158,636,o),
(141,650,o),
(115,650,cs),
(89,650,o),
(71,636,o),
(71,598,cs),
(71,52,ls),
(71,14,o),
(88,0,o),
(114,0,cs),
(140,0,o),
(158,14,o),
(158,52,cs)
);
}
);
userData = {
assembly = "NPUSHB[ ]	/* 16 values pushed */
32 10 24 10 6 8 17 8 27 3 21 4 13 3 20 4 
CALL[ ]	/* CallFunction */
CALL[ ]	/* CallFunction */
SVTCA[0]	/* SetFreedomAndProjectionVectorToAxis */
MIAP[1]	/* MoveIndirectAbsPt */
MIAP[1]	/* MoveIndirectAbsPt */
MIAP[1]	/* MoveIndirectAbsPt */
MIAP[1]	/* MoveIndirectAbsPt */
IUP[0]	/* InterpolateUntPts */
IUP[1]	/* InterpolateUntPts */";
};
width = 600;
}
);
metricLeft = H;
note = K;
unicode = 75;
},
{
color = 7;
glyphname = L;
lastChange = "2025-02-01 23:49:03 +0000";
layers = (
{
anchors = (
{
name = bottom;
pos = (238,0);
},
{
name = center;
pos = (238,325);
},
{
name = top;
pos = (238,670);
},
{
name = topright;
pos = (465,650);
}
);
layerId = m01;
shapes = (
{
closed = 1;
nodes = (
(71,74,ls),
(71,26,o),
(98,-1,o),
(146,-1,cs),
(479,-1,ls),
(516,-1,o),
(530,17,o),
(530,43,cs),
(530,69,o),
(516,86,o),
(479,86,cs),
(158,86,l),
(158,438,l),
(71,438,l)
);
},
{
closed = 1;
nodes = (
(71,376,o),
(89,362,o),
(115,362,cs),
(141,362,o),
(158,376,o),
(158,413,cs),
(158,600,ls),
(158,637,o),
(140,651,o),
(114,651,cs),
(88,651,o),
(71,637,o),
(71,600,cs),
(71,413,ls)
);
}
);
userData = {
assembly = "NPUSHB[ ]	/* 10 values pushed */
23 0 15 10 2 8 24 3 6 4 
CALL[ ]	/* CallFunction */
SVTCA[0]	/* SetFreedomAndProjectionVectorToAxis */
MIAP[1]	/* MoveIndirectAbsPt */
MIAP[1]	/* MoveIndirectAbsPt */
MIRP[11100]	/* MoveIndirectRelPt */
IUP[0]	/* InterpolateUntPts */
IUP[1]	/* InterpolateUntPts */";
};
width = 600;
}
);
metricLeft = H;
note = L;
unicode = 76;
},
{
color = 7;
glyphname = M;
lastChange = "2025-01-18 15:02:46 +0000";
layers = (
{
anchors = (
{
name = bottom;
pos = (310,0);
},
{
name = top;
pos = (310,670);
}
);
layerId = m01;
shapes = (
{
closed = 1;
nodes = (
(531,606,ls),
(531,643,o),
(514,657,o),
(488,657,cs),
(463,657,o),
(448,642,o),
(436,615,cs),
(300,297,l),
(164,615,ls),
(152,642,o),
(137,657,o),
(112,657,cs),
(86,657,o),
(68,643,o),
(68,606,cs),
(68,50,ls),
(68,13,o),
(85,-1,o),
(111,-1,cs),
(137,-1,o),
(155,13,o),
(155,50,cs),
(155,432,l),
(245,231,ls),
(264,189,o),
(279,182,o),
(300,182,cs),
(321,182,o),
(336,188,o),
(355,231,cs),
(444,432,l),
(444,50,ls),
(444,13,o),
(461,-1,o),
(487,-1,cs),
(513,-1,o),
(531,13,o),
(531,50,cs)
);
}
);
userData = {
assembly = "NPUSHB[ ]	/* 20 values pushed */
27 10 16 10 22 6 3 8 10 8 20 6 19 3 14 4 0 3 23 4 
CALL[ ]	/* CallFunction */
CALL[ ]	/* CallFunction */
SVTCA[0]	/* SetFreedomAndProjectionVectorToAxis */
MIAP[1]	/* MoveIndirectAbsPt */
MIAP[1]	/* MoveIndirectAbsPt */
MIAP[1]	/* MoveIndirectAbsPt */
MIAP[1]	/* MoveIndirectAbsPt */
MIAP[1]	/* MoveIndirectAbsPt */
MIAP[1]	/* MoveIndirectAbsPt */
IUP[0]	/* InterpolateUntPts */
IUP[1]	/* InterpolateUntPts */";
};
width = 600;
}
);
note = M;
unicode = 77;
},
{
color = 7;
glyphname = N;
lastChange = "2025-01-18 15:02:46 +0000";
layers = (
{
anchors = (
{
name = bottom;
pos = (310,0);
},
{
name = top;
pos = (310,670);
}
);
guides = (
{
pos = (222,203);
}
);
layerId = m01;
shapes = (
{
closed = 1;
nodes = (
(446,178,l),
(162,629,ls),
(142,661,o),
(111,658,o),
(91,643,cs),
(71,625,o),
(72,612,o),
(92,581,cs),
(446,21,l)
);
},
{
closed = 1;
nodes = (
(158,599,ls),
(158,637,o),
(141,651,o),
(115,651,cs),
(89,651,o),
(71,637,o),
(71,599,cs),
(71,52,ls),
(71,14,o),
(88,0,o),
(114,0,cs),
(140,0,o),
(158,14,o),
(158,52,cs)
);
},
{
closed = 1;
nodes = (
(529,598,ls),
(529,636,o),
(512,650,o),
(486,650,cs),
(460,650,o),
(442,636,o),
(442,598,cs),
(442,52,ls),
(442,14,o),
(459,0,o),
(485,0,cs),
(511,0,o),
(529,14,o),
(529,52,cs)
);
}
);
userData = {
assembly = "NPUSHB[ ]	/* 16 values pushed */
25 10 19 10 3 8 10 8 21 3 16 4 1 3 6 4 
CALL[ ]	/* CallFunction */
CALL[ ]	/* CallFunction */
SVTCA[0]	/* SetFreedomAndProjectionVectorToAxis */
MIAP[1]	/* MoveIndirectAbsPt */
MIAP[1]	/* MoveIndirectAbsPt */
MIAP[1]	/* MoveIndirectAbsPt */
MIAP[1]	/* MoveIndirectAbsPt */
IUP[0]	/* InterpolateUntPts */
IUP[1]	/* InterpolateUntPts */";
};
width = 600;
}
);
metricLeft = H;
metricRight = H;
note = N;
unicode = 78;
},
{
color = 7;
glyphname = O;
lastChange = "2025-01-18 15:02:46 +0000";
layers = (
{
anchors = (
{
name = bottom;
pos = (300,0);
},
{
name = center;
pos = (300,325);
},
{
name = ogonek;
pos = (541,10);
},
{
name = top;
pos = (300,690);
},
{
name = topleft;
pos = (19,650);
},
{
name = topright;
pos = (581,650);
}
);
guides = (
{
angle = 90;
pos = (134,396);
}
);
layerId = m01;
shapes = (
{
closed = 1;
nodes = (
(476,663,o),
(561,506,o),
(561,331,cs),
(561,132,o),
(467,-9,o),
(300,-10,cs),
(133,-9,o),
(39,132,o),
(39,331,cs),
(39,506,o),
(124,663,o),
(300,664,cs)
);
},
{
closed = 1;
nodes = (
(129,170,o),
(188,76,o),
(300,76,cs),
(412,76,o),
(471,170,o),
(471,331,cs),
(471,492,o),
(413,578,o),
(300,578,cs),
(187,578,o),
(129,492,o),
(129,331,cs)
);
}
);
userData = {
assembly = "NPUSHB[ ]	/* 23 values pushed */
116 9 1 55 12 1 22 0 4 18 0 12 10 4 8 20 3 8 4 0 3 14 4 
CALL[ ]	/* CallFunction */
CALL[ ]	/* CallFunction */
SVTCA[0]	/* SetFreedomAndProjectionVectorToAxis */
MIAP[1]	/* MoveIndirectAbsPt */
MIAP[1]	/* MoveIndirectAbsPt */
MIRP[11100]	/* MoveIndirectRelPt */
SRP0[ ]	/* SetRefPoint0 */
MIRP[11100]	/* MoveIndirectRelPt */
IUP[0]	/* InterpolateUntPts */
IUP[1]	/* InterpolateUntPts */
SVTCA[1]	/* SetFreedomAndProjectionVectorToAxis */
DELTAP1[ ]	/* DeltaExceptionP1 */
DELTAP1[ ]	/* DeltaExceptionP1 */";
};
width = 600;
}
);
note = O;
unicode = 79;
},
{
color = 7;
glyphname = P;
lastChange = "2025-01-18 15:02:46 +0000";
layers = (
{
anchors = (
{
name = bottom;
pos = (277,0);
},
{
name = top;
pos = (277,670);
}
);
layerId = m01;
shapes = (
{
closed = 1;
nodes = (
(146,651,ls),
(98,651,o),
(71,624,o),
(71,576,cs),
(71,193,l),
(158,193,l),
(158,571,l),
(309,571,ls),
(442,571,o),
(465,522,o),
(465,460,cs),
(465,375,o),
(402,339,o),
(309,339,cs),
(122,339,ls),
(85,339,o),
(71,329,o),
(71,303,cs),
(71,277,o),
(85,259,o),
(122,259,cs),
(299,259,ls),
(456,259,o),
(548,331,o),
(548,462,cs),
(548,602,o),
(456,651,o),
(309,651,cs)
);
},
{
closed = 1;
nodes = (
(71,106,l),
(158,118,l),
(158,439,l),
(71,439,l)
);
},
{
closed = 1;
nodes = (
(71,50,ls),
(71,13,o),
(88,-1,o),
(114,-1,cs),
(140,-1,o),
(158,13,o),
(158,50,cs),
(158,218,ls),
(158,255,o),
(141,269,o),
(115,269,cs),
(89,269,o),
(71,255,o),
(71,218,cs)
);
}
);
width = 600;
}
);
metricLeft = H;
note = P;
unicode = 80;
},
{
color = 7;
glyphname = Q;
lastChange = "2025-01-18 15:02:46 +0000";
layers = (
{
anchors = (
{
name = bottom;
pos = (300,0);
},
{
name = top;
pos = (300,680);
}
);
background = {
shapes = (
{
closed = 1;
nodes = (
(564,-35.667,o),
(508,-88,o),
(452,-88,cs),
(429.333,-88,o),
(404.667,-77.333,o),
(378,-56,cs),
(355.333,-37.333,o),
(336.667,-16.667,o),
(322,6,c),
(312,2,o),
(302,0,o),
(292,0,cs),
(242.667,0,o),
(204.667,4.333,o),
(178,13,cs),
(130.667,29.667,o),
(93.667,71.667,o),
(67,139,cs),
(46.333,192.333,o),
(36,249.667,o),
(36,311,cs),
(36,403.667,o),
(52.667,482.667,o),
(86,548,cs),
(129.333,631.333,o),
(192.667,673,o),
(276,673,cs),
(362.667,673,o),
(429,640,o),
(475,574,cs),
(515,516,o),
(535,441.667,o),
(535,351,cs),
(535,257,o),
(509.333,171.667,o),
(458,95,cs),
(448,81.667,o),
(438.667,72,o),
(430,66,cs),
(416,56.667,o),
(406.333,49.333,o),
(401,44,c),
(413,14.667,o),
(432.667,0,o),
(460,0,cs),
(473.333,0,o),
(484.667,9.667,o),
(494,29,cs),
(502.667,49,o),
(513.667,59,o),
(527,59,cs),
(545.667,59,o),
(564,37.667,o),
(564,19,cs)
);
},
{
closed = 1;
nodes = (
(450,424,o),
(437,474.667,o),
(411,516,cs),
(379.667,563.333,o),
(335.333,587,o),
(278,587,cs),
(224.667,587,o),
(183.333,557.333,o),
(154,498,cs),
(131.333,452,o),
(120,398.667,o),
(120,338,cs),
(120,280.667,o),
(128.333,228.333,o),
(145,181,cs),
(168.333,115.667,o),
(203,83,o),
(249,83,cs),
(261,83,o),
(273.667,84,o),
(287,86,c),
(287,86,o),
(279.333,99.333,o),
(264,126,cs),
(254,142.667,o),
(249,157,o),
(249,169,cs),
(249,182.175,o),
(277.191,205,o),
(289,205,cs),
(297,205,o),
(309.667,193.333,o),
(327,170,cs),
(340.333,151.333,o),
(351.333,136.667,o),
(358,122,c),
(419.333,173.333,o),
(450,254,o),
(450,364,cs)
);
}
);
};
guides = (
{
pos = (289,205);
}
);
layerId = m01;
shapes = (
{
closed = 1;
nodes = (
(465,3,o),
(562,132,o),
(562,331,cs),
(562,502,o),
(477,659,o),
(301,660,cs),
(125,659,o),
(40,502,o),
(40,331,cs),
(40,132,o),
(134,-23,o),
(301,-10,cs)
);
},
{
closed = 1;
nodes = (
(545,38,ls),
(525,51,o),
(510,45,o),
(496,25,cs),
(484,8,o),
(471,-3,o),
(463,-3,cs),
(433,-3,o),
(366,104,o),
(338,166,cs),
(326,192,o),
(310,209,o),
(278,200,cs),
(249,192,o),
(251,164,o),
(261,143,cs),
(300,62,o),
(384,-76,o),
(456,-76,cs),
(504,-76,o),
(533,-49,o),
(557,-12,cs),
(569,8,o),
(565,25,o),
(545,38,cs)
);
},
{
closed = 1;
nodes = (
(189,76,o),
(130,170,o),
(130,331,cs),
(130,488,o),
(188,574,o),
(301,574,cs),
(414,574,o),
(472,488,o),
(472,331,cs),
(472,170,o),
(413,76,o),
(301,76,cs)
);
}
);
userData = {
assembly = "NPUSHB[ ]	/* 28 values pushed */
126 25 1 62 19 1 64 0 19 53 0 29 35 0 7 4 29 10 19 8 60 3 23 4 15 3 38 4 
CALL[ ]	/* CallFunction */
CALL[ ]	/* CallFunction */
SVTCA[0]	/* SetFreedomAndProjectionVectorToAxis */
MIAP[1]	/* MoveIndirectAbsPt */
MIAP[1]	/* MoveIndirectAbsPt */
CALL[ ]	/* CallFunction */
SRP0[ ]	/* SetRefPoint0 */
MIRP[11100]	/* MoveIndirectRelPt */
SRP0[ ]	/* SetRefPoint0 */
MIRP[11100]	/* MoveIndirectRelPt */
IUP[0]	/* InterpolateUntPts */
IUP[1]	/* InterpolateUntPts */
SVTCA[1]	/* SetFreedomAndProjectionVectorToAxis */
DELTAP1[ ]	/* DeltaExceptionP1 */
DELTAP1[ ]	/* DeltaExceptionP1 */";
};
width = 600;
}
);
note = Q;
unicode = 81;
},
{
color = 7;
glyphname = R;
lastChange = "2025-01-18 15:02:46 +0000";
layers = (
{
anchors = (
{
name = bottom;
pos = (299,0);
},
{
name = top;
pos = (299,670);
}
);
layerId = m01;
shapes = (
{
closed = 1;
nodes = (
(158,212,l),
(158,570,l),
(274,570,ls),
(407,570,o),
(430,529,o),
(430,467,cs),
(430,396,o),
(367,365,o),
(274,365,cs),
(122,365,ls),
(85,365,o),
(71,348,o),
(71,322,cs),
(71,296,o),
(85,285,o),
(122,285,cs),
(264,285,ls),
(421,285,o),
(513,350,o),
(513,463,cs),
(513,601,o),
(421,650,o),
(274,650,cs),
(146,650,ls),
(98,650,o),
(71,623,o),
(71,575,cs),
(71,212,l)
);
},
{
closed = 1;
nodes = (
(140,-1,o),
(158,13,o),
(158,50,cs),
(158,237,ls),
(158,274,o),
(141,288,o),
(115,288,cs),
(89,288,o),
(71,274,o),
(71,237,cs),
(71,50,ls),
(71,13,o),
(88,-1,o),
(114,-1,cs)
);
},
{
closed = 1;
nodes = (
(158,137,l),
(158,438,l),
(71,438,l),
(71,125,l)
);
},
{
closed = 1;
nodes = (
(553,-2,o),
(556,17,o),
(556,38,cs),
(556,59,o),
(547,80,o),
(508,80,cs),
(454,80,o),
(412,244,o),
(353,321,c),
(244,321,l),
(339,231,o),
(381,-2,o),
(499,-2,cs)
);
}
);
userData = {
assembly = "NPUSHB[ ]	/* 32 values pushed */
49 0 5 29 0 24 14 0 47 4 24 10 11 10 5 8 32 3 20 4 13 3 9 4 49 3 8 4 0 3 39 4 
CALL[ ]	/* CallFunction */
CALL[ ]	/* CallFunction */
CALL[ ]	/* CallFunction */
CALL[ ]	/* CallFunction */
SVTCA[0]	/* SetFreedomAndProjectionVectorToAxis */
MIAP[1]	/* MoveIndirectAbsPt */
MIAP[1]	/* MoveIndirectAbsPt */
MIAP[1]	/* MoveIndirectAbsPt */
CALL[ ]	/* CallFunction */
SRP0[ ]	/* SetRefPoint0 */
MIRP[11100]	/* MoveIndirectRelPt */
SRP0[ ]	/* SetRefPoint0 */
MIRP[11100]	/* MoveIndirectRelPt */
IUP[0]	/* InterpolateUntPts */
IUP[1]	/* InterpolateUntPts */";
};
width = 600;
}
);
metricLeft = H;
note = R;
unicode = 82;
},
{
color = 7;
glyphname = S;
lastChange = "2025-01-26 11:56:53 +0000";
layers = (
{
anchors = (
{
name = bottom;
pos = (274,0);
},
{
name = top;
pos = (284,690);
}
);
background = {
shapes = (
{
closed = 1;
nodes = (
(500,123.667,o),
(481,76.667,o),
(443,42,cs),
(406.333,8.667,o),
(358.333,-8,o),
(299,-8,cs),
(263,-8,o),
(223,0.667,o),
(179,18,cs),
(125.667,39.333,o),
(99,65.333,o),
(99,96,cs),
(99,120,o),
(120,141,o),
(144,141,cs),
(142,141,o),
(157.667,130.667,o),
(191,110,cs),
(224.333,89.333,o),
(257.667,79,o),
(291,79,cs),
(325,79,o),
(353.333,87.667,o),
(376,105,cs),
(401.333,124.333,o),
(414,150.667,o),
(414,184,cs),
(414,221.333,o),
(388.333,252.667,o),
(337,278,cs),
(313.667,289.333,o),
(290,300.5,o),
(266,311.5,cs),
(242,322.5,o),
(218,333.667,o),
(194,345,c),
(142.667,380.333,o),
(117,428.667,o),
(117,490,cs),
(117,539.333,o),
(132,582,o),
(162,618,cs),
(194,656,o),
(234.333,675,o),
(283,675,cs),
(321,675,o),
(355.667,669,o),
(387,657,cs),
(428.333,641,o),
(449,617,o),
(449,585,cs),
(449,570.333,o),
(443.333,558,o),
(432,548,c),
(428.667,546.667,o),
(426,545.833,o),
(424,545.5,cs),
(422,545.167,o),
(421,545,o),
(421,545,c),
(417.667,545,o),
(402.667,552.333,o),
(376,567,cs),
(349.333,581.667,o),
(323,589,o),
(297,589,cs),
(246.333,589,o),
(207,553.333,o),
(207,504,cs),
(207,454,o),
(232.333,416.667,o),
(283,392,c),
(306.333,381.333,o),
(329.833,371,o),
(353.5,361,cs),
(377.167,351,o),
(400.667,341,o),
(424,331,c),
(474.667,299,o),
(500,249.667,o),
(500,183,cs)
);
}
);
};
layerId = m01;
shapes = (
{
closed = 1;
nodes = (
(421,-8,o),
(500,67,o),
(500,183,cs),
(500,264,o),
(446,319,o),
(327,375,cs),
(242,415,o),
(207,449,o),
(207,504,cs),
(207,546,o),
(241,579,o),
(284,579,cs),
(310,579,o),
(346,573,o),
(388,552,cs),
(416,538,o),
(436,544,o),
(449,570,cs),
(459,590,o),
(451,608,o),
(427,623,cs),
(389,646,o),
(341,660,o),
(283,660,cs),
(190,660,o),
(117,591,o),
(117,502,cs),
(117,424,o),
(168,359,o),
(266,312,cs),
(326,283,o),
(414,246,o),
(414,184,cs),
(414,122,o),
(364,76,o),
(291,76,cs),
(252,76,o),
(211,92,o),
(167,126,cs),
(144,143,o),
(127,148,o),
(106,129,cs),
(86,110,o),
(83,85,o),
(106,66,cs),
(159,24,o),
(225,-8,o),
(299,-8,cs)
);
}
);
userData = {
assembly = "NPUSHB[ ]	/* 43 values pushed */
126 29 1 126 39 1 126 39 1 112 1 1 51 19 67 19 2 37 0 47 10 0 22 4 0 30 4 47 10 22 8 40 39 7 3 26 4 0 3 33 4 43 18 
RUTG[ ]	/* RoundUpToGrid */
MDAP[1]	/* MoveDirectAbsPt */
RTG[ ]	/* RoundToGrid */
RDTG[ ]	/* RoundDownToGrid */
MDAP[1]	/* MoveDirectAbsPt */
RTG[ ]	/* RoundToGrid */
CALL[ ]	/* CallFunction */
CALL[ ]	/* CallFunction */
SVTCA[0]	/* SetFreedomAndProjectionVectorToAxis */
RDTG[ ]	/* RoundDownToGrid */
MDAP[1]	/* MoveDirectAbsPt */
RTG[ ]	/* RoundToGrid */
RUTG[ ]	/* RoundUpToGrid */
MDAP[1]	/* MoveDirectAbsPt */
RTG[ ]	/* RoundToGrid */
MIAP[1]	/* MoveIndirectAbsPt */
MIAP[1]	/* MoveIndirectAbsPt */
CALL[ ]	/* CallFunction */
SRP0[ ]	/* SetRefPoint0 */
MIRP[11100]	/* MoveIndirectRelPt */
SRP0[ ]	/* SetRefPoint0 */
MIRP[11100]	/* MoveIndirectRelPt */
IUP[0]	/* InterpolateUntPts */
IUP[1]	/* InterpolateUntPts */
SVTCA[1]	/* SetFreedomAndProjectionVectorToAxis */
DELTAP1[ ]	/* DeltaExceptionP1 */
DELTAP1[ ]	/* DeltaExceptionP1 */
DELTAP1[ ]	/* DeltaExceptionP1 */
SVTCA[0]	/* SetFreedomAndProjectionVectorToAxis */
DELTAP1[ ]	/* DeltaExceptionP1 */
DELTAP1[ ]	/* DeltaExceptionP1 */";
};
width = 600;
}
);
note = S;
unicode = 83;
},
{
color = 7;
glyphname = T;
lastChange = "2025-01-18 15:02:46 +0000";
layers = (
{
anchors = (
{
name = bottom;
pos = (285,0);
},
{
name = center;
pos = (285,325);
},
{
name = top;
pos = (285,670);
}
);
layerId = m01;
shapes = (
{
closed = 1;
nodes = (
(499,569,ls),
(536,569,o),
(550,586,o),
(550,609,cs),
(550,633,o),
(536,650,o),
(499,650,cs),
(101,650,ls),
(64,650,o),
(50,633,o),
(50,610,cs),
(50,587,o),
(64,569,o),
(101,569,cs)
);
},
{
closed = 1;
nodes = (
(343,598,ls),
(343,636,o),
(326,650,o),
(300,650,cs),
(274,650,o),
(256,636,o),
(256,598,cs),
(256,52,ls),
(256,14,o),
(273,0,o),
(299,0,cs),
(325,0,o),
(343,14,o),
(343,52,cs)
);
}
);
userData = {
assembly = "NPUSHB[ ]	/* 28 values pushed */
79 9 1 79 8 1 79 6 1 79 7 1 19 0 3 9 0 4 14 10 4 8 3 8 18 3 10 4 
CALL[ ]	/* CallFunction */
SVTCA[0]	/* SetFreedomAndProjectionVectorToAxis */
MIAP[1]	/* MoveIndirectAbsPt */
MIAP[1]	/* MoveIndirectAbsPt */
MIAP[1]	/* MoveIndirectAbsPt */
SRP0[ ]	/* SetRefPoint0 */
MIRP[11100]	/* MoveIndirectRelPt */
SRP0[ ]	/* SetRefPoint0 */
MIRP[11100]	/* MoveIndirectRelPt */
IUP[0]	/* InterpolateUntPts */
IUP[1]	/* InterpolateUntPts */
SVTCA[1]	/* SetFreedomAndProjectionVectorToAxis */
DELTAP1[ ]	/* DeltaExceptionP1 */
DELTAP1[ ]	/* DeltaExceptionP1 */
DELTAP1[ ]	/* DeltaExceptionP1 */
SVTCA[0]	/* SetFreedomAndProjectionVectorToAxis */
DELTAP1[ ]	/* DeltaExceptionP1 */";
};
width = 600;
}
);
note = T;
unicode = 84;
},
{
color = 7;
glyphname = U;
lastChange = "2025-01-18 15:36:41 +0000";
layers = (
{
anchors = (
{
name = bottom;
pos = (300,0);
},
{
name = ogonek;
pos = (526,10);
},
{
name = top;
pos = (300,670);
},
{
name = topright;
pos = (562,650);
}
);
layerId = m01;
shapes = (
{
closed = 1;
nodes = (
(420,-11,o),
(532,52,o),
(532,246,cs),
(532,600,ls),
(532,637,o),
(515,651,o),
(489,651,cs),
(463,651,o),
(445,637,o),
(445,600,cs),
(445,246,ls),
(445,98,o),
(370,76,o),
(300,76,cs),
(230,76,o),
(154,98,o),
(154,246,cs),
(154,600,ls),
(154,637,o),
(137,651,o),
(111,651,cs),
(85,651,o),
(67,637,o),
(67,600,cs),
(67,246,ls),
(67,52,o),
(180,-9,o),
(300,-10,cs)
);
}
);
userData = {
assembly = "NPUSHB[ ]	/* 16 values pushed */
13 0 0 10 6 8 19 8 17 3 24 4 3 3 9 4 
CALL[ ]	/* CallFunction */
CALL[ ]	/* CallFunction */
SVTCA[0]	/* SetFreedomAndProjectionVectorToAxis */
MIAP[1]	/* MoveIndirectAbsPt */
MIAP[1]	/* MoveIndirectAbsPt */
MIAP[1]	/* MoveIndirectAbsPt */
MIRP[11100]	/* MoveIndirectRelPt */
IUP[0]	/* InterpolateUntPts */
IUP[1]	/* InterpolateUntPts */";
};
width = 600;
}
);
note = U;
unicode = 85;
},
{
color = 7;
glyphname = V;
lastChange = "2025-01-18 15:02:46 +0000";
layers = (
{
anchors = (
{
name = bottom;
pos = (300,0);
},
{
name = top;
pos = (300,670);
}
);
layerId = m01;
shapes = (
{
closed = 1;
nodes = (
(254,29,ls),
(264,3,o),
(276,-10,o),
(300,-10,cs),
(324,-10,o),
(336,3,o),
(346,29,cs),
(554,581,ls),
(568,618,o),
(556,639,o),
(531,649,cs),
(506,657,o),
(484,651,o),
(470,612,cs),
(300,146,l),
(130,612,ls),
(116,651,o),
(94,657,o),
(69,649,cs),
(44,639,o),
(32,618,o),
(46,581,cs)
);
}
);
userData = {
assembly = "NPUSHB[ ]	/* 6 values pushed */
16 10 8 8 2 8 
SVTCA[0]	/* SetFreedomAndProjectionVectorToAxis */
MIAP[1]	/* MoveIndirectAbsPt */
MIAP[1]	/* MoveIndirectAbsPt */
MIAP[1]	/* MoveIndirectAbsPt */
IUP[0]	/* InterpolateUntPts */
IUP[1]	/* InterpolateUntPts */";
};
width = 600;
}
);
note = V;
unicode = 86;
},
{
color = 7;
glyphname = W;
lastChange = "2025-01-18 15:02:46 +0000";
layers = (
{
anchors = (
{
name = bottom;
pos = (318,0);
},
{
name = top;
pos = (318,670);
}
);
guides = (
{
angle = 90;
pos = (52,441);
},
{
angle = 90;
pos = (571,408);
},
{
pos = (318,34);
}
);
layerId = m01;
shapes = (
{
closed = 1;
nodes = (
(115,30,ls),
(119,3,o),
(134,-10,o),
(154,-10,cs),
(179,-10,o),
(194,6,o),
(203,28,cs),
(300,254,l),
(397,28,ls),
(404,11,o),
(421,-10,o),
(446,-10,cs),
(466,-10,o),
(481,3,o),
(485,30,cs),
(562,596,ls),
(567,633,o),
(552,649,o),
(527,653,cs),
(502,655,o),
(483,644,o),
(478,607,cs),
(419,166,l),
(346,346,ls),
(334,376,o),
(319,386,o),
(300,386,cs),
(281,386,o),
(266,376,o),
(254,346,cs),
(181,166,l),
(122,607,ls),
(117,644,o),
(98,655,o),
(73,653,cs),
(48,649,o),
(33,633,o),
(38,596,cs)
);
}
);
userData = {
assembly = "NPUSHB[ ]	/* 8 values pushed */
19 10 23 10 2 8 13 8 
SVTCA[0]	/* SetFreedomAndProjectionVectorToAxis */
MIAP[1]	/* MoveIndirectAbsPt */
MIAP[1]	/* MoveIndirectAbsPt */
MIAP[1]	/* MoveIndirectAbsPt */
MIAP[1]	/* MoveIndirectAbsPt */
IUP[0]	/* InterpolateUntPts */
IUP[1]	/* InterpolateUntPts */";
};
width = 600;
}
);
note = W;
unicode = 87;
},
{
color = 7;
glyphname = X;
lastChange = "2025-01-18 15:02:46 +0000";
layers = (
{
anchors = (
{
name = bottom;
pos = (271,0);
},
{
name = top;
pos = (271,670);
}
);
layerId = m01;
shapes = (
{
closed = 1;
nodes = (
(167,620,ls),
(146,651,o),
(127,656,o),
(105,644,cs),
(83,632,o),
(71,610,o),
(92,579,cs),
(455,30,ls),
(476,-1,o),
(495,-6,o),
(517,6,cs),
(538,18,o),
(551,40,o),
(530,71,cs)
);
},
{
closed = 1;
nodes = (
(339,312,l),
(512,579,ls),
(532,610,o),
(521,632,o),
(499,644,cs),
(477,656,o),
(458,651,o),
(437,620,cs),
(288,396,l)
);
},
{
closed = 1;
nodes = (
(282,386,l),
(69,71,ls),
(48,40,o),
(61,18,o),
(82,6,cs),
(104,-6,o),
(122,-1,o),
(144,30,cs),
(333,302,l)
);
}
);
userData = {
assembly = "NPUSHB[ ]	/* 32 values pushed */
114 19 1 29 10 23 10 7 8 13 8 26 25 3 21 4 11 3 17 4 4 3 9 4 2 3 19 4 0 3 27 4 
CALL[ ]	/* CallFunction */
CALL[ ]	/* CallFunction */
CALL[ ]	/* CallFunction */
CALL[ ]	/* CallFunction */
CALL[ ]	/* CallFunction */
SVTCA[0]	/* SetFreedomAndProjectionVectorToAxis */
RDTG[ ]	/* RoundDownToGrid */
MDAP[1]	/* MoveDirectAbsPt */
RTG[ ]	/* RoundToGrid */
MIAP[1]	/* MoveIndirectAbsPt */
MIAP[1]	/* MoveIndirectAbsPt */
MIAP[1]	/* MoveIndirectAbsPt */
MIAP[1]	/* MoveIndirectAbsPt */
IUP[0]	/* InterpolateUntPts */
IUP[1]	/* InterpolateUntPts */
SVTCA[1]	/* SetFreedomAndProjectionVectorToAxis */
DELTAP1[ ]	/* DeltaExceptionP1 */";
};
width = 600;
}
);
note = X;
unicode = 88;
},
{
color = 7;
glyphname = Y;
lastChange = "2025-01-18 15:02:46 +0000";
layers = (
{
anchors = (
{
name = bottom;
pos = (277,0);
},
{
name = top;
pos = (277,670);
},
{
name = topleft;
pos = (20,650);
}
);
layerId = m01;
shapes = (
{
closed = 1;
nodes = (
(254,250,l),
(263,224,o),
(276,201,o),
(300,201,cs),
(324,201,o),
(337,224,o),
(346,250,c),
(534,580,ls),
(555,617,o),
(536,638,o),
(511,648,cs),
(486,656,o),
(471,649,o),
(450,611,cs),
(300,337,l),
(150,611,ls),
(129,649,o),
(114,656,o),
(89,648,cs),
(64,638,o),
(45,617,o),
(66,580,cs)
);
},
{
closed = 1;
nodes = (
(343,278,ls),
(343,316,o),
(326,330,o),
(300,330,cs),
(274,330,o),
(256,316,o),
(256,278,cs),
(256,52,ls),
(256,14,o),
(273,0,o),
(299,0,cs),
(325,0,o),
(343,14,o),
(343,52,cs)
);
}
);
userData = {
assembly = "NPUSHB[ ]	/* 20 values pushed */
125 0 1 114 10 1 15 10 8 8 2 8 5 20 3 12 4 5 10 0 
RDTG[ ]	/* RoundDownToGrid */
MDAP[1]	/* MoveDirectAbsPt */
RTG[ ]	/* RoundToGrid */
RUTG[ ]	/* RoundUpToGrid */
MDAP[1]	/* MoveDirectAbsPt */
RTG[ ]	/* RoundToGrid */
MDAP[1]	/* MoveDirectAbsPt */
CALL[ ]	/* CallFunction */
SVTCA[0]	/* SetFreedomAndProjectionVectorToAxis */
RTHG[ ]	/* RoundToHalfGrid */
MDAP[1]	/* MoveDirectAbsPt */
RTG[ ]	/* RoundToGrid */
MIAP[1]	/* MoveIndirectAbsPt */
MIAP[1]	/* MoveIndirectAbsPt */
MIAP[1]	/* MoveIndirectAbsPt */
IUP[0]	/* InterpolateUntPts */
IUP[1]	/* InterpolateUntPts */
SVTCA[1]	/* SetFreedomAndProjectionVectorToAxis */
DELTAP1[ ]	/* DeltaExceptionP1 */
DELTAP1[ ]	/* DeltaExceptionP1 */";
};
width = 600;
}
);
note = Y;
unicode = 89;
},
{
color = 7;
glyphname = Z;
lastChange = "2025-01-18 15:02:46 +0000";
layers = (
{
anchors = (
{
name = bottom;
pos = (300,0);
},
{
name = center;
pos = (300,325);
},
{
name = top;
pos = (300,670);
}
);
guides = (
{
angle = 90;
pos = (105,744);
}
);
layerId = m01;
shapes = (
{
closed = 1;
nodes = (
(453,563,ls),
(490,563,o),
(504,580,o),
(504,606,cs),
(504,632,o),
(490,650,o),
(453,650,cs),
(116,650,ls),
(79,650,o),
(65,633,o),
(65,607,cs),
(65,581,o),
(79,563,o),
(116,563,cs)
);
},
{
closed = 1;
nodes = (
(488,0,ls),
(525,0,o),
(539,17,o),
(539,43,cs),
(539,69,o),
(525,87,o),
(488,87,cs),
(106,87,ls),
(69,87,o),
(55,70,o),
(55,44,cs),
(55,18,o),
(69,0,o),
(106,0,cs)
);
},
{
closed = 1;
nodes = (
(496,579,ls),
(518,612,o),
(502,632,o),
(480,644,cs),
(457,654,o),
(441,648,o),
(420,616,cs),
(61,72,ls),
(39,39,o),
(54,19,o),
(77,7,cs),
(99,-3,o),
(116,3,o),
(137,35,cs)
);
}
);
userData = {
assembly = "NPUSHB[ ]	/* 27 values pushed */
126 2 1 126 5 1 112 17 1 16 0 10 4 0 0 10 10 8 7 3 17 5 3 18 4 17 20 
RDTG[ ]	/* RoundDownToGrid */
MDAP[1]	/* MoveDirectAbsPt */
RTG[ ]	/* RoundToGrid */
RUTG[ ]	/* RoundUpToGrid */
MDAP[1]	/* MoveDirectAbsPt */
RTG[ ]	/* RoundToGrid */
CALL[ ]	/* CallFunction */
SRP0[ ]	/* SetRefPoint0 */
MIRP[11100]	/* MoveIndirectRelPt */
SVTCA[0]	/* SetFreedomAndProjectionVectorToAxis */
MIAP[1]	/* MoveIndirectAbsPt */
MIAP[1]	/* MoveIndirectAbsPt */
MIRP[11100]	/* MoveIndirectRelPt */
SRP0[ ]	/* SetRefPoint0 */
MIRP[11100]	/* MoveIndirectRelPt */
IUP[0]	/* InterpolateUntPts */
IUP[1]	/* InterpolateUntPts */
SVTCA[1]	/* SetFreedomAndProjectionVectorToAxis */
DELTAP1[ ]	/* DeltaExceptionP1 */
DELTAP1[ ]	/* DeltaExceptionP1 */
DELTAP1[ ]	/* DeltaExceptionP1 */";
};
width = 600;
}
);
note = Z;
unicode = 90;
},
{
color = 7;
glyphname = bracketleft;
lastChange = "2025-01-21 07:28:02 +0000";
layers = (
{
layerId = m01;
shapes = (
{
closed = 1;
nodes = (
(375,-124,ls),
(398,-124,o),
(417,-106,o),
(417,-81,cs),
(417,-57,o),
(400,-38,o),
(377,-38,cs),
(252,-38,l),
(252,666,l),
(375,666,ls),
(398,666,o),
(417,684,o),
(417,709,cs),
(417,733,o),
(400,752,o),
(377,752,cs),
(201,752,ls),
(180,752,o),
(160,733,o),
(160,705,cs),
(160,-79,ls),
(160,-103,o),
(180,-124,o),
(204,-124,cs)
);
}
);
userData = {
assembly = "NPUSHB[ ]	/* 12 values pushed */
21 0 13 4 3 0 22 8 21 3 8 4 
CALL[ ]	/* CallFunction */
SVTCA[0]	/* SetFreedomAndProjectionVectorToAxis */
MIAP[1]	/* MoveIndirectAbsPt */
MIRP[11100]	/* MoveIndirectRelPt */
CALL[ ]	/* CallFunction */
IUP[0]	/* InterpolateUntPts */
IUP[1]	/* InterpolateUntPts */";
};
width = 600;
}
);
note = bracketleft;
unicode = 91;
},
{
color = 7;
glyphname = backslash;
lastChange = "2025-01-18 15:02:46 +0000";
layers = (
{
layerId = m01;
shapes = (
{
closed = 1;
nodes = (
(416,-76,ls),
(429,-103,o),
(456,-114,o),
(481,-102,cs),
(505,-91,o),
(515,-63,o),
(502,-36,cs),
(132,720,ls),
(119,746,o),
(92,757,o),
(67,746,cs),
(43,734,o),
(33,706,o),
(46,679,cs)
);
}
);
userData = {
assembly = "NPUSHB[ ]	/* 4 values pushed */
2 4 11 4 
CALL[ ]	/* CallFunction */
IUP[0]	/* InterpolateUntPts */
IUP[1]	/* InterpolateUntPts */";
};
width = 600;
}
);
note = backslash;
unicode = 92;
},
{
color = 7;
glyphname = bracketright;
lastChange = "2025-01-21 07:27:40 +0000";
layers = (
{
layerId = m01;
shapes = (
{
closed = 1;
nodes = (
(427,-124,o),
(447,-103,o),
(447,-79,cs),
(447,705,ls),
(447,733,o),
(427,752,o),
(406,752,cs),
(230,752,ls),
(207,752,o),
(190,733,o),
(190,709,cs),
(190,684,o),
(209,666,o),
(232,666,cs),
(355,666,l),
(355,-38,l),
(230,-38,ls),
(207,-38,o),
(190,-57,o),
(190,-81,cs),
(190,-106,o),
(209,-124,o),
(232,-124,cs),
(403,-124,ls)
);
}
);
userData = {
assembly = "NPUSHB[ ]	/* 12 values pushed */
13 0 21 4 3 0 22 8 8 3 21 4 
CALL[ ]	/* CallFunction */
SVTCA[0]	/* SetFreedomAndProjectionVectorToAxis */
MIAP[1]	/* MoveIndirectAbsPt */
MIRP[11100]	/* MoveIndirectRelPt */
CALL[ ]	/* CallFunction */
IUP[0]	/* InterpolateUntPts */
IUP[1]	/* InterpolateUntPts */";
};
width = 600;
}
);
note = bracketright;
unicode = 93;
},
{
color = 7;
glyphname = asciicircum;
lastChange = "2025-01-18 15:02:46 +0000";
layers = (
{
layerId = m01;
shapes = (
{
closed = 1;
nodes = (
(437,413,o),
(460,409,o),
(478,419,cs),
(498,431,o),
(510,459,o),
(494,478,cs),
(338,662,ls),
(315,689,o),
(279,688,o),
(256,661,cs),
(98,475,ls),
(82,456,o),
(95,431,o),
(115,419,cs),
(137,407,o),
(158,415,o),
(174,434,cs),
(297,579,l),
(421,432,ls)
);
}
);
userData = {
assembly = "NPUSHB[ ]	/* 2 values pushed */
7 8 
SVTCA[0]	/* SetFreedomAndProjectionVectorToAxis */
MIAP[1]	/* MoveIndirectAbsPt */
IUP[0]	/* InterpolateUntPts */
IUP[1]	/* InterpolateUntPts */";
};
width = 600;
}
);
note = asciicircum;
unicode = 94;
},
{
color = 7;
glyphname = underscore;
lastChange = "2025-01-18 15:02:46 +0000";
layers = (
{
layerId = m01;
shapes = (
{
closed = 1;
nodes = (
(37,-96,o),
(20,-118,o),
(20,-139,cs),
(20,-162,o),
(39,-182,o),
(63,-182,cs),
(524,-182,ls),
(547,-182,o),
(566,-164,o),
(566,-139,cs),
(566,-115,o),
(549,-96,o),
(526,-96,cs),
(60,-96,ls)
);
}
);
userData = {
assembly = "NPUSHB[ ]	/* 4 values pushed */
3 0 9 4 
SVTCA[0]	/* SetFreedomAndProjectionVectorToAxis */
CALL[ ]	/* CallFunction */
IUP[0]	/* InterpolateUntPts */
IUP[1]	/* InterpolateUntPts */";
};
width = 600;
}
);
note = underscore;
unicode = 95;
},
{
color = 7;
glyphname = grave;
lastChange = "2025-01-18 15:02:46 +0000";
layers = (
{
layerId = m01;
shapes = (
{
closed = 1;
nodes = (
(259,738,ls),
(243,754,o),
(218,753,o),
(201,736,cs),
(183,718,o),
(184,692,o),
(200,676,cs),
(342,534,ls),
(359,517,o),
(386,518,o),
(402,534,cs),
(417,549,o),
(421,576,o),
(404,593,cs)
);
}
);
userData = {
assembly = "NPUSHB[ ]	/* 4 values pushed */
3 0 8 4 
SVTCA[0]	/* SetFreedomAndProjectionVectorToAxis */
CALL[ ]	/* CallFunction */
IUP[0]	/* InterpolateUntPts */
IUP[1]	/* InterpolateUntPts */";
};
width = 600;
}
);
note = grave;
unicode = 96;
},
{
color = 7;
glyphname = a;
lastChange = "2025-01-18 15:02:46 +0000";
layers = (
{
anchors = (
{
name = bottom;
pos = (259,-10);
},
{
name = ogonek;
pos = (259,10);
},
{
name = top;
pos = (296,483);
}
);
background = {
shapes = (
{
closed = 1;
nodes = (
(513,-2,o),
(498,-9,o),
(468,-9,cs),
(449,-9,o),
(428,2,o),
(405,23,c),
(353,4,o),
(309,-6,o),
(272,-6,cs),
(221,-6,o),
(178,5,o),
(141,28,cs),
(98,56,o),
(77,94,o),
(77,142,cs),
(77,193,o),
(101,234,o),
(149,265,cs),
(190,292,o),
(237,305,o),
(291,305,cs),
(321,305,o),
(355,300,o),
(394,291,c),
(394,324,ls),
(394,347,o),
(381,366,o),
(356,379,cs),
(336,389,o),
(312,394,o),
(285,394,cs),
(265,394,o),
(238,388,o),
(203,376,cs),
(168,364,o),
(142,358,o),
(126,358,cs),
(107,358,o),
(98,374,o),
(98,405,cs),
(98,428,o),
(124,446,o),
(177,460,cs),
(216,470,o),
(252,475,o),
(286,475,cs),
(330,475,o),
(370,466,o),
(406,449,cs),
(448,428,o),
(472,398,o),
(478,357,c),
(477,358,o),
(477,335,o),
(477,288,c),
(479,281,o),
(480,263,o),
(480,235,cs),
(480,226,o),
(480,214,o),
(480,201,cs),
(480,188,o),
(480,173,o),
(479,156,cs),
(478,139,o),
(478,125,o),
(478,114,cs),
(478,104,o),
(478,98,o),
(478,95,cs),
(478,73,o),
(484,55,o),
(495,42,cs),
(507,30,o),
(513,20,o),
(513,11,cs)
);
},
{
closed = 1;
nodes = (
(354,220,o),
(321,224,o),
(294,224,cs),
(257,224,o),
(227,218,o),
(204,205,cs),
(174,189,o),
(159,165,o),
(159,132,cs),
(159,113,o),
(172,98,o),
(197,87,cs),
(218,80,o),
(239,76,o),
(261,76,cs),
(302,76,o),
(345,87,o),
(391,110,c),
(391,211,l),
(391,211,l)
);
}
);
};
layerId = m01;
shapes = (
{
closed = 1;
nodes = (
(312,-10,o),
(362,18,o),
(398,58,c),
(399,13,o),
(446,-11,o),
(480,-11,cs),
(506,-11,o),
(517,1,o),
(511,18,cs),
(504,34,o),
(481,53,o),
(481,102,cs),
(481,281,ls),
(481,397,o),
(424,483,o),
(296,483,cs),
(205,483,o),
(155,457,o),
(132,443,cs),
(106,427,o),
(94,406,o),
(108,381,cs),
(122,357,o),
(143,355,o),
(165,368,cs),
(188,381,o),
(226,404,o),
(294,404,cs),
(362,404,o),
(398,373,o),
(398,281,cs),
(398,277,l),
(364,294,o),
(330,307,o),
(269,307,cs),
(164,307,o),
(85,246,o),
(85,152,cs),
(85,42,o),
(171,-10,o),
(259,-10,cs)
);
},
{
closed = 1;
nodes = (
(225,68,o),
(165,84,o),
(165,152,cs),
(165,203,o),
(209,244,o),
(274,244,cs),
(331,244,o),
(367,232,o),
(401,209,c),
(401,140,l),
(363,91,o),
(312,68,o),
(271,68,cs)
);
}
);
width = 600;
}
);
note = a;
unicode = 97;
},
{
color = 7;
glyphname = b;
lastChange = "2025-01-18 15:02:46 +0000";
layers = (
{
background = {
shapes = (
{
closed = 1;
nodes = (
(128,689,o),
(141,676,o),
(140,651,cs),
(140,458,l),
(178,479,o),
(212,489,o),
(241,489,cs),
(306,489,o),
(361,465,o),
(404,418,cs),
(445,373,o),
(465,317,o),
(465,250,cs),
(465,173,o),
(444,111,o),
(403,64,cs),
(360,16,o),
(300,-8,o),
(224,-8,cs),
(199,-8,o),
(171,4,o),
(140,28,c),
(137,4,o),
(121,-8,o),
(91,-8,cs),
(66,-8,o),
(54,4,o),
(54,29,cs),
(55,652,ls),
(55,663,o),
(60,673,o),
(70,680,cs),
(79,686,o),
(89,689,o),
(101,689,cs)
);
},
{
closed = 1;
nodes = (
(384,289,o),
(369,324,o),
(340,355,cs),
(311,386,o),
(278,401,o),
(241,401,cs),
(224,401,o),
(206,396,o),
(187,385,cs),
(180,380,o),
(172,375,o),
(164,370,cs),
(156,365,o),
(148,358,o),
(140,350,c),
(140,122,l),
(175,89,o),
(208,73,o),
(237,73,cs),
(285,73,o),
(322,91,o),
(349,128,cs),
(372,161,o),
(384,203,o),
(384,252,cs)
);
}
);
};
layerId = m01;
shapes = (
{
closed = 1;
nodes = (
(196,651,o),
(178,665,o),
(155,665,cs),
(130,665,o),
(113,651,o),
(113,614,cs),
(113,50,ls),
(113,13,o),
(131,-1,o),
(155,-1,cs),
(179,-1,o),
(196,13,o),
(196,50,cs),
(196,614,ls)
);
},
{
closed = 1;
nodes = (
(441,116,o),
(385,66,o),
(327,66,cs),
(263,66,o),
(220,101,o),
(178,167,c),
(178,72,l),
(212,26,o),
(253,-10,o),
(346,-10,cs),
(428,-10,o),
(535,57,o),
(535,233,cs),
(535,387,o),
(448,483,o),
(343,483,cs),
(243,483,o),
(190,430,o),
(175,382,c),
(196,288,l),
(214,353,o),
(259,404,o),
(326,404,cs),
(386,404,o),
(441,352,o),
(441,233,cs)
);
}
);
userData = {
assembly = "NPUSHB[ ]	/* 35 values pushed */
60 38 76 38 2 50 26 66 26 2 36 0 19 28 0 11 10 7 10 0 8 19 6 15 3 24 30 3 5 4 22 3 4 4 24 
RDTG[ ]	/* RoundDownToGrid */
MDAP[1]	/* MoveDirectAbsPt */
RTG[ ]	/* RoundToGrid */
CALL[ ]	/* CallFunction */
CALL[ ]	/* CallFunction */
SRP0[ ]	/* SetRefPoint0 */
MIRP[11100]	/* MoveIndirectRelPt */
SVTCA[0]	/* SetFreedomAndProjectionVectorToAxis */
MIAP[1]	/* MoveIndirectAbsPt */
MIAP[1]	/* MoveIndirectAbsPt */
MIAP[1]	/* MoveIndirectAbsPt */
MIAP[1]	/* MoveIndirectAbsPt */
MIRP[11100]	/* MoveIndirectRelPt */
SRP0[ ]	/* SetRefPoint0 */
MIRP[11100]	/* MoveIndirectRelPt */
IUP[0]	/* InterpolateUntPts */
IUP[1]	/* InterpolateUntPts */
DELTAP1[ ]	/* DeltaExceptionP1 */
DELTAP1[ ]	/* DeltaExceptionP1 */";
};
width = 600;
}
);
note = b;
unicode = 98;
},
{
color = 7;
glyphname = c;
lastChange = "2025-01-18 15:02:46 +0000";
layers = (
{
layerId = m01;
shapes = (
{
closed = 1;
nodes = (
(480,145,o),
(457,132,o),
(437,109,cs),
(412,83,o),
(377,69,o),
(316,69,cs),
(240,69,o),
(169,131,o),
(169,237,cs),
(169,341,o),
(228,404,o),
(311,404,cs),
(370,404,o),
(403,386,o),
(417,355,cs),
(429,328,o),
(457,328,o),
(472,335,cs),
(492,344,o),
(499,370,o),
(479,409,cs),
(457,451,o),
(399,484,o),
(310,484,cs),
(181,484,o),
(84,384,o),
(84,237,cs),
(84,86,o),
(195,-11,o),
(318,-11,cs),
(412,-11,o),
(473,18,o),
(507,62,cs),
(528,89,o),
(529,115,o),
(506,129,cs)
);
}
);
userData = {
assembly = "NPUSHB[ ]	/* 13 values pushed */
16 0 27 8 0 35 10 27 6 12 3 31 4 
CALL[ ]	/* CallFunction */
SVTCA[0]	/* SetFreedomAndProjectionVectorToAxis */
MIAP[1]	/* MoveIndirectAbsPt */
MIAP[1]	/* MoveIndirectAbsPt */
MIRP[11100]	/* MoveIndirectRelPt */
SRP0[ ]	/* SetRefPoint0 */
MIRP[11100]	/* MoveIndirectRelPt */
IUP[0]	/* InterpolateUntPts */
IUP[1]	/* InterpolateUntPts */";
};
width = 600;
}
);
note = c;
unicode = 99;
},
{
color = 7;
glyphname = d;
lastChange = "2025-01-18 15:02:46 +0000";
layers = (
{
layerId = m01;
shapes = (
{
closed = 1;
nodes = (
(404,50,ls),
(404,13,o),
(421,-1,o),
(445,-1,cs),
(469,-1,o),
(487,13,o),
(487,50,cs),
(487,614,ls),
(487,651,o),
(470,665,o),
(445,665,cs),
(422,665,o),
(404,651,o),
(404,614,cs)
);
},
{
closed = 1;
nodes = (
(159,352,o),
(214,404,o),
(274,404,cs),
(341,404,o),
(386,353,o),
(404,288,c),
(425,382,l),
(410,430,o),
(357,483,o),
(257,483,cs),
(152,483,o),
(65,387,o),
(65,233,cs),
(65,57,o),
(172,-10,o),
(254,-10,cs),
(347,-10,o),
(388,26,o),
(422,72,c),
(422,167,l),
(380,101,o),
(337,66,o),
(273,66,cs),
(215,66,o),
(159,116,o),
(159,233,cs)
);
}
);
userData = {
assembly = "NPUSHB[ ]	/* 34 values pushed */
51 33 67 33 2 60 37 76 37 2 39 0 9 31 0 17 22 10 17 10 3 9 35 3 13 4 1 3 6 4 0 3 29 4 
CALL[ ]	/* CallFunction */
CALL[ ]	/* CallFunction */
CALL[ ]	/* CallFunction */
SVTCA[0]	/* SetFreedomAndProjectionVectorToAxis */
MDAP[1]	/* MoveDirectAbsPt */
RDTG[ ]	/* RoundDownToGrid */
MDAP[1]	/* MoveDirectAbsPt */
RTG[ ]	/* RoundToGrid */
MIAP[1]	/* MoveIndirectAbsPt */
MIAP[1]	/* MoveIndirectAbsPt */
SRP0[ ]	/* SetRefPoint0 */
MIRP[11100]	/* MoveIndirectRelPt */
SRP0[ ]	/* SetRefPoint0 */
MIRP[11100]	/* MoveIndirectRelPt */
IUP[0]	/* InterpolateUntPts */
IUP[1]	/* InterpolateUntPts */
DELTAP1[ ]	/* DeltaExceptionP1 */
DELTAP1[ ]	/* DeltaExceptionP1 */";
};
width = 600;
}
);
note = d;
unicode = 100;
},
{
color = 7;
glyphname = e;
lastChange = "2025-01-18 15:02:46 +0000";
layers = (
{
background = {
shapes = (
{
closed = 1;
nodes = (
(507,214,o),
(484,195,o),
(438,195,cs),
(177,195,l),
(180,118,o),
(225,79,o),
(312,79,cs),
(367,79,o),
(399,80,o),
(474,115,c),
(503,119,o),
(527,79,o),
(483,38,c),
(444,9,o),
(384,-6,o),
(304,-6,cs),
(229,-6,o),
(172,19,o),
(134,69,cs),
(100,114,o),
(83,171,o),
(83,241,cs),
(83,315,o),
(102,374,o),
(141,417,cs),
(181,462,o),
(233,485,o),
(297,485,cs),
(437,485,o),
(507,408,o),
(507,253,cs)
);
},
{
closed = 1;
nodes = (
(414,361,o),
(370,402,o),
(285,402,cs),
(236,402,o),
(180,349,o),
(177,280,c),
(418,280,l),
(418,280,l)
);
}
);
};
layerId = m01;
shapes = (
{
closed = 1;
nodes = (
(489,122,o),
(474,118,o),
(436,100,cs),
(410,88,o),
(362,79,o),
(316,79,cs),
(224,79,o),
(169,138,o),
(169,237,cs),
(169,335,o),
(223,404,o),
(301,404,cs),
(401,404,o),
(439,343,o),
(439,201,c),
(504,201,o),
(514,199,o),
(514,240,cs),
(514,397,o),
(441,484,o),
(300,484,cs),
(167,484,o),
(84,389,o),
(84,237,cs),
(84,86,o),
(176,-11,o),
(318,-11,cs),
(397,-11,o),
(444,1,o),
(481,30,cs),
(517,56,o),
(526,81,o),
(508,102,cs)
);
},
{
closed = 1;
nodes = (
(158,276,ls),
(124,276,o),
(107,264,o),
(107,240,cs),
(107,215,o),
(125,201,o),
(158,201,cs),
(447,201,ls),
(484,201,o),
(513,218,o),
(513,240,cs),
(513,264,o),
(496,276,o),
(462,276,cs)
);
}
);
userData = {
assembly = "NPUSHB[ ]	/* 21 values pushed */
27 0 2 20 0 24 4 18 0 10 10 2 6 24 3 6 4 0 3 23 4 
CALL[ ]	/* CallFunction */
CALL[ ]	/* CallFunction */
SVTCA[0]	/* SetFreedomAndProjectionVectorToAxis */
MIAP[1]	/* MoveIndirectAbsPt */
MIAP[1]	/* MoveIndirectAbsPt */
MIRP[11100]	/* MoveIndirectRelPt */
CALL[ ]	/* CallFunction */
SRP0[ ]	/* SetRefPoint0 */
MIRP[11100]	/* MoveIndirectRelPt */
IUP[0]	/* InterpolateUntPts */
IUP[1]	/* InterpolateUntPts */";
};
width = 600;
}
);
metricLeft = c;
note = e;
unicode = 101;
},
{
color = 7;
glyphname = f;
lastChange = "2025-01-18 15:02:46 +0000";
layers = (
{
background = {
shapes = (
{
closed = 1;
nodes = (
(424,598,o),
(420,583,o),
(409,572,c),
(404,568,o),
(397,567,o),
(389,569,cs),
(372,572,o),
(356,579,o),
(340,588,cs),
(321,599,o),
(302,605,o),
(284,605,cs),
(269,605,o),
(259,601,o),
(252,592,c),
(239,579,o),
(231,555,o),
(230,520,cs),
(230,515,o),
(230,508,o),
(230,500,cs),
(230,492,o),
(230,482,o),
(229,471,c),
(339,471,ls),
(351,471,o),
(361,463,o),
(368,448,cs),
(371,441,o),
(372,434,o),
(373,426,cs),
(374,415,o),
(372,405,o),
(367,395,c),
(362,388,o),
(353,384,o),
(342,384,cs),
(229,384,l),
(229,55,l),
(230,55,o),
(230,54,o),
(229,53,c),
(228,53,l),
(229,17,o),
(209,4,o),
(186,4,cs),
(157,5,o),
(143,22,o),
(143,55,cs),
(143,384,l),
(96,384,ls),
(85,384,o),
(77,388,o),
(72,395,cs),
(66,405,o),
(63,415,o),
(63,426,cs),
(63,437,o),
(66,447,o),
(72,456,cs),
(77,466,o),
(85,471,o),
(96,471,cs),
(143,471,l),
(144,492,o),
(144,509,o),
(145,520,cs),
(145,531,o),
(145,538,o),
(145,540,cs),
(145,596,o),
(155,634,o),
(188,666,cs),
(204,681,o),
(227,689,o),
(258,690,cs),
(299,691,o),
(333,686,o),
(361,674,cs),
(402,657,o),
(422,637,o),
(423,615,cs)
);
}
);
};
layerId = m01;
shapes = (
{
closed = 1;
nodes = (
(258,697,o),
(210,635,o),
(210,512,cs),
(210,51,ls),
(210,18,o),
(225,0,o),
(252,0,cs),
(279,0,o),
(293,18,o),
(293,51,cs),
(293,510,ls),
(293,583,o),
(311,614,o),
(352,614,cs),
(380,614,o),
(400,605,o),
(438,576,cs),
(457,560,o),
(481,566,o),
(494,590,cs),
(506,611,o),
(500,627,o),
(468,654,cs),
(437,680,o),
(392,697,o),
(354,697,cs)
);
},
{
closed = 1;
nodes = (
(179,473,ls),
(146,473,o),
(128,459,o),
(128,434,cs),
(128,409,o),
(146,395,o),
(179,395,cs),
(413,395,ls),
(446,395,o),
(464,409,o),
(464,434,cs),
(464,459,o),
(446,473,o),
(413,473,cs)
);
}
);
userData = {
assembly = "NPUSHB[ ]	/* 29 values pushed */
77 6 1 60 7 1 51 0 4 43 0 32 4 12 0 22 4 25 10 4 8 28 3 23 4 43 3 12 4 
CALL[ ]	/* CallFunction */
CALL[ ]	/* CallFunction */
SVTCA[0]	/* SetFreedomAndProjectionVectorToAxis */
MIAP[1]	/* MoveIndirectAbsPt */
MIAP[1]	/* MoveIndirectAbsPt */
CALL[ ]	/* CallFunction */
CALL[ ]	/* CallFunction */
SRP0[ ]	/* SetRefPoint0 */
MIRP[11100]	/* MoveIndirectRelPt */
IUP[0]	/* InterpolateUntPts */
IUP[1]	/* InterpolateUntPts */
SVTCA[1]	/* SetFreedomAndProjectionVectorToAxis */
DELTAP1[ ]	/* DeltaExceptionP1 */
DELTAP1[ ]	/* DeltaExceptionP1 */";
};
width = 600;
}
);
note = f;
unicode = 102;
},
{
color = 7;
glyphname = g;
lastChange = "2025-01-18 15:02:46 +0000";
layers = (
{
background = {
shapes = (
{
closed = 1;
nodes = (
(339,371,o),
(294,388,o),
(245,388,cs),
(160,388,o),
(118,337,o),
(118,235,cs),
(118,134,o),
(157,84,o),
(235,84,cs),
(270,84,o),
(303,94,o),
(332,114,cs),
(364,137,o),
(380,165,o),
(380,200,cs),
(380,338,l),
(380,338,l)
);
},
{
closed = 1;
nodes = (
(466,-112,o),
(368,-215,o),
(236,-216,c),
(200,-214,o),
(161,-211,o),
(118,-208,c),
(39,-193,o),
(-3,-173,o),
(14,-126,cs),
(30,-85,o),
(81,-98,o),
(118,-115,c),
(157,-122,o),
(190,-126,o),
(216,-126,cs),
(273,-126,o),
(316,-109,o),
(345,-75,cs),
(372,-42,o),
(383,-1,o),
(380,49,c),
(334,16,o),
(283,0,o),
(228,0,cs),
(190,0,o),
(154,11,o),
(119,34,cs),
(86,57,o),
(61,86,o),
(46,123,cs),
(33,157,o),
(26,196,o),
(26,240,cs),
(26,307,o),
(45,364,o),
(82,409,cs),
(121,456,o),
(173,480,o),
(238,480,cs),
(289,480,o),
(337,465,o),
(380,434,c),
(379,464,o),
(393,479,o),
(424,479,cs),
(451,479,o),
(464,465,o),
(465,436,cs),
(466,397,o),
(466,357,o),
(466,318,cs),
(466,279,o),
(466,240,o),
(466,200,cs),
(466,23,l),
(466,23,l)
);
}
);
};
layerId = m01;
shapes = (
{
closed = 1;
nodes = (
(429,31,ls),
(429,-74,o),
(372,-132,o),
(276,-133,cs),
(220,-134,o),
(166,-123,o),
(115,-98,cs),
(94,-88,o),
(77,-92,o),
(66,-118,cs),
(56,-142,o),
(66,-160,o),
(87,-171,cs),
(145,-201,o),
(214,-212,o),
(285,-214,cs),
(427,-217,o),
(510,-130,o),
(510,31,cs),
(510,422,ls),
(510,455,o),
(496,473,o),
(469,473,cs),
(443,473,o),
(429,455,o),
(429,422,cs)
);
},
{
closed = 1;
nodes = (
(184,337,o),
(229,404,o),
(299,404,cs),
(360,404,o),
(409,360,o),
(429,288,c),
(450,382,l),
(431,443,o),
(364,483,o),
(282,483,cs),
(170,483,o),
(90,378,o),
(90,233,cs),
(90,92,o),
(170,-10,o),
(279,-10,cs),
(356,-10,o),
(404,13,o),
(447,72,c),
(447,167,l),
(402,96,o),
(358,66,o),
(298,66,cs),
(229,66,o),
(184,132,o),
(184,233,cs)
);
}
);
userData = {
assembly = "NPUSHB[ ]	/* 28 values pushed */
37 0 47 8 0 21 4 0 31 10 17 6 21 6 47 33 3 50 4 6 3 25 4 11 3 0 4 42 
MDAP[1]	/* MoveDirectAbsPt */
CALL[ ]	/* CallFunction */
CALL[ ]	/* CallFunction */
CALL[ ]	/* CallFunction */
SVTCA[0]	/* SetFreedomAndProjectionVectorToAxis */
MDAP[1]	/* MoveDirectAbsPt */
MIAP[1]	/* MoveIndirectAbsPt */
MIAP[1]	/* MoveIndirectAbsPt */
MIAP[1]	/* MoveIndirectAbsPt */
MIRP[11100]	/* MoveIndirectRelPt */
SRP0[ ]	/* SetRefPoint0 */
MIRP[11100]	/* MoveIndirectRelPt */
SRP0[ ]	/* SetRefPoint0 */
MIRP[11100]	/* MoveIndirectRelPt */
IUP[0]	/* InterpolateUntPts */
IUP[1]	/* InterpolateUntPts */";
};
width = 600;
}
);
note = g;
unicode = 103;
},
{
color = 7;
glyphname = h;
lastChange = "2025-01-18 15:02:46 +0000";
layers = (
{
background = {
shapes = (
{
closed = 1;
nodes = (
(454,0,o),
(441,-5,o),
(413,-5,cs),
(394,-5,o),
(367,11,o),
(367,31,cs),
(367,341,ls),
(367,380,o),
(347,400,o),
(306,400,cs),
(262,400,o),
(228,393,o),
(203,379,cs),
(179,366,o),
(160,349,o),
(133,312,c),
(133,23,ls),
(133,-8,o),
(109,-10,o),
(86,-10,cs),
(67,-10,o),
(46,3,o),
(46,23,cs),
(46,666,ls),
(46,690,o),
(66,704,o),
(90,704,cs),
(115,704,o),
(133,694,o),
(133,671,cs),
(133,426,l),
(185,462,o),
(232,485,o),
(296,485,cs),
(397,485,o),
(454,433,o),
(454,328,cs),
(454,31,l),
(454,31,l)
);
}
);
};
layerId = m01;
shapes = (
{
closed = 1;
nodes = (
(120,50,ls),
(120,13,o),
(137,-1,o),
(161,-1,cs),
(185,-1,o),
(203,13,o),
(203,50,cs),
(203,629,ls),
(203,666,o),
(186,680,o),
(161,680,cs),
(138,680,o),
(120,666,o),
(120,629,cs)
);
},
{
closed = 1;
nodes = (
(430,50,ls),
(430,13,o),
(447,-1,o),
(471,-1,cs),
(495,-1,o),
(513,13,o),
(513,50,cs),
(513,321,ls),
(513,411,o),
(470,483,o),
(358,483,cs),
(272,483,o),
(202,443,o),
(176,367,c),
(203,289,l),
(233,359,o),
(285,400,o),
(346,400,cs),
(398,400,o),
(430,383,o),
(430,321,cs)
);
}
);
userData = {
assembly = "NPUSHB[ ]	/* 33 values pushed */
112 10 1 64 6 1 63 6 1 48 2 1 26 0 3 17 10 32 10 3 6 20 3 14 4 7 3 13 4 0 3 28 4 
CALL[ ]	/* CallFunction */
CALL[ ]	/* CallFunction */
CALL[ ]	/* CallFunction */
SVTCA[0]	/* SetFreedomAndProjectionVectorToAxis */
MIAP[1]	/* MoveIndirectAbsPt */
MIAP[1]	/* MoveIndirectAbsPt */
MIAP[1]	/* MoveIndirectAbsPt */
SRP0[ ]	/* SetRefPoint0 */
MIRP[11100]	/* MoveIndirectRelPt */
IUP[0]	/* InterpolateUntPts */
IUP[1]	/* InterpolateUntPts */
SVTCA[1]	/* SetFreedomAndProjectionVectorToAxis */
DELTAP1[ ]	/* DeltaExceptionP1 */
SVTCA[0]	/* SetFreedomAndProjectionVectorToAxis */
DELTAP1[ ]	/* DeltaExceptionP1 */
DELTAP1[ ]	/* DeltaExceptionP1 */
DELTAP1[ ]	/* DeltaExceptionP1 */";
};
width = 600;
}
);
note = h;
unicode = 104;
},
{
color = 7;
glyphname = i;
lastChange = "2025-01-18 15:02:46 +0000";
layers = (
{
layerId = m01;
shapes = (
{
closed = 1;
nodes = (
(284,51,ls),
(284,14,o),
(301,0,o),
(324,0,cs),
(347,0,o),
(365,14,o),
(365,51,cs),
(365,422,ls),
(365,459,o),
(348,473,o),
(324,473,cs),
(302,473,o),
(284,459,o),
(284,422,cs)
);
},
{
closed = 1;
nodes = (
(207,473,ls),
(170,473,o),
(156,456,o),
(156,434,cs),
(156,412,o),
(170,395,o),
(207,395,cs),
(246,395,o),
(285,395,o),
(324,395,c),
(324,473,l)
);
},
{
closed = 1;
nodes = (
(353,543,o),
(380,570,o),
(380,605,cs),
(380,638,o),
(353,666,o),
(319,666,cs),
(284,666,o),
(257,638,o),
(257,605,cs),
(257,570,o),
(284,543,o),
(319,543,cs)
);
}
);
userData = {
assembly = "NPUSHB[ ]	/* 19 values pushed */
22 0 15 3 1 9 4 25 10 15 6 11 3 23 4 0 4 6 4 
CALL[ ]	/* CallFunction */
CALL[ ]	/* CallFunction */
SVTCA[0]	/* SetFreedomAndProjectionVectorToAxis */
MIAP[1]	/* MoveIndirectAbsPt */
MIAP[1]	/* MoveIndirectAbsPt */
CALL[ ]	/* CallFunction */
SRP0[ ]	/* SetRefPoint0 */
MIRP[11100]	/* MoveIndirectRelPt */
IUP[0]	/* InterpolateUntPts */
IUP[1]	/* InterpolateUntPts */";
};
width = 600;
}
);
note = i;
unicode = 105;
},
{
color = 7;
glyphname = j;
lastChange = "2025-02-01 15:51:03 +0000";
layers = (
{
background = {
shapes = (
{
closed = 1;
nodes = (
(274,579,o),
(246,556,o),
(210,556,cs),
(178,556,o),
(152,583,o),
(152,615,cs),
(152,646,o),
(179,676,o),
(210,676,cs),
(246,676,o),
(274,651,o),
(274,615,cs)
);
},
{
closed = 1;
nodes = (
(281,-126,o),
(207,-190,o),
(60,-190,cs),
(1,-190,o),
(-28,-174,o),
(-28,-141,cs),
(-28,-121,o),
(-20,-109,o),
(-3,-104,cs),
(0,-103,o),
(6,-103,o),
(14,-102,cs),
(22,-102,o),
(33,-102,o),
(46,-102,cs),
(144,-102,o),
(193,-69,o),
(193,-2,cs),
(193,389,l),
(85,389,ls),
(57,389,o),
(43,403,o),
(42,431,cs),
(41,461,o),
(55,476,o),
(85,476,cs),
(281,476,l),
(281,3,l),
(281,3,l)
);
}
);
};
layerId = m01;
shapes = (
{
closed = 1;
nodes = (
(219,473,ls),
(182,473,o),
(168,456,o),
(168,434,cs),
(168,412,o),
(182,395,o),
(219,395,cs),
(311,395,l),
(311,31,l),
(392,31,l),
(392,426,ls),
(392,455,o),
(375,472,o),
(346,472,cs)
);
},
{
closed = 1;
nodes = (
(363,543,o),
(390,570,o),
(390,605,cs),
(390,638,o),
(363,666,o),
(329,666,cs),
(294,666,o),
(267,638,o),
(267,605,cs),
(267,570,o),
(294,543,o),
(329,543,cs)
);
},
{
closed = 1;
nodes = (
(78,-159,o),
(66,-145,o),
(73,-119,cs),
(81,-94,o),
(99,-85,o),
(114,-91,cs),
(140,-101,o),
(160,-107,o),
(209,-106,cs),
(265,-105,o),
(311,-67,o),
(311,31,c),
(392,31,l),
(392,-123,o),
(320,-188,o),
(218,-188,cs),
(163,-188,o),
(131,-180,o),
(101,-168,cs)
);
}
);
userData = {
assembly = "NPUSHB[ ]	/* 21 values pushed */
29 0 22 4 18 0 14 3 1 9 4 14 6 13 3 19 4 0 4 6 4 
CALL[ ]	/* CallFunction */
CALL[ ]	/* CallFunction */
SVTCA[0]	/* SetFreedomAndProjectionVectorToAxis */
MIAP[1]	/* MoveIndirectAbsPt */
CALL[ ]	/* CallFunction */
SRP0[ ]	/* SetRefPoint0 */
MIRP[11100]	/* MoveIndirectRelPt */
CALL[ ]	/* CallFunction */
IUP[0]	/* InterpolateUntPts */
IUP[1]	/* InterpolateUntPts */";
};
width = 600;
}
);
note = j;
unicode = 106;
},
{
color = 7;
glyphname = k;
lastChange = "2025-01-18 15:02:46 +0000";
layers = (
{
background = {
shapes = (
{
closed = 1;
nodes = (
(492,9,o),
(474,-9,o),
(445,-9,cs),
(434,-9,o),
(424,-4,o),
(417,5,cs),
(240,234,l),
(209,190,l),
(209,37,ls),
(210,4,o),
(190,-10,o),
(167,-10,cs),
(138,-10,o),
(123,3,o),
(123,29,cs),
(123,653,ls),
(123,676,o),
(146,688,o),
(167,688,cs),
(183,688,o),
(211,665,o),
(209,643,c),
(209,324,l),
(371,471,l),
(396,488,o),
(418,497,o),
(436,497,cs),
(457,497,o),
(473,474,o),
(473,453,cs),
(473,442,o),
(422,389,o),
(319,295,c),
(480,89,ls),
(493,72,o),
(499,57,o),
(499,44,c)
);
}
);
};
layerId = m01;
shapes = (
{
closed = 1;
nodes = (
(120,50,ls),
(120,13,o),
(137,-1,o),
(161,-1,cs),
(185,-1,o),
(203,13,o),
(203,50,cs),
(203,629,ls),
(203,666,o),
(186,680,o),
(161,680,cs),
(138,680,o),
(120,666,o),
(120,629,cs)
);
},
{
closed = 1;
nodes = (
(159,146,l),
(449,408,ls),
(475,431,o),
(469,456,o),
(451,471,cs),
(434,487,o),
(415,484,o),
(389,462,cs),
(166,273,l)
);
},
{
closed = 1;
nodes = (
(219,263,l),
(421,22,ls),
(445,-6,o),
(467,-6,o),
(485,10,cs),
(504,25,o),
(509,48,o),
(485,76,cs),
(274,327,l)
);
}
);
userData = {
assembly = "NPUSHB[ ]	/* 16 values pushed */
31 10 23 10 7 6 16 8 26 3 21 4 12 3 20 4 
CALL[ ]	/* CallFunction */
CALL[ ]	/* CallFunction */
SVTCA[0]	/* SetFreedomAndProjectionVectorToAxis */
MIAP[1]	/* MoveIndirectAbsPt */
MIAP[1]	/* MoveIndirectAbsPt */
MIAP[1]	/* MoveIndirectAbsPt */
MIAP[1]	/* MoveIndirectAbsPt */
IUP[0]	/* InterpolateUntPts */
IUP[1]	/* InterpolateUntPts */";
};
width = 600;
}
);
metricLeft = h;
note = k;
unicode = 107;
},
{
color = 7;
glyphname = l;
lastChange = "2025-01-18 15:02:46 +0000";
layers = (
{
layerId = m01;
shapes = (
{
closed = 1;
nodes = (
(419,0,o),
(435,17,o),
(435,42,cs),
(435,67,o),
(419,83,o),
(384,83,cs),
(327,83,o),
(293,102,o),
(293,187,cs),
(293,629,ls),
(293,666,o),
(276,680,o),
(252,680,cs),
(228,680,o),
(210,666,o),
(210,629,cs),
(210,185,ls),
(210,49,o),
(288,0,o),
(384,0,cs)
);
}
);
userData = {
assembly = "NPUSHB[ ]	/* 10 values pushed */
12 0 6 10 18 8 15 3 2 4 
CALL[ ]	/* CallFunction */
SVTCA[0]	/* SetFreedomAndProjectionVectorToAxis */
MIAP[1]	/* MoveIndirectAbsPt */
MIAP[1]	/* MoveIndirectAbsPt */
MIRP[11100]	/* MoveIndirectRelPt */
IUP[0]	/* InterpolateUntPts */
IUP[1]	/* InterpolateUntPts */";
};
width = 600;
}
);
note = l;
unicode = 108;
},
{
color = 7;
glyphname = m;
lastChange = "2025-01-18 15:02:46 +0000";
layers = (
{
background = {
shapes = (
{
closed = 1;
nodes = (
(562,0,o),
(547,-7,o),
(518,-7,cs),
(489,-7,o),
(475,0,o),
(475,13,cs),
(476,277,ls),
(476,312,o),
(474,335,o),
(469,347,cs),
(460,372,o),
(441,383,o),
(410,381,cs),
(371,378,o),
(351,352,o),
(351,301,cs),
(351,13,ls),
(351,0,o),
(335,-6,o),
(303,-6,cs),
(277,-6,o),
(264,1,o),
(264,14,cs),
(264,336,ls),
(264,355,o),
(257,369,o),
(242,380,cs),
(229,391,o),
(214,396,o),
(196,396,cs),
(175,396,o),
(159,385,o),
(146,363,cs),
(134,344,o),
(128,324,o),
(128,303,cs),
(129,15,ls),
(129,0,o),
(115,-8,o),
(87,-8,cs),
(59,-8,o),
(44,0,o),
(43,15,cs),
(42,56,o),
(42,86,o),
(42,105,cs),
(42,125,o),
(42,139,o),
(42,147,cs),
(41,155,o),
(41,159,o),
(41,160,cs),
(41,161,o),
(41,164,o),
(42,168,cs),
(42,171,o),
(42,178,o),
(42,189,cs),
(42,200,o),
(42,220,o),
(42,247,cs),
(42,421,ls),
(42,472,o),
(60,491,o),
(95,491,cs),
(108,491,o),
(118,485,o),
(123,473,cs),
(125,467,o),
(127,461,o),
(129,455,cs),
(131,449,o),
(133,443,o),
(135,438,c),
(137,439,l),
(155,468,o),
(178,482,o),
(207,482,cs),
(233,482,o),
(253,478,o),
(266,469,cs),
(270,466,o),
(284,454,o),
(308,431,c),
(317,446,o),
(333,459,o),
(357,468,cs),
(379,475,o),
(400,479,o),
(420,479,cs),
(463,479,o),
(496,466,o),
(520,441,c),
(535,414,o),
(545,394,o),
(552,382,cs),
(559,370,o),
(562,339,o),
(562,290,cs),
(562,13,l),
(562,13,l)
);
}
);
};
layerId = m01;
shapes = (
{
closed = 1;
nodes = (
(40,51,ls),
(40,18,o),
(54,0,o),
(81,0,cs),
(108,0,o),
(122,18,o),
(123,51,cs),
(133,423,l),
(123,459,o),
(109,474,o),
(81,474,cs),
(55,474,o),
(40,456,o),
(40,423,cs)
);
},
{
closed = 1;
nodes = (
(255,51,ls),
(254,18,o),
(268,0,o),
(295,0,cs),
(322,0,o),
(338,18,o),
(338,51,cs),
(341,301,l),
(342,415,o),
(293,483,o),
(225,483,cs),
(154,483,o),
(103,431,o),
(86,305,c),
(123,195,l),
(123,330,o),
(152,394,o),
(204,394,cs),
(238,394,o),
(259,374,o),
(258,301,cs)
);
},
{
closed = 1;
nodes = (
(472,51,ls),
(471,18,o),
(485,0,o),
(512,0,cs),
(539,0,o),
(555,18,o),
(555,51,cs),
(558,301,l),
(559,415,o),
(510,483,o),
(432,483,cs),
(351,483,o),
(292,437,o),
(275,311,c),
(340,195,l),
(340,330,o),
(369,394,o),
(421,394,cs),
(455,394,o),
(476,374,o),
(475,301,cs)
);
}
);
userData = {
assembly = "NPUSHB[ ]	/* 30 values pushed */
56 0 5 44 0 13 63 10 51 10 37 10 21 6 5 6 13 6 61 3 65 53 3 49 4 39 3 35 65 35 
MDAP[1]	/* MoveDirectAbsPt */
MDAP[1]	/* MoveDirectAbsPt */
SRP0[ ]	/* SetRefPoint0 */
MIRP[11100]	/* MoveIndirectRelPt */
CALL[ ]	/* CallFunction */
SRP0[ ]	/* SetRefPoint0 */
MIRP[11100]	/* MoveIndirectRelPt */
SVTCA[0]	/* SetFreedomAndProjectionVectorToAxis */
MIAP[1]	/* MoveIndirectAbsPt */
MIAP[1]	/* MoveIndirectAbsPt */
MIAP[1]	/* MoveIndirectAbsPt */
MIAP[1]	/* MoveIndirectAbsPt */
MIAP[1]	/* MoveIndirectAbsPt */
MIAP[1]	/* MoveIndirectAbsPt */
SRP0[ ]	/* SetRefPoint0 */
MIRP[11100]	/* MoveIndirectRelPt */
SRP0[ ]	/* SetRefPoint0 */
MIRP[11100]	/* MoveIndirectRelPt */
IUP[0]	/* InterpolateUntPts */
IUP[1]	/* InterpolateUntPts */";
};
width = 600;
}
);
note = m;
unicode = 109;
},
{
color = 7;
glyphname = n;
lastChange = "2025-01-18 17:24:27 +0000";
layers = (
{
layerId = m01;
shapes = (
{
closed = 1;
nodes = (
(120,51,ls),
(120,18,o),
(134,0,o),
(161,0,cs),
(188,0,o),
(203,18,o),
(203,51,cs),
(203,411,l),
(193,453,o),
(179,474,o),
(156,474,cs),
(135,474,o),
(120,456,o),
(120,423,cs)
);
},
{
closed = 1;
nodes = (
(430,50,ls),
(430,13,o),
(447,-1,o),
(471,-1,cs),
(495,-1,o),
(513,13,o),
(513,50,cs),
(513,321,ls),
(513,411,o),
(470,483,o),
(358,483,cs),
(272,483,o),
(202,443,o),
(176,367,c),
(203,289,l),
(233,359,o),
(285,400,o),
(346,400,cs),
(398,400,o),
(430,383,o),
(430,321,cs)
);
}
);
userData = {
assembly = "NPUSHB[ ]	/* 23 values pushed */
53 11 1 32 0 7 25 10 0 10 17 6 7 6 11 27 3 22 4 2 3 37 4 
CALL[ ]	/* CallFunction */
CALL[ ]	/* CallFunction */
SVTCA[0]	/* SetFreedomAndProjectionVectorToAxis */
MDAP[1]	/* MoveDirectAbsPt */
MIAP[1]	/* MoveIndirectAbsPt */
MIAP[1]	/* MoveIndirectAbsPt */
MIAP[1]	/* MoveIndirectAbsPt */
MIAP[1]	/* MoveIndirectAbsPt */
SRP0[ ]	/* SetRefPoint0 */
MIRP[11100]	/* MoveIndirectRelPt */
IUP[0]	/* InterpolateUntPts */
IUP[1]	/* InterpolateUntPts */
DELTAP1[ ]	/* DeltaExceptionP1 */";
};
width = 600;
}
);
metricLeft = h;
metricRight = h;
note = n;
unicode = 110;
},
{
color = 7;
glyphname = o;
lastChange = "2025-01-18 15:02:46 +0000";
layers = (
{
layerId = m01;
shapes = (
{
closed = 1;
nodes = (
(438,-11,o),
(529,82,o),
(529,234,cs),
(529,389,o),
(431,484,o),
(301,484,cs),
(168,484,o),
(71,384,o),
(71,237,cs),
(71,86,o),
(172,-11,o),
(301,-11,cs)
);
},
{
closed = 1;
nodes = (
(217,69,o),
(156,131,o),
(156,237,cs),
(156,341,o),
(215,404,o),
(301,404,cs),
(384,404,o),
(444,344,o),
(444,235,cs),
(444,128,o),
(389,69,o),
(301,69,cs)
);
}
);
userData = {
assembly = "NPUSHB[ ]	/* 40 values pushed */
115 22 1 65 0 1 65 14 1 65 2 1 68 26 1 52 22 68 22 2 115 13 1 28 0 4 20 0 12 10 4 6 8 3 24 4 0 3 16 4 
CALL[ ]	/* CallFunction */
CALL[ ]	/* CallFunction */
SVTCA[0]	/* SetFreedomAndProjectionVectorToAxis */
MIAP[1]	/* MoveIndirectAbsPt */
MIAP[1]	/* MoveIndirectAbsPt */
MIRP[11100]	/* MoveIndirectRelPt */
SRP0[ ]	/* SetRefPoint0 */
MIRP[11100]	/* MoveIndirectRelPt */
IUP[0]	/* InterpolateUntPts */
IUP[1]	/* InterpolateUntPts */
SVTCA[1]	/* SetFreedomAndProjectionVectorToAxis */
DELTAP1[ ]	/* DeltaExceptionP1 */
DELTAP1[ ]	/* DeltaExceptionP1 */
DELTAP1[ ]	/* DeltaExceptionP1 */
DELTAP1[ ]	/* DeltaExceptionP1 */
DELTAP1[ ]	/* DeltaExceptionP1 */
DELTAP1[ ]	/* DeltaExceptionP1 */
SVTCA[0]	/* SetFreedomAndProjectionVectorToAxis */
DELTAP1[ ]	/* DeltaExceptionP1 */";
};
width = 600;
}
);
note = o;
unicode = 111;
},
{
color = 7;
glyphname = p;
lastChange = "2025-01-18 15:02:46 +0000";
layers = (
{
layerId = m01;
shapes = (
{
closed = 1;
nodes = (
(186,461,o),
(168,475,o),
(145,475,cs),
(120,475,o),
(103,461,o),
(103,424,cs),
(103,-190,ls),
(103,-227,o),
(121,-241,o),
(145,-241,cs),
(169,-241,o),
(186,-227,o),
(186,-190,cs),
(186,424,ls)
);
},
{
closed = 1;
nodes = (
(433,116,o),
(377,66,o),
(317,66,cs),
(253,66,o),
(210,101,o),
(168,167,c),
(168,72,l),
(202,26,o),
(243,-10,o),
(336,-10,cs),
(418,-10,o),
(525,57,o),
(525,233,cs),
(525,387,o),
(438,483,o),
(333,483,cs),
(233,483,o),
(180,430,o),
(165,382,c),
(186,288,l),
(204,353,o),
(249,404,o),
(316,404,cs),
(378,404,o),
(433,352,o),
(433,233,cs)
);
}
);
userData = {
assembly = "NPUSHB[ ]	/* 27 values pushed */
39 0 15 29 0 26 10 12 15 10 26 6 3 6 42 3 5 20 3 35 4 12 3 5 1 3 5 
MDAP[1]	/* MoveDirectAbsPt */
MIRP[11100]	/* MoveIndirectRelPt */
SRP0[ ]	/* SetRefPoint0 */
MIRP[11100]	/* MoveIndirectRelPt */
CALL[ ]	/* CallFunction */
SRP0[ ]	/* SetRefPoint0 */
MIRP[11100]	/* MoveIndirectRelPt */
SVTCA[0]	/* SetFreedomAndProjectionVectorToAxis */
MIAP[1]	/* MoveIndirectAbsPt */
MIAP[1]	/* MoveIndirectAbsPt */
MIAP[1]	/* MoveIndirectAbsPt */
MIAP[1]	/* MoveIndirectAbsPt */
SRP0[ ]	/* SetRefPoint0 */
MIRP[11100]	/* MoveIndirectRelPt */
SRP0[ ]	/* SetRefPoint0 */
MIRP[11100]	/* MoveIndirectRelPt */
IUP[0]	/* InterpolateUntPts */
IUP[1]	/* InterpolateUntPts */";
};
width = 600;
}
);
note = p;
unicode = 112;
},
{
color = 7;
glyphname = q;
lastChange = "2025-01-18 15:02:46 +0000";
layers = (
{
layerId = m01;
shapes = (
{
closed = 1;
nodes = (
(414,-190,ls),
(414,-227,o),
(431,-241,o),
(455,-241,cs),
(479,-241,o),
(497,-227,o),
(497,-190,cs),
(497,424,ls),
(497,461,o),
(480,475,o),
(455,475,cs),
(432,475,o),
(414,461,o),
(414,424,cs)
);
},
{
closed = 1;
nodes = (
(167,352,o),
(222,404,o),
(284,404,cs),
(351,404,o),
(396,353,o),
(414,288,c),
(435,382,l),
(420,430,o),
(367,483,o),
(267,483,cs),
(162,483,o),
(75,387,o),
(75,233,cs),
(75,57,o),
(182,-10,o),
(264,-10,cs),
(357,-10,o),
(398,26,o),
(432,72,c),
(432,167,l),
(390,101,o),
(347,66,o),
(283,66,cs),
(223,66,o),
(167,116,o),
(167,233,cs)
);
}
);
userData = {
assembly = "NPUSHB[ ]	/* 25 values pushed */
39 0 15 29 0 26 15 10 26 6 3 6 10 20 3 35 4 6 3 12 4 41 3 5 4 
CALL[ ]	/* CallFunction */
CALL[ ]	/* CallFunction */
CALL[ ]	/* CallFunction */
SVTCA[0]	/* SetFreedomAndProjectionVectorToAxis */
MDAP[1]	/* MoveDirectAbsPt */
MIAP[1]	/* MoveIndirectAbsPt */
MIAP[1]	/* MoveIndirectAbsPt */
MIAP[1]	/* MoveIndirectAbsPt */
SRP0[ ]	/* SetRefPoint0 */
MIRP[11100]	/* MoveIndirectRelPt */
SRP0[ ]	/* SetRefPoint0 */
MIRP[11100]	/* MoveIndirectRelPt */
IUP[0]	/* InterpolateUntPts */
IUP[1]	/* InterpolateUntPts */";
};
width = 600;
}
);
note = q;
unicode = 113;
},
{
color = 7;
glyphname = r;
lastChange = "2025-01-18 17:24:42 +0000";
layers = (
{
background = {
shapes = (
{
closed = 1;
nodes = (
(507,380,o),
(500,367,o),
(486,364,c),
(440,381,o),
(406,389,o),
(383,389,cs),
(315,389,o),
(255,359,o),
(204,300,c),
(204,22,ls),
(204,1,o),
(190,-9,o),
(162,-9,cs),
(133,-9,o),
(118,1,o),
(118,22,cs),
(118,432,ls),
(117,473,o),
(132,494,o),
(162,494,cs),
(181,494,o),
(193,486,o),
(200,469,cs),
(203,460,o),
(204,443,o),
(205,419,c),
(258,459,o),
(315,479,o),
(378,479,cs),
(409,479,o),
(436,474,o),
(459,464,cs),
(491,451,o),
(507,431,o),
(507,405,cs)
);
}
);
};
layerId = m01;
shapes = (
{
closed = 1;
nodes = (
(500,395,ls),
(513,419,o),
(507,441,o),
(481,454,cs),
(442,473,o),
(407,483,o),
(358,483,cs),
(282,483,o),
(202,433,o),
(176,367,c),
(203,309,l),
(243,369,o),
(305,393,o),
(356,393,cs),
(387,393,o),
(410,387,o),
(439,376,cs),
(466,366,o),
(487,371,o),
(500,395,cs)
);
},
{
closed = 1;
nodes = (
(120,51,ls),
(120,18,o),
(134,0,o),
(161,0,cs),
(188,0,o),
(203,18,o),
(203,51,cs),
(203,411,l),
(193,453,o),
(179,474,o),
(156,474,cs),
(135,474,o),
(120,456,o),
(120,423,cs)
);
}
);
userData = {
assembly = "NPUSHB[ ]	/* 13 values pushed */
21 0 4 16 10 4 6 11 6 18 3 14 4 
CALL[ ]	/* CallFunction */
SVTCA[0]	/* SetFreedomAndProjectionVectorToAxis */
MIAP[1]	/* MoveIndirectAbsPt */
MIAP[1]	/* MoveIndirectAbsPt */
MIAP[1]	/* MoveIndirectAbsPt */
SRP0[ ]	/* SetRefPoint0 */
MIRP[11100]	/* MoveIndirectRelPt */
IUP[0]	/* InterpolateUntPts */
IUP[1]	/* InterpolateUntPts */";
};
width = 600;
}
);
metricLeft = h;
note = r;
unicode = 114;
},
{
color = 7;
glyphname = s;
lastChange = "2025-01-18 15:02:46 +0000";
layers = (
{
layerId = m01;
shapes = (
{
closed = 1;
nodes = (
(500,43,o),
(401,-10,o),
(310,-10,cs),
(200,-10,o),
(140,28,o),
(122,46,cs),
(100,66,o),
(91,89,o),
(110,110,cs),
(127,128,o),
(147,127,o),
(165,112,cs),
(200,82,o),
(246,71,o),
(310,71,cs),
(357,71,o),
(420,94,o),
(420,136,cs),
(420,162,o),
(377,184,o),
(307,201,cs),
(190,229,o),
(130,271,o),
(130,354,cs),
(130,430,o),
(202,482,o),
(306,482,cs),
(380,482,o),
(422,462,o),
(443,449,cs),
(467,434,o),
(482,414,o),
(467,388,cs),
(455,367,o),
(436,363,o),
(415,375,cs),
(394,387,o),
(356,407,o),
(306,407,cs),
(261,407,o),
(209,394,o),
(209,355,cs),
(209,317,o),
(258,302,o),
(351,272,cs),
(457,239,o),
(500,197,o),
(500,133,cs)
);
}
);
userData = {
assembly = "NPUSHB[ ]	/* 29 values pushed */
21 27 1 42 0 52 13 0 25 7 0 33 4 4 0 36 4 52 10 25 6 9 3 29 4 38 3 0 4 
CALL[ ]	/* CallFunction */
CALL[ ]	/* CallFunction */
SVTCA[0]	/* SetFreedomAndProjectionVectorToAxis */
MIAP[1]	/* MoveIndirectAbsPt */
MIAP[1]	/* MoveIndirectAbsPt */
CALL[ ]	/* CallFunction */
CALL[ ]	/* CallFunction */
SRP0[ ]	/* SetRefPoint0 */
MIRP[11100]	/* MoveIndirectRelPt */
SRP0[ ]	/* SetRefPoint0 */
MIRP[11100]	/* MoveIndirectRelPt */
IUP[0]	/* InterpolateUntPts */
IUP[1]	/* InterpolateUntPts */
DELTAP1[ ]	/* DeltaExceptionP1 */";
};
width = 600;
}
);
note = s;
unicode = 115;
},
{
color = 7;
glyphname = t;
lastChange = "2025-01-18 15:02:46 +0000";
layers = (
{
background = {
shapes = (
{
closed = 1;
nodes = (
(120,669,o),
(142,681,o),
(161,681,cs),
(163,681,ls),
(192,680,o),
(207,666,o),
(207,641,cs),
(207,470,l),
(327,470,ls),
(348,469,o),
(358,457,o),
(358,435,c),
(356,418,o),
(352,405,o),
(347,396,cs),
(341,388,o),
(333,384,o),
(324,384,cs),
(208,384,l),
(208,170,ls),
(208,133,o),
(212,107,o),
(219,94,cs),
(229,76,o),
(249,67,o),
(280,67,cs),
(304,68,o),
(320,70,o),
(327,75,c),
(356,99,l),
(361,102,o),
(366,103,o),
(371,103,cs),
(376,103,o),
(380,102,o),
(383,100,cs),
(394,93,o),
(404,76,o),
(404,56,c),
(403,48,ls),
(401,37,o),
(395,29,o),
(385,22,cs),
(345,-5,o),
(319,-11,o),
(278,-11,cs),
(217,-10,o),
(175,5,o),
(154,34,cs),
(132,65,o),
(121,110,o),
(121,169,cs),
(121,384,l),
(58,384,ls),
(51,384,o),
(46,388,o),
(43,396,cs),
(38,405,o),
(36,417,o),
(36,431,cs),
(36,439,o),
(38,447,o),
(42,455,c),
(45,465,o),
(51,470,o),
(61,470,cs),
(120,470,l),
(120,646,l),
(120,646,l)
);
}
);
};
layerId = m01;
shapes = (
{
closed = 1;
nodes = (
(406,-11,o),
(422,6,o),
(422,31,cs),
(422,56,o),
(406,72,o),
(371,72,cs),
(314,72,o),
(280,91,o),
(280,176,cs),
(280,614,ls),
(280,651,o),
(263,665,o),
(239,665,cs),
(215,665,o),
(197,651,o),
(197,614,cs),
(197,174,ls),
(197,38,o),
(275,-11,o),
(371,-11,cs)
);
},
{
closed = 1;
nodes = (
(478,99,o),
(457,103,o),
(435,90,cs),
(412,77,o),
(393,72,o),
(367,72,c),
(372,-11,l),
(413,-11,o),
(442,-2,o),
(465,12,cs),
(491,28,o),
(506,50,o),
(491,76,cs)
);
},
{
closed = 1;
nodes = (
(437,384,o),
(451,401,o),
(451,423,cs),
(451,445,o),
(437,462,o),
(400,462,cs),
(166,462,ls),
(129,462,o),
(115,445,o),
(115,423,cs),
(115,401,o),
(129,384,o),
(166,384,cs),
(400,384,ls)
);
}
);
userData = {
assembly = "NPUSHB[ ]	/* 32 values pushed */
46 14 62 14 78 14 3 38 0 44 32 0 16 11 0 1 16 10 1 6 44 6 48 8 36 3 12 4 45 3 1 4 
CALL[ ]	/* CallFunction */
CALL[ ]	/* CallFunction */
SVTCA[0]	/* SetFreedomAndProjectionVectorToAxis */
MIAP[1]	/* MoveIndirectAbsPt */
MIAP[1]	/* MoveIndirectAbsPt */
MIAP[1]	/* MoveIndirectAbsPt */
MIAP[1]	/* MoveIndirectAbsPt */
SRP0[ ]	/* SetRefPoint0 */
MIRP[11100]	/* MoveIndirectRelPt */
SRP0[ ]	/* SetRefPoint0 */
MIRP[11100]	/* MoveIndirectRelPt */
SRP0[ ]	/* SetRefPoint0 */
MIRP[11100]	/* MoveIndirectRelPt */
IUP[0]	/* InterpolateUntPts */
IUP[1]	/* InterpolateUntPts */
SVTCA[1]	/* SetFreedomAndProjectionVectorToAxis */
DELTAP1[ ]	/* DeltaExceptionP1 */";
};
width = 600;
}
);
note = t;
unicode = 116;
},
{
color = 7;
glyphname = u;
lastChange = "2025-01-18 15:02:46 +0000";
layers = (
{
layerId = m01;
shapes = (
{
closed = 1;
nodes = (
(496,421,ls),
(496,454,o),
(482,472,o),
(455,472,cs),
(428,472,o),
(414,454,o),
(413,421,cs),
(403,49,l),
(413,13,o),
(427,-2,o),
(455,-2,cs),
(481,-2,o),
(496,16,o),
(496,49,cs)
);
},
{
closed = 1;
nodes = (
(186,422,ls),
(186,459,o),
(169,473,o),
(145,473,cs),
(121,473,o),
(103,459,o),
(103,422,cs),
(103,151,ls),
(103,61,o),
(146,-11,o),
(258,-11,cs),
(344,-11,o),
(414,29,o),
(440,105,c),
(413,183,l),
(383,113,o),
(331,72,o),
(270,72,cs),
(218,72,o),
(186,89,o),
(186,151,cs)
);
}
);
userData = {
assembly = "NPUSHB[ ]	/* 26 values pushed */
189 34 1 141 34 1 17 0 32 10 8 6 24 6 22 3 27 4 6 3 12 4 0 3 34 4 
CALL[ ]	/* CallFunction */
CALL[ ]	/* CallFunction */
CALL[ ]	/* CallFunction */
SVTCA[0]	/* SetFreedomAndProjectionVectorToAxis */
MIAP[1]	/* MoveIndirectAbsPt */
MIAP[1]	/* MoveIndirectAbsPt */
MIAP[1]	/* MoveIndirectAbsPt */
MIRP[11100]	/* MoveIndirectRelPt */
IUP[0]	/* InterpolateUntPts */
IUP[1]	/* InterpolateUntPts */
DELTAP1[ ]	/* DeltaExceptionP1 */
DELTAP1[ ]	/* DeltaExceptionP1 */";
};
width = 600;
}
);
note = u;
unicode = 117;
},
{
color = 7;
glyphname = v;
lastChange = "2025-01-18 15:02:46 +0000";
layers = (
{
layerId = m01;
shapes = (
{
closed = 1;
nodes = (
(259,23,ls),
(274,-10,o),
(295,-16,o),
(317,-6,cs),
(338,4,o),
(348,23,o),
(332,57,cs),
(157,440,ls),
(142,473,o),
(120,479,o),
(98,469,cs),
(78,459,o),
(67,440,o),
(83,406,cs)
);
},
{
closed = 1;
nodes = (
(534,440,o),
(524,460,o),
(504,469,cs),
(481,479,o),
(460,473,o),
(445,440,cs),
(270,58,ls),
(254,24,o),
(264,4,o),
(285,-5,cs),
(307,-15,o),
(328,-9,o),
(343,24,cs),
(518,406,ls)
);
}
);
userData = {
assembly = "NPUSHB[ ]	/* 6 values pushed */
16 10 8 6 2 6 
SVTCA[0]	/* SetFreedomAndProjectionVectorToAxis */
MIAP[1]	/* MoveIndirectAbsPt */
MIAP[1]	/* MoveIndirectAbsPt */
MIAP[1]	/* MoveIndirectAbsPt */
IUP[0]	/* InterpolateUntPts */
IUP[1]	/* InterpolateUntPts */";
};
width = 600;
}
);
note = v;
unicode = 118;
},
{
color = 7;
glyphname = w;
lastChange = "2025-01-18 15:02:46 +0000";
layers = (
{
guides = (
{
angle = 90;
pos = (35,536);
},
{
angle = 90;
pos = (505,485);
},
{
angle = 90;
pos = (273,525);
}
);
layerId = m01;
shapes = (
{
closed = 1;
nodes = (
(162,27,ls),
(167,5,o),
(181,-9,o),
(200,-9,cs),
(228,-9,o),
(236,1,o),
(245,31,cs),
(300,213,l),
(355,31,ls),
(364,1,o),
(372,-9,o),
(400,-9,cs),
(419,-9,o),
(433,5,o),
(438,27,cs),
(533,414,ls),
(542,451,o),
(526,467,o),
(505,472,cs),
(481,478,o),
(461,468,o),
(453,432,cs),
(390,139,l),
(347,283,ls),
(338,313,o),
(320,322,o),
(300,322,cs),
(280,322,o),
(262,313,o),
(253,283,cs),
(210,139,l),
(147,432,ls),
(139,468,o),
(119,478,o),
(95,472,cs),
(74,467,o),
(58,451,o),
(67,414,cs)
);
}
);
userData = {
assembly = "NPUSHB[ ]	/* 8 values pushed */
27 10 21 10 3 6 12 6 
SVTCA[0]	/* SetFreedomAndProjectionVectorToAxis */
MIAP[1]	/* MoveIndirectAbsPt */
MIAP[1]	/* MoveIndirectAbsPt */
MIAP[1]	/* MoveIndirectAbsPt */
MIAP[1]	/* MoveIndirectAbsPt */
IUP[0]	/* InterpolateUntPts */
IUP[1]	/* InterpolateUntPts */";
};
width = 600;
}
);
note = w;
unicode = 119;
},
{
color = 7;
glyphname = x;
lastChange = "2025-01-18 15:02:46 +0000";
layers = (
{
layerId = m01;
shapes = (
{
closed = 1;
nodes = (
(416,24,ls),
(438,-5,o),
(459,-8,o),
(479,6,cs),
(498,19,o),
(505,41,o),
(482,70,cs),
(192,446,ls),
(169,476,o),
(148,478,o),
(128,464,cs),
(110,451,o),
(102,430,o),
(125,400,cs)
);
},
{
closed = 1;
nodes = (
(317,200,l),
(472,400,ls),
(495,430,o),
(487,451,o),
(469,464,cs),
(449,478,o),
(428,476,o),
(405,446,cs),
(264,263,l)
);
},
{
closed = 1;
nodes = (
(268,263,l),
(119,70,ls),
(96,41,o),
(103,19,o),
(122,6,cs),
(142,-8,o),
(163,-5,o),
(185,24,cs),
(321,200,l)
);
}
);
userData = {
assembly = "NPUSHB[ ]	/* 8 values pushed */
22 10 16 10 10 6 6 6 
SVTCA[0]	/* SetFreedomAndProjectionVectorToAxis */
MIAP[1]	/* MoveIndirectAbsPt */
MIAP[1]	/* MoveIndirectAbsPt */
MIAP[1]	/* MoveIndirectAbsPt */
MIAP[1]	/* MoveIndirectAbsPt */
IUP[0]	/* InterpolateUntPts */
IUP[1]	/* InterpolateUntPts */";
};
width = 600;
}
);
note = x;
unicode = 120;
},
{
color = 7;
glyphname = y;
lastChange = "2025-01-18 15:02:46 +0000";
layers = (
{
layerId = m01;
shapes = (
{
closed = 1;
nodes = (
(254,21,ls),
(268,-12,o),
(288,-19,o),
(311,-10,cs),
(332,0,o),
(342,18,o),
(328,53,cs),
(166,442,ls),
(152,475,o),
(131,482,o),
(108,473,cs),
(88,463,o),
(77,445,o),
(91,410,cs)
);
},
{
closed = 1;
nodes = (
(525,446,o),
(514,466,o),
(494,474,cs),
(471,483,o),
(450,477,o),
(436,443,cs),
(188,-149,ls),
(174,-183,o),
(184,-203,o),
(206,-211,cs),
(228,-220,o),
(249,-214,o),
(262,-180,cs),
(510,412,ls)
);
}
);
userData = {
assembly = "NPUSHB[ ]	/* 4 values pushed */
2 6 8 6 
SVTCA[0]	/* SetFreedomAndProjectionVectorToAxis */
MIAP[1]	/* MoveIndirectAbsPt */
MIAP[1]	/* MoveIndirectAbsPt */
IUP[0]	/* InterpolateUntPts */
IUP[1]	/* InterpolateUntPts */";
};
width = 600;
}
);
note = y;
unicode = 121;
},
{
color = 7;
glyphname = z;
lastChange = "2025-01-18 15:02:46 +0000";
layers = (
{
layerId = m01;
shapes = (
{
closed = 1;
nodes = (
(447,395,o),
(461,412,o),
(461,434,cs),
(461,456,o),
(447,473,o),
(410,473,cs),
(174,473,ls),
(137,473,o),
(123,456,o),
(123,434,cs),
(123,412,o),
(137,395,o),
(174,395,cs),
(410,395,ls)
);
},
{
closed = 1;
nodes = (
(480,0,o),
(494,17,o),
(494,39,cs),
(494,61,o),
(480,78,o),
(443,78,cs),
(156,78,ls),
(119,78,o),
(105,61,o),
(105,39,cs),
(105,17,o),
(119,0,o),
(156,0,cs),
(443,0,ls)
);
},
{
closed = 1;
nodes = (
(471,432,o),
(464,451,o),
(446,464,cs),
(426,478,o),
(400,471,o),
(378,440,cs),
(119,73,ls),
(97,42,o),
(103,22,o),
(122,9,cs),
(142,-5,o),
(165,-2,o),
(185,27,cs),
(449,400,ls)
);
}
);
userData = {
assembly = "NPUSHB[ ]	/* 10 values pushed */
16 0 13 7 0 1 13 10 1 6 
SVTCA[0]	/* SetFreedomAndProjectionVectorToAxis */
MIAP[1]	/* MoveIndirectAbsPt */
MIAP[1]	/* MoveIndirectAbsPt */
SRP0[ ]	/* SetRefPoint0 */
MIRP[11100]	/* MoveIndirectRelPt */
SRP0[ ]	/* SetRefPoint0 */
MIRP[11100]	/* MoveIndirectRelPt */
IUP[0]	/* InterpolateUntPts */
IUP[1]	/* InterpolateUntPts */";
};
width = 600;
}
);
note = z;
unicode = 122;
},
{
color = 7;
glyphname = braceleft;
lastChange = "2025-01-18 15:02:46 +0000";
layers = (
{
layerId = m01;
shapes = (
{
closed = 1;
nodes = (
(327,288,o),
(326,222,o),
(331,157,cs),
(338,62,o),
(321,-20,o),
(389,-27,cs),
(425,-31,o),
(441,-43,o),
(441,-70,cs),
(441,-97,o),
(425,-110,o),
(389,-110,cs),
(292,-110,o),
(254,-28,o),
(250,80,cs),
(246,180,o),
(262,277,o),
(143,295,c),
(128,299,o),
(120,310,o),
(120,324,cs),
(120,338,o),
(128,349,o),
(143,353,c),
(262,371,o),
(246,468,o),
(250,568,cs),
(254,676,o),
(292,758,o),
(389,758,cs),
(425,758,o),
(441,745,o),
(441,718,cs),
(441,691,o),
(425,679,o),
(389,675,cs),
(321,668,o),
(337,586,o),
(331,491,cs),
(326,426,o),
(327,360,o),
(263,324,c)
);
}
);
userData = {
assembly = "NPUSHB[ ]	/* 45 values pushed */
66 5 1 79 26 1 79 30 1 65 15 1 65 35 1 65 13 1 62 0 1 62 26 1 60 30 1 24 0 28 4 2 0 57 4 19 3 32 4 9 3 51 4 26 0 
MDAP[1]	/* MoveDirectAbsPt */
MDAP[1]	/* MoveDirectAbsPt */
CALL[ ]	/* CallFunction */
CALL[ ]	/* CallFunction */
SVTCA[0]	/* SetFreedomAndProjectionVectorToAxis */
CALL[ ]	/* CallFunction */
CALL[ ]	/* CallFunction */
IUP[0]	/* InterpolateUntPts */
IUP[1]	/* InterpolateUntPts */
SVTCA[1]	/* SetFreedomAndProjectionVectorToAxis */
DELTAP1[ ]	/* DeltaExceptionP1 */
DELTAP1[ ]	/* DeltaExceptionP1 */
DELTAP1[ ]	/* DeltaExceptionP1 */
DELTAP1[ ]	/* DeltaExceptionP1 */
DELTAP1[ ]	/* DeltaExceptionP1 */
DELTAP1[ ]	/* DeltaExceptionP1 */
DELTAP1[ ]	/* DeltaExceptionP1 */
DELTAP1[ ]	/* DeltaExceptionP1 */
DELTAP1[ ]	/* DeltaExceptionP1 */";
};
width = 600;
}
);
note = braceleft;
unicode = 123;
},
{
color = 7;
glyphname = bar;
lastChange = "2025-01-18 15:02:46 +0000";
layers = (
{
layerId = m01;
shapes = (
{
closed = 1;
nodes = (
(274,-113,o),
(256,-91,o),
(256,-62,cs),
(256,703,ls),
(256,732,o),
(275,754,o),
(300,754,cs),
(325,754,o),
(343,732,o),
(343,703,cs),
(343,-62,ls),
(343,-91,o),
(325,-113,o),
(300,-113,cs)
);
}
);
userData = {
assembly = "NPUSHB[ ]	/* 4 values pushed */
1 3 6 4 
CALL[ ]	/* CallFunction */
IUP[0]	/* InterpolateUntPts */
IUP[1]	/* InterpolateUntPts */";
};
width = 600;
}
);
note = bar;
unicode = 124;
},
{
color = 7;
glyphname = braceright;
lastChange = "2025-01-18 15:02:46 +0000";
layers = (
{
layerId = m01;
shapes = (
{
closed = 1;
nodes = (
(273,360,o),
(274,426,o),
(269,491,cs),
(263,586,o),
(279,668,o),
(211,675,cs),
(175,679,o),
(159,691,o),
(159,718,cs),
(159,745,o),
(175,758,o),
(211,758,cs),
(308,758,o),
(346,676,o),
(350,568,cs),
(354,468,o),
(338,371,o),
(457,353,c),
(472,349,o),
(480,338,o),
(480,324,cs),
(480,310,o),
(472,299,o),
(457,295,c),
(338,277,o),
(354,180,o),
(350,80,cs),
(346,-28,o),
(308,-110,o),
(211,-110,cs),
(175,-110,o),
(159,-97,o),
(159,-70,cs),
(159,-43,o),
(175,-31,o),
(211,-27,cs),
(279,-20,o),
(263,62,o),
(269,157,cs),
(264,222,o),
(273,288,o),
(337,324,c)
);
}
);
userData = {
assembly = "NPUSHB[ ]	/* 22 values pushed */
77 28 1 50 15 1 39 0 43 4 17 0 13 4 47 3 32 4 9 3 25 4 
CALL[ ]	/* CallFunction */
CALL[ ]	/* CallFunction */
SVTCA[0]	/* SetFreedomAndProjectionVectorToAxis */
CALL[ ]	/* CallFunction */
CALL[ ]	/* CallFunction */
IUP[0]	/* InterpolateUntPts */
IUP[1]	/* InterpolateUntPts */
SVTCA[1]	/* SetFreedomAndProjectionVectorToAxis */
DELTAP1[ ]	/* DeltaExceptionP1 */
DELTAP1[ ]	/* DeltaExceptionP1 */";
};
width = 600;
}
);
note = braceright;
unicode = 125;
},
{
color = 7;
glyphname = asciitilde;
lastChange = "2025-01-23 21:46:40 +0000";
layers = (
{
layerId = m01;
shapes = (
{
closed = 1;
nodes = (
(333,331,o),
(309,431,o),
(198,431,cs),
(118,431,o),
(55,382,o),
(55,298,cs),
(55,261,o),
(73,246,o),
(93,246,cs),
(118,246,o),
(133,261,o),
(133,294,cs),
(133,333,o),
(165,350,o),
(200,348,cs),
(283,343,o),
(306,246,o),
(412,246,cs),
(482,246,o),
(545,308,o),
(545,387,cs),
(545,418,o),
(532,431,o),
(507,431,cs),
(482,431,o),
(467,416,o),
(467,383,cs),
(467,353,o),
(448,331,o),
(403,331,cs)
);
}
);
userData = {
assembly = "NPUSHB[ ]	/* 14 values pushed */
60 32 1 49 19 1 15 0 26 4 11 0 30 4 
SVTCA[0]	/* SetFreedomAndProjectionVectorToAxis */
CALL[ ]	/* CallFunction */
CALL[ ]	/* CallFunction */
IUP[0]	/* InterpolateUntPts */
IUP[1]	/* InterpolateUntPts */
SVTCA[1]	/* SetFreedomAndProjectionVectorToAxis */
DELTAP1[ ]	/* DeltaExceptionP1 */
SVTCA[0]	/* SetFreedomAndProjectionVectorToAxis */
DELTAP1[ ]	/* DeltaExceptionP1 */";
};
width = 600;
}
);
note = asciitilde;
unicode = 126;
},
{
color = 7;
glyphname = uni007F;
lastChange = "2025-01-18 15:02:46 +0000";
layers = (
{
guides = (
{
angle = 90;
pos = (300,683);
}
);
layerId = m01;
shapes = (
{
closed = 1;
nodes = (
(496,357,l),
(300,589,l),
(103,357,l),
(103,0,l),
(496,0,l)
);
},
{
closed = 1;
nodes = (
(17,372,ls),
(17,382,o),
(21,390,o),
(27,398,cs),
(257,670,ls),
(272,687,o),
(285,695,o),
(300,695,cs),
(313,695,o),
(328,687,o),
(342,670,cs),
(573,398,ls),
(579,390,o),
(583,382,o),
(583,372,cs),
(584,-36,ls),
(584,-65,o),
(562,-87,o),
(533,-87,cs),
(68,-87,ls),
(39,-87,o),
(17,-65,o),
(17,-36,cs)
);
}
);
userData = {
assembly = "NPUSHB[ ]	/* 13 values pushed */
6 0 4 10 13 9 3 4 4 0 3 17 4 
CALL[ ]	/* CallFunction */
CALL[ ]	/* CallFunction */
SVTCA[0]	/* SetFreedomAndProjectionVectorToAxis */
MDAP[1]	/* MoveDirectAbsPt */
MIAP[1]	/* MoveIndirectAbsPt */
MIRP[11100]	/* MoveIndirectRelPt */
IUP[0]	/* InterpolateUntPts */
IUP[1]	/* InterpolateUntPts */";
};
width = 600;
}
);
note = uni007F;
unicode = 127;
},
{
color = 7;
glyphname = exclamdown;
lastChange = "2025-01-18 15:02:46 +0000";
layers = (
{
layerId = m01;
shapes = (
{
closed = 1;
nodes = (
(256,532,o),
(278,548,o),
(299,548,cs),
(322,548,o),
(342,530,o),
(342,506,cs),
(342,33,ls),
(342,8,o),
(324,-10,o),
(299,-10,cs),
(275,-10,o),
(256,7,o),
(256,31,cs),
(256,508,l),
(256,508,l)
);
},
{
closed = 1;
nodes = (
(265,768,o),
(237,739,o),
(237,705,c),
(237,670,o),
(265,642,o),
(300,642,c),
(335,642,o),
(363,670,o),
(363,705,c),
(363,739,o),
(335,768,o),
(300,768,c)
);
}
);
userData = {
assembly = "NPUSHB[ ]	/* 4 values pushed */
0 3 8 4 
CALL[ ]	/* CallFunction */
IUP[0]	/* InterpolateUntPts */
IUP[1]	/* InterpolateUntPts */";
};
width = 600;
}
);
note = exclamdown;
unicode = 161;
},
{
color = 7;
glyphname = cent;
lastChange = "2025-01-18 15:02:46 +0000";
layers = (
{
layerId = m01;
shapes = (
{
closed = 1;
nodes = (
(358,581,o),
(336,598,o),
(315,598,cs),
(292,598,o),
(272,579,o),
(272,555,cs),
(272,-66,ls),
(272,-89,o),
(290,-108,o),
(315,-108,cs),
(339,-108,o),
(358,-91,o),
(358,-68,cs),
(358,558,ls)
);
},
{
closed = 1;
nodes = (
(480,145,o),
(457,132,o),
(437,109,cs),
(412,83,o),
(377,69,o),
(316,69,cs),
(240,69,o),
(169,131,o),
(169,237,cs),
(169,341,o),
(228,404,o),
(311,404,cs),
(370,404,o),
(403,386,o),
(417,355,cs),
(429,328,o),
(457,328,o),
(472,335,cs),
(492,344,o),
(499,370,o),
(479,409,cs),
(457,451,o),
(399,484,o),
(310,484,cs),
(181,484,o),
(84,384,o),
(84,237,cs),
(84,86,o),
(195,-11,o),
(318,-11,cs),
(412,-11,o),
(473,18,o),
(507,62,cs),
(528,89,o),
(529,115,o),
(506,129,cs)
);
}
);
userData = {
assembly = "NPUSHB[ ]	/* 8 values pushed */
49 3 5 4 2 3 20 4 
CALL[ ]	/* CallFunction */
CALL[ ]	/* CallFunction */
IUP[0]	/* InterpolateUntPts */
IUP[1]	/* InterpolateUntPts */";
};
width = 600;
}
);
note = cent;
unicode = 162;
},
{
color = 7;
glyphname = sterling;
lastChange = "2025-01-18 15:02:46 +0000";
layers = (
{
layerId = m01;
shapes = (
{
closed = 1;
nodes = (
(219,-5,o),
(252,30,o),
(279,70,c),
(305,45,o),
(360,-2,o),
(425,-2,cs),
(470,-2,o),
(507,11,o),
(555,47,cs),
(574,61,o),
(581,82,o),
(573,102,cs),
(564,124,o),
(544,135,o),
(517,116,cs),
(495,101,o),
(456,82,o),
(425,82,cs),
(378,82,o),
(321,136,o),
(303,151,c),
(309,275,o),
(269,379,o),
(269,499,cs),
(269,547,o),
(296,581,o),
(343,581,cs),
(383,581,o),
(416,562,o),
(440,541,cs),
(465,520,o),
(489,517,o),
(507,539,cs),
(524,561,o),
(522,578,o),
(498,603,cs),
(476,626,o),
(425,667,o),
(339,667,cs),
(235,667,o),
(181,611,o),
(181,498,cs),
(181,361,o),
(219,279,o),
(219,185,c),
(195,200,o),
(167,205,o),
(147,205,cs),
(83,205,o),
(42,159,o),
(42,100,cs),
(42,45,o),
(93,-5,o),
(155,-5,cs)
);
},
{
closed = 1;
nodes = (
(135,74,o),
(121,86,o),
(121,103,cs),
(121,125,o),
(135,133,o),
(154,133,cs),
(167,133,o),
(180,126,o),
(197,113,c),
(187,87,o),
(170,74,o),
(154,74,cs)
);
},
{
closed = 1;
nodes = (
(385,293,ls),
(411,293,o),
(425,315,o),
(425,333,cs),
(425,353,o),
(409,373,o),
(382,373,cs),
(161,373,ls),
(135,373,o),
(116,355,o),
(116,333,cs),
(116,312,o),
(133,293,o),
(159,293,cs)
);
}
);
userData = {
assembly = "NPUSHB[ ]	/* 17 values pushed */
49 0 22 27 0 37 14 0 22 5 0 70 10 61 10 22 37 
SVTCA[0]	/* SetFreedomAndProjectionVectorToAxis */
MDAP[1]	/* MoveDirectAbsPt */
MDAP[1]	/* MoveDirectAbsPt */
MIAP[1]	/* MoveIndirectAbsPt */
MIAP[1]	/* MoveIndirectAbsPt */
MIRP[11100]	/* MoveIndirectRelPt */
SRP0[ ]	/* SetRefPoint0 */
MIRP[11100]	/* MoveIndirectRelPt */
SRP0[ ]	/* SetRefPoint0 */
MIRP[11100]	/* MoveIndirectRelPt */
SRP0[ ]	/* SetRefPoint0 */
MIRP[11100]	/* MoveIndirectRelPt */
IUP[0]	/* InterpolateUntPts */
IUP[1]	/* InterpolateUntPts */";
};
width = 600;
}
);
note = sterling;
unicode = 163;
},
{
color = 7;
glyphname = currency;
lastChange = "2025-02-01 23:37:53 +0000";
layers = (
{
layerId = m01;
shapes = (
{
closed = 1;
nodes = (
(245,446,l),
(134,557,ls),
(118,573,o),
(90,570,o),
(75,555,cs),
(59,539,o),
(58,511,o),
(75,494,cs),
(179,390,l)
);
},
{
closed = 1;
nodes = (
(407,375,l),
(526,494,ls),
(543,511,o),
(542,539,o),
(526,555,cs),
(511,570,o),
(483,573,o),
(467,557,cs),
(354,444,l)
);
},
{
closed = 1;
nodes = (
(360,209,l),
(465,104,ls),
(481,88,o),
(507,87,o),
(525,105,cs),
(542,122,o),
(543,148,o),
(527,164,cs),
(421,270,l)
);
},
{
closed = 1;
nodes = (
(177,267,l),
(74,164,ls),
(58,148,o),
(59,122,o),
(76,105,cs),
(94,87,o),
(120,88,o),
(136,104,cs),
(240,208,l)
);
},
{
closed = 1;
nodes = (
(390,170,o),
(462,242,o),
(462,331,cs),
(462,419,o),
(390,492,o),
(301,492,cs),
(213,492,o),
(140,419,o),
(140,331,cs),
(140,242,o),
(213,170,o),
(301,170,cs)
);
},
{
closed = 1;
nodes = (
(253,243,o),
(214,283,o),
(214,331,cs),
(214,379,o),
(253,418,o),
(301,418,cs),
(350,418,o),
(389,379,o),
(389,331,cs),
(389,283,o),
(350,243,o),
(301,243,cs)
);
}
);
userData = {
assembly = "NPUSHB[ ]	/* 8 values pushed */
10 3 86 4 38 3 4 4 
CALL[ ]	/* CallFunction */
CALL[ ]	/* CallFunction */
IUP[0]	/* InterpolateUntPts */
IUP[1]	/* InterpolateUntPts */";
};
width = 600;
}
);
note = currency;
unicode = 164;
},
{
color = 7;
glyphname = yen;
lastChange = "2025-01-18 15:02:46 +0000";
layers = (
{
layerId = m01;
shapes = (
{
closed = 1;
nodes = (
(471,73,o),
(485,95,o),
(485,113,cs),
(485,133,o),
(469,153,o),
(442,153,cs),
(151,153,ls),
(125,153,o),
(106,135,o),
(106,113,cs),
(106,92,o),
(123,73,o),
(149,73,cs),
(445,73,ls)
);
},
{
closed = 1;
nodes = (
(251,250,l),
(260,224,o),
(273,201,o),
(297,201,cs),
(321,201,o),
(334,224,o),
(343,250,c),
(511,580,ls),
(530,617,o),
(513,638,o),
(488,648,cs),
(463,656,o),
(446,651,o),
(427,611,cs),
(297,337,l),
(167,611,ls),
(148,651,o),
(131,656,o),
(106,648,cs),
(81,638,o),
(64,617,o),
(83,580,cs)
);
},
{
closed = 1;
nodes = (
(341,278,ls),
(341,316,o),
(324,330,o),
(298,330,cs),
(272,330,o),
(254,316,o),
(254,278,cs),
(254,52,ls),
(254,14,o),
(271,0,o),
(297,0,cs),
(323,0,o),
(341,14,o),
(341,52,cs)
);
},
{
closed = 1;
nodes = (
(471,193,o),
(485,215,o),
(485,233,cs),
(485,253,o),
(469,273,o),
(442,273,cs),
(151,273,ls),
(125,273,o),
(106,255,o),
(106,233,cs),
(106,212,o),
(123,193,o),
(149,193,cs),
(445,193,ls)
);
}
);
userData = {
assembly = "NPUSHB[ ]	/* 28 values pushed */
44 0 51 4 35 0 41 4 13 0 7 4 5 0 61 4 30 8 24 8 59 3 55 4 6 3 42 4 
CALL[ ]	/* CallFunction */
CALL[ ]	/* CallFunction */
SVTCA[0]	/* SetFreedomAndProjectionVectorToAxis */
MIAP[1]	/* MoveIndirectAbsPt */
MIAP[1]	/* MoveIndirectAbsPt */
CALL[ ]	/* CallFunction */
CALL[ ]	/* CallFunction */
CALL[ ]	/* CallFunction */
CALL[ ]	/* CallFunction */
IUP[0]	/* InterpolateUntPts */
IUP[1]	/* InterpolateUntPts */";
};
width = 600;
}
);
note = yen;
unicode = 165;
},
{
color = 7;
glyphname = brokenbar;
lastChange = "2025-01-26 16:48:28 +0000";
layers = (
{
background = {
shapes = (
{
closed = 1;
nodes = (
(343,356.333,o),
(329.667,344,o),
(303,344,cs),
(279,344,o),
(257,358,o),
(257,382,cs),
(257,668,ls),
(257,677.333,o),
(262.333,685,o),
(273,691,cs),
(282.333,696.333,o),
(291.667,699,o),
(301,699,cs),
(329,699,o),
(343,689.333,o),
(343,670,cs),
(343,381,l),
(343,381,l)
);
},
{
closed = 1;
nodes = (
(343,-52.667,o),
(328,-63,o),
(298,-65,c),
(270.667,-60.333,o),
(257,-49.667,o),
(257,-33,cs),
(257,259,ls),
(257,282.333,o),
(273,294,o),
(305,294,cs),
(330.333,294,o),
(343,283.667,o),
(343,263,cs),
(343,-34,l),
(343,-34,l)
);
}
);
};
layerId = m01;
shapes = (
{
closed = 1;
nodes = (
(343,738,o),
(321,755,o),
(300,755,cs),
(277,755,o),
(257,736,o),
(257,712,cs),
(257,501,ls),
(257,478,o),
(275,459,o),
(300,459,cs),
(324,459,o),
(343,476,o),
(343,499,cs),
(343,715,ls)
);
},
{
closed = 1;
nodes = (
(343,174,o),
(321,191,o),
(300,191,cs),
(277,191,o),
(257,172,o),
(257,148,cs),
(257,-73,ls),
(257,-96,o),
(275,-115,o),
(300,-115,cs),
(324,-115,o),
(343,-98,o),
(343,-75,cs),
(343,151,ls)
);
}
);
userData = {
assembly = "NPUSHB[ ]	/* 11 values pushed */
124 11 1 14 3 18 4 0 3 8 4 
CALL[ ]	/* CallFunction */
CALL[ ]	/* CallFunction */
IUP[0]	/* InterpolateUntPts */
IUP[1]	/* InterpolateUntPts */
SVTCA[0]	/* SetFreedomAndProjectionVectorToAxis */
DELTAP1[ ]	/* DeltaExceptionP1 */";
};
width = 600;
}
);
note = brokenbar;
unicode = 166;
},
{
color = 7;
glyphname = section;
lastChange = "2025-01-26 12:01:55 +0000";
layers = (
{
background = {
shapes = (
{
closed = 1;
nodes = (
(498,71,o),
(477,31,o),
(435,4,cs),
(399,-18,o),
(353,-29,o),
(296,-29,cs),
(228,-29,o),
(173,-16,o),
(132,9,cs),
(85,40,o),
(61,89,o),
(61,154,cs),
(61,181,o),
(74,195,o),
(99,195,cs),
(118,195,o),
(131,182,o),
(140,155,cs),
(152,118,o),
(164,94,o),
(175,81,cs),
(200,54,o),
(240,41,o),
(296,41,cs),
(379,41,o),
(420,69,o),
(420,126,cs),
(420,166,o),
(392,196,o),
(336,216,cs),
(180,270,l),
(124,299,o),
(96,344,o),
(96,407,cs),
(96,447,o),
(113,482,o),
(146,511,c),
(131,534,o),
(124,561,o),
(124,592,cs),
(124,637,o),
(144,673,o),
(185,700,c),
(220,723,o),
(261,735,o),
(308,735,cs),
(341,735,o),
(378,725,o),
(421,706,cs),
(470,683,o),
(494,657,o),
(494,628,cs),
(494,603,o),
(481,590,o),
(456,590,cs),
(452,590,o),
(432,602,o),
(395,626,cs),
(359,650,o),
(330,662,o),
(308,662,cs),
(286,662,o),
(265,656,o),
(244,645,cs),
(220,631,o),
(208,613,o),
(208,592,cs),
(208,557,o),
(233,528,o),
(283,503,cs),
(306,492,o),
(330,480,o),
(353,469,cs),
(376,457,o),
(400,445,o),
(423,434,c),
(473,401,o),
(498,357,o),
(498,302,cs),
(498,287,o),
(495,273,o),
(488,260,cs),
(479,244,o),
(468,235,o),
(456,233,c),
(484,202,o),
(498,166,o),
(498,126,cs)
);
},
{
closed = 1;
nodes = (
(422,331,o),
(393,362,o),
(334,395,cs),
(331,396,o),
(319,402,o),
(298,412,cs),
(276,422,o),
(245,436,o),
(204,455,c),
(184,438,o),
(174,422,o),
(174,407,cs),
(174,376,o),
(190,352,o),
(222,333,cs),
(243,320,o),
(277,308,o),
(324,295,cs),
(348,288,o),
(368,283,o),
(383,278,cs),
(398,273,o),
(408,269,o),
(415,266,c),
(417,270,l),
(417,280,l),
(422,290,l),
(422,300,l),
(422,300,l)
);
}
);
};
layerId = m01;
shapes = (
{
closed = 1;
nodes = (
(431,142,l),
(457,161,o),
(476,187,o),
(450,224,c),
(487,245,o),
(500,276,o),
(500,303,cs),
(500,374,o),
(446,429,o),
(327,485,cs),
(242,525,o),
(207,529,o),
(207,584,cs),
(207,626,o),
(237,662,o),
(290,662,cs),
(337,662,o),
(383,644,o),
(419,611,cs),
(442,590,o),
(466,601,o),
(479,627,cs),
(489,647,o),
(479,662,o),
(457,680,cs),
(419,712,o),
(362,740,o),
(283,740,cs),
(190,740,o),
(117,671,o),
(117,582,cs),
(117,504,o),
(168,469,o),
(266,422,cs),
(326,393,o),
(424,356,o),
(424,294,cs),
(424,263,o),
(401,235,o),
(379,216,c)
);
},
{
closed = 1;
nodes = (
(175,542,l),
(130,516,o),
(95,464,o),
(95,402,cs),
(95,324,o),
(146,274,o),
(269,232,cs),
(339,208,o),
(414,186,o),
(414,124,cs),
(414,62,o),
(334,46,o),
(291,46,cs),
(222,46,o),
(159,63,o),
(135,167,cs),
(129,192,o),
(108,204,o),
(78,190,cs),
(54,179,o),
(56,145,o),
(65,116,cs),
(98,4,o),
(195,-28,o),
(289,-28,cs),
(391,-28,o),
(500,27,o),
(500,123,cs),
(500,204,o),
(421,261,o),
(297,305,cs),
(212,335,o),
(177,349,o),
(177,404,cs),
(177,438,o),
(197,468,o),
(233,478,c)
);
}
);
userData = {
assembly = "NPUSHB[ ]	/* 27 values pushed */
42 0 54 4 64 0 38 4 27 0 17 4 8 73 3 69 3 35 4 13 3 31 4 0 3 40 4 
CALL[ ]	/* CallFunction */
CALL[ ]	/* CallFunction */
CALL[ ]	/* CallFunction */
SVTCA[0]	/* SetFreedomAndProjectionVectorToAxis */
CALL[ ]	/* CallFunction */
CALL[ ]	/* CallFunction */
CALL[ ]	/* CallFunction */
CALL[ ]	/* CallFunction */
IUP[0]	/* InterpolateUntPts */
IUP[1]	/* InterpolateUntPts */";
};
width = 600;
}
);
note = section;
unicode = 167;
},
{
color = 7;
glyphname = dieresis;
lastChange = "2025-02-01 15:06:34 +0000";
layers = (
{
layerId = m01;
shapes = (
{
closed = 1;
nodes = (
(127,681,o),
(157,650,o),
(194,650,cs),
(230,650,o),
(260,681,o),
(260,717,cs),
(260,755,o),
(230,785,o),
(194,785,cs),
(157,785,o),
(127,755,o),
(127,717,cs)
);
},
{
closed = 1;
nodes = (
(340,681,o),
(370,650,o),
(407,650,cs),
(443,650,o),
(473,681,o),
(473,717,cs),
(473,755,o),
(443,785,o),
(407,785,cs),
(370,785,o),
(340,755,o),
(340,717,cs)
);
}
);
userData = {
assembly = "NPUSHB[ ]	/* 14 values pushed */
27 21 3 11 5 3 16 5 24 4 0 5 8 4 
CALL[ ]	/* CallFunction */
CALL[ ]	/* CallFunction */
SVTCA[0]	/* SetFreedomAndProjectionVectorToAxis */
CALL[ ]	/* CallFunction */
CALL[ ]	/* CallFunction */
IUP[0]	/* InterpolateUntPts */
IUP[1]	/* InterpolateUntPts */";
};
width = 600;
}
);
note = dieresis;
unicode = 168;
},
{
color = 7;
glyphname = copyright;
lastChange = "2025-01-18 15:02:46 +0000";
layers = (
{
layerId = m01;
shapes = (
{
closed = 1;
nodes = (
(359,156,o),
(401,176,o),
(426,206,cs),
(440,225,o),
(440,243,o),
(425,253,cs),
(407,264,o),
(391,255,o),
(375,238,cs),
(359,221,o),
(335,211,o),
(305,211,cs),
(245,211,o),
(204,254,o),
(204,327,cs),
(204,400,o),
(244,443,o),
(302,443,cs),
(330,443,o),
(353,432,o),
(363,410,cs),
(371,391,o),
(391,391,o),
(400,397,cs),
(414,402,o),
(419,420,o),
(406,447,cs),
(391,476,o),
(350,500,o),
(302,500,cs),
(212,500,o),
(145,431,o),
(145,327,cs),
(145,223,o),
(214,156,o),
(307,156,cs)
);
},
{
closed = 1;
nodes = (
(464,36,o),
(587,160,o),
(587,327,cs),
(587,486,o),
(459,614,o),
(299,614,cs),
(147,614,o),
(13,495,o),
(13,323,cs),
(13,157,o),
(145,36,o),
(299,36,cs)
);
},
{
closed = 1;
nodes = (
(184,108,o),
(85,200,o),
(85,323,cs),
(85,452,o),
(185,542,o),
(299,542,cs),
(418,542,o),
(515,446,o),
(515,327,cs),
(515,201,o),
(422,108,o),
(299,108,cs)
);
}
);
userData = {
assembly = "NPUSHB[ ]	/* 20 values pushed */
10 0 31 4 21 0 0 4 86 3 55 4 15 3 27 4 38 3 4 4 
CALL[ ]	/* CallFunction */
CALL[ ]	/* CallFunction */
CALL[ ]	/* CallFunction */
SVTCA[0]	/* SetFreedomAndProjectionVectorToAxis */
CALL[ ]	/* CallFunction */
CALL[ ]	/* CallFunction */
IUP[0]	/* InterpolateUntPts */
IUP[1]	/* InterpolateUntPts */";
};
width = 600;
}
);
note = copyright;
unicode = 169;
},
{
color = 7;
glyphname = ordfeminine;
lastChange = "2025-01-23 21:50:01 +0000";
layers = (
{
layerId = m01;
shapes = (
{
closed = 1;
nodes = (
(396,452,ls),
(396,417,o),
(411,402,o),
(435,402,cs),
(459,402,o),
(476,417,o),
(476,452,cs),
(476,705,ls),
(476,742,o),
(460,754,o),
(435,754,cs),
(413,754,o),
(396,742,o),
(396,705,cs)
);
},
{
closed = 1;
nodes = (
(201,647,o),
(245,679,o),
(293,679,cs),
(345,679,o),
(382,648,o),
(396,595,c),
(413,639,l),
(401,710,o),
(350,753,o),
(277,753,cs),
(193,753,o),
(123,676,o),
(123,571,cs),
(123,473,o),
(193,396,o),
(277,396,cs),
(350,396,o),
(401,439,o),
(413,510,c),
(396,554,l),
(382,501,o),
(345,470,o),
(293,470,cs),
(245,470,o),
(201,502,o),
(201,571,cs)
);
}
);
userData = {
assembly = "NPUSHB[ ]	/* 16 values pushed */
55 0 20 4 12 0 65 4 45 3 47 4 60 3 16 4 
CALL[ ]	/* CallFunction */
CALL[ ]	/* CallFunction */
SVTCA[0]	/* SetFreedomAndProjectionVectorToAxis */
CALL[ ]	/* CallFunction */
CALL[ ]	/* CallFunction */
IUP[0]	/* InterpolateUntPts */
IUP[1]	/* InterpolateUntPts */";
};
width = 600;
}
);
note = ordfeminine;
unicode = 170;
},
{
color = 7;
glyphname = guillemotleft;
lastChange = "2025-01-18 15:02:46 +0000";
layers = (
{
guides = (
{
pos = (65,263);
}
);
layerId = m01;
shapes = (
{
closed = 1;
nodes = (
(149,263,l),
(294,386,ls),
(313,402,o),
(321,423,o),
(309,445,cs),
(297,465,o),
(272,478,o),
(253,462,cs),
(67,304,ls),
(40,281,o),
(39,245,o),
(66,222,cs),
(250,66,ls),
(269,50,o),
(297,62,o),
(309,82,cs),
(319,100,o),
(315,123,o),
(296,139,cs)
);
},
{
closed = 1;
nodes = (
(389,263,l),
(534,386,ls),
(553,402,o),
(561,423,o),
(549,445,cs),
(537,465,o),
(512,478,o),
(493,462,cs),
(307,304,ls),
(280,281,o),
(279,245,o),
(306,222,cs),
(490,66,ls),
(509,50,o),
(537,62,o),
(549,82,cs),
(559,100,o),
(555,123,o),
(536,139,cs)
);
}
);
userData = {
assembly = "NPUSHB[ ]	/* 2 values pushed */
61 42 
SVTCA[0]	/* SetFreedomAndProjectionVectorToAxis */
MDAP[1]	/* MoveDirectAbsPt */
MDAP[1]	/* MoveDirectAbsPt */
IUP[0]	/* InterpolateUntPts */
IUP[1]	/* InterpolateUntPts */";
};
width = 600;
}
);
note = guillemotleft;
unicode = 171;
},
{
color = 7;
glyphname = logicalnot;
lastChange = "2025-01-18 15:02:46 +0000";
layers = (
{
layerId = m01;
shapes = (
{
closed = 1;
nodes = (
(107,361,o),
(90,339,o),
(90,318,cs),
(90,295,o),
(109,275,o),
(133,275,cs),
(410,275,l),
(410,141,ls),
(410,118,o),
(428,99,o),
(453,99,cs),
(477,99,o),
(496,116,o),
(496,139,cs),
(496,310,ls),
(496,339,o),
(474,361,o),
(445,361,cs),
(130,361,ls)
);
}
);
userData = {
assembly = "SVTCA[0]	/* SetFreedomAndProjectionVectorToAxis */
PUSHB[ ]	/* 1 value pushed */
0 
MDAP[1]	/* MoveDirectAbsPt */
PUSHB[ ]	/* 2 values pushed */
6 6 
MIRP[01001]	/* MoveIndirectRelPt */
SVTCA[1]	/* SetFreedomAndProjectionVectorToAxis */
PUSHB[ ]	/* 1 value pushed */
23 
MDAP[1]	/* MoveDirectAbsPt */
PUSHB[ ]	/* 1 value pushed */
21 
MDRP[10110]	/* MoveDirectRelPt */
PUSHB[ ]	/* 2 values pushed */
15 10 
MIRP[01001]	/* MoveIndirectRelPt */
PUSHB[ ]	/* 3 values pushed */
21 15 10 
CALL[ ]	/* CallFunction */
PUSHB[ ]	/* 4 values pushed */
0 21 2 9 
CALL[ ]	/* CallFunction */
PUSHB[ ]	/* 2 values pushed */
24 1 
CALL[ ]	/* CallFunction */
SVTCA[0]	/* SetFreedomAndProjectionVectorToAxis */
IUP[0]	/* InterpolateUntPts */
IUP[1]	/* InterpolateUntPts */";
};
width = 600;
}
);
note = logicalnot;
unicode = 172;
},
{
color = 7;
glyphname = uni00AD;
lastChange = "2025-01-18 15:02:46 +0000";
layers = (
{
layerId = m01;
shapes = (
{
closed = 1;
nodes = (
(114,365,o),
(97,343,o),
(97,322,cs),
(97,299,o),
(116,279,o),
(140,279,cs),
(461,279,ls),
(484,279,o),
(503,297,o),
(503,322,cs),
(503,346,o),
(486,365,o),
(463,365,cs),
(137,365,ls)
);
}
);
userData = {
assembly = "NPUSHB[ ]	/* 4 values pushed */
4 0 10 4 
SVTCA[0]	/* SetFreedomAndProjectionVectorToAxis */
CALL[ ]	/* CallFunction */
IUP[0]	/* InterpolateUntPts */
IUP[1]	/* InterpolateUntPts */";
};
width = 600;
}
);
note = uni00AD;
unicode = 173;
},
{
color = 7;
glyphname = registered;
lastChange = "2025-01-18 15:02:46 +0000";
layers = (
{
layerId = m01;
shapes = (
{
closed = 1;
nodes = (
(191,212,ls),
(191,192,o),
(199,179,o),
(217,179,cs),
(236,179,o),
(245,192,o),
(245,212,cs),
(245,316,l),
(296,316,l),
(321,257,o),
(357,178,o),
(401,178,cs),
(425,178,o),
(437,186,o),
(437,201,cs),
(437,211,o),
(432,226,o),
(411,226,cs),
(392,226,o),
(368,279,o),
(347,321,c),
(391,332,o),
(416,360,o),
(416,401,cs),
(416,468,o),
(372,491,o),
(301,491,cs),
(227,491,ls),
(205,491,o),
(191,478,o),
(191,455,cs)
);
},
{
closed = 1;
nodes = (
(245,444,l),
(303,444,ls),
(356,444,o),
(365,427,o),
(365,402,cs),
(365,375,o),
(341,364,o),
(303,364,cs),
(245,364,l)
);
},
{
closed = 1;
nodes = (
(464,36,o),
(587,160,o),
(587,327,cs),
(587,486,o),
(459,614,o),
(299,614,cs),
(147,614,o),
(13,495,o),
(13,323,cs),
(13,157,o),
(145,36,o),
(299,36,cs)
);
},
{
closed = 1;
nodes = (
(184,108,o),
(85,200,o),
(85,323,cs),
(85,452,o),
(185,542,o),
(299,542,cs),
(418,542,o),
(515,446,o),
(515,327,cs),
(515,201,o),
(422,108,o),
(299,108,cs)
);
}
);
userData = {
assembly = "NPUSHB[ ]	/* 16 values pushed */
96 0 11 4 0 0 85 4 102 3 6 16 3 91 4 6 
MDAP[1]	/* MoveDirectAbsPt */
CALL[ ]	/* CallFunction */
SRP0[ ]	/* SetRefPoint0 */
MIRP[11100]	/* MoveIndirectRelPt */
SVTCA[0]	/* SetFreedomAndProjectionVectorToAxis */
CALL[ ]	/* CallFunction */
CALL[ ]	/* CallFunction */
IUP[0]	/* InterpolateUntPts */
IUP[1]	/* InterpolateUntPts */";
};
width = 600;
}
);
note = registered;
unicode = 174;
},
{
color = 7;
glyphname = macron;
lastChange = "2025-02-02 00:06:59 +0000";
layers = (
{
layerId = m01;
shapes = (
{
closed = 1;
nodes = (
(100,650,o),
(84,629,o),
(84,609,cs),
(84,587,o),
(101,568,o),
(125,568,cs),
(476,568,ls),
(499,568,o),
(516,585,o),
(516,609,cs),
(516,632,o),
(500,650,o),
(478,650,cs),
(122,650,ls)
);
}
);
userData = {
assembly = "NPUSHB[ ]	/* 4 values pushed */
4 0 9 4 
SVTCA[0]	/* SetFreedomAndProjectionVectorToAxis */
CALL[ ]	/* CallFunction */
IUP[0]	/* InterpolateUntPts */
IUP[1]	/* InterpolateUntPts */";
};
width = 600;
}
);
note = macron;
unicode = 175;
},
{
color = 7;
glyphname = degree;
lastChange = "2025-01-18 15:02:46 +0000";
layers = (
{
layerId = m01;
shapes = (
{
closed = 1;
nodes = (
(399,318,o),
(480,399,o),
(480,498,cs),
(480,597,o),
(399,678,o),
(300,678,cs),
(201,678,o),
(120,597,o),
(120,498,cs),
(120,399,o),
(201,318,o),
(300,318,cs)
);
},
{
closed = 1;
nodes = (
(246,400,o),
(202,444,o),
(202,498,cs),
(202,552,o),
(246,596,o),
(300,596,cs),
(354,596,o),
(398,552,o),
(398,498,cs),
(398,444,o),
(354,400,o),
(300,400,cs)
);
}
);
userData = {
assembly = "NPUSHB[ ]	/* 16 values pushed */
29 0 10 4 0 0 21 4 14 3 26 4 33 3 4 4 
CALL[ ]	/* CallFunction */
CALL[ ]	/* CallFunction */
SVTCA[0]	/* SetFreedomAndProjectionVectorToAxis */
CALL[ ]	/* CallFunction */
CALL[ ]	/* CallFunction */
IUP[0]	/* InterpolateUntPts */
IUP[1]	/* InterpolateUntPts */";
};
width = 600;
}
);
note = degree;
unicode = 176;
},
{
color = 7;
glyphname = plusminus;
lastChange = "2025-01-27 19:17:17 +0000";
layers = (
{
layerId = m01;
shapes = (
{
closed = 1;
nodes = (
(129,53,o),
(112,31,o),
(112,10,cs),
(112,-13,o),
(131,-33,o),
(155,-33,cs),
(446,-33,ls),
(469,-33,o),
(488,-15,o),
(488,10,cs),
(488,34,o),
(471,53,o),
(448,53,cs),
(152,53,ls)
);
},
{
closed = 1;
nodes = (
(119,374,o),
(102,352,o),
(102,331,cs),
(102,308,o),
(121,288,o),
(145,288,cs),
(257,288,l),
(257,175,ls),
(257,152,o),
(275,133,o),
(300,133,cs),
(324,133,o),
(343,150,o),
(343,173,cs),
(343,288,l),
(456,288,ls),
(479,288,o),
(498,306,o),
(498,331,cs),
(498,355,o),
(481,374,o),
(458,374,cs),
(343,374,l),
(343,489,ls),
(343,512,o),
(321,529,o),
(300,529,cs),
(277,529,o),
(257,510,o),
(257,486,cs),
(257,374,l),
(142,374,ls)
);
}
);
userData = {
assembly = "NPUSHB[ ]	/* 24 values pushed */
29 29 39 22 22 45 45 0 39 4 14 0 7 4 21 30 3 37 15 37 37 3 31 4 
CALL[ ]	/* CallFunction */
SRP0[ ]	/* SetRefPoint0 */
MDRP[10000]	/* MoveDirectRelPt */
SRP0[ ]	/* SetRefPoint0 */
MIRP[11100]	/* MoveIndirectRelPt */
MDRP[10000]	/* MoveDirectRelPt */
SVTCA[0]	/* SetFreedomAndProjectionVectorToAxis */
CALL[ ]	/* CallFunction */
CALL[ ]	/* CallFunction */
SRP0[ ]	/* SetRefPoint0 */
MDRP[10000]	/* MoveDirectRelPt */
MDAP[1]	/* MoveDirectAbsPt */
SRP0[ ]	/* SetRefPoint0 */
MDRP[10000]	/* MoveDirectRelPt */
MDAP[1]	/* MoveDirectAbsPt */
IUP[0]	/* InterpolateUntPts */
IUP[1]	/* InterpolateUntPts */";
};
width = 600;
}
);
note = plusminus;
unicode = 177;
},
{
color = 7;
glyphname = uni00B2;
lastChange = "2025-01-18 15:47:43 +0000";
layers = (
{
layerId = m01;
shapes = (
{
closed = 1;
nodes = (
(208,557,cs),
(227,557,o),
(240,567,o),
(240,587,cs),
(240,621,o),
(262,634,o),
(289,634,cs),
(326,634,o),
(347,618,o),
(347,573,cs),
(347,541,o),
(310,497,o),
(287,471,cs),
(204,376,ls),
(187,356,o),
(173,339,o),
(173,321,cs),
(173,300,o),
(191,289,o),
(217,289,cs),
(389,289,l),
(404,289,o),
(417,300,o),
(417,319,cs),
(417,336,o),
(405,348,o),
(390,348,cs),
(256,348,l),
(341,444,ls),
(382,491,o),
(410,535,o),
(410,577,cs),
(410,648,o),
(368,691,o),
(292,691,cs),
(234,691,o),
(178,658,o),
(178,591,cs),
(178,569,o),
(189,557,o)
);
}
);
width = 600;
}
);
note = uni00B2;
unicode = 178;
},
{
color = 7;
glyphname = uni00B3;
lastChange = "2025-01-18 15:47:43 +0000";
layers = (
{
layerId = m01;
shapes = (
{
closed = 1;
nodes = (
(238,525,o),
(229,518,o),
(229,501,cs),
(229,485,o),
(238,477,o),
(254,475,cs),
(299,469,o),
(331,452,o),
(331,402,cs),
(331,361,o),
(291,347,o),
(274,347,cs),
(248,347,o),
(220,354,o),
(200,372,cs),
(184,385,o),
(173,389,o),
(161,377,cs),
(148,364,o),
(145,345,o),
(159,331,cs),
(187,303,o),
(230,288,o),
(270,288,cs),
(332,288,o),
(393,325,o),
(393,396,cs),
(393,450,o),
(369,490,o),
(316,505,c),
(369,523,o),
(381,566,o),
(381,598,cs),
(381,656,o),
(338,693,o),
(269,693,cs),
(229,693,o),
(191,678,o),
(168,654,cs),
(154,640,o),
(157,626,o),
(169,614,cs),
(180,602,o),
(198,605,o),
(211,615,cs),
(229,629,o),
(247,638,o),
(273,638,cs),
(297,638,o),
(320,630,o),
(320,598,cs),
(320,565,o),
(301,533,o),
(254,527,cs)
);
}
);
width = 600;
}
);
note = uni00B3;
unicode = 179;
},
{
color = 7;
glyphname = acute;
lastChange = "2025-01-18 15:47:43 +0000";
layers = (
{
layerId = m01;
shapes = (
{
closed = 1;
nodes = (
(182,576,o),
(186,549,o),
(201,534,cs),
(217,518,o),
(244,517,o),
(261,534,cs),
(403,676,ls),
(419,692,o),
(420,718,o),
(402,736,cs),
(385,753,o),
(360,754,o),
(344,738,cs),
(199,593,ls)
);
}
);
userData = {
assembly = "NPUSHB[ ]	/* 3 values pushed */
7 5 3 
SVTCA[0]	/* SetFreedomAndProjectionVectorToAxis */
CALL[ ]	/* CallFunction */
IUP[0]	/* InterpolateUntPts */
IUP[1]	/* InterpolateUntPts */";
};
width = 600;
}
);
note = acute;
unicode = 180;
},
{
color = 7;
glyphname = mu;
lastChange = "2025-01-18 15:47:43 +0000";
layers = (
{
layerId = m01;
shapes = (
{
closed = 1;
nodes = (
(105,267,l),
(105,-143,ls),
(105,-164,o),
(122,-183,o),
(147,-183,cs),
(169,-183,o),
(188,-166,o),
(188,-145,cs),
(188,267,l)
);
},
{
closed = 1;
nodes = (
(488,425,ls),
(488,462,o),
(471,476,o),
(447,476,cs),
(423,476,o),
(405,462,o),
(405,425,cs),
(405,163,ls),
(405,89,o),
(436,21,o),
(495,-6,cs),
(526,-21,o),
(555,2,o),
(556,30,cs),
(556,48,o),
(545,58,o),
(528,67,cs),
(505,80,o),
(488,111,o),
(488,163,cs)
);
},
{
closed = 1;
nodes = (
(188,422,ls),
(188,459,o),
(171,473,o),
(147,473,cs),
(123,473,o),
(105,459,o),
(105,422,cs),
(105,151,ls),
(105,61,o),
(148,-11,o),
(260,-11,cs),
(346,-11,o),
(416,29,o),
(442,105,c),
(415,183,l),
(385,113,o),
(333,72,o),
(272,72,cs),
(220,72,o),
(188,89,o),
(188,151,cs)
);
}
);
userData = {
assembly = "NPUSHB[ ]	/* 12 values pushed */
45 0 13 4 53 3 62 4 30 3 39 4 
CALL[ ]	/* CallFunction */
CALL[ ]	/* CallFunction */
SVTCA[0]	/* SetFreedomAndProjectionVectorToAxis */
CALL[ ]	/* CallFunction */
IUP[0]	/* InterpolateUntPts */
IUP[1]	/* InterpolateUntPts */";
};
width = 600;
}
);
note = mu;
unicode = 181;
},
{
color = 7;
glyphname = paragraph;
lastChange = "2025-01-18 15:47:43 +0000";
layers = (
{
layerId = m01;
shapes = (
{
closed = 1;
nodes = (
(290,280,ls),
(289,280,ls)
);
},
{
closed = 1;
nodes = (
(21,354,o),
(111,282,o),
(283,280,c),
(283,-53,ls),
(283,-74,o),
(300,-93,o),
(325,-93,cs),
(347,-93,o),
(366,-76,o),
(366,-55,cs),
(366,586,l),
(436,586,l),
(436,-53,ls),
(436,-74,o),
(453,-93,o),
(478,-93,cs),
(500,-93,o),
(519,-76,o),
(519,-55,cs),
(519,586,l),
(544,586,ls),
(567,586,o),
(586,604,o),
(586,629,cs),
(586,653,o),
(569,672,o),
(546,672,cs),
(260,672,ls),
(113,672,o),
(21,623,o),
(21,483,cs)
);
},
{
closed = 1;
nodes = (
(107,537,o),
(130,586,o),
(263,586,cs),
(283,586,l),
(283,366,l),
(168,367,o),
(107,403,o),
(107,481,cs)
);
}
);
userData = {
assembly = "NPUSHB[ ]	/* 21 values pushed */
3 0 25 4 34 3 6 24 3 19 3 16 17 3 29 4 16 3 10 4 6 
MDAP[1]	/* MoveDirectAbsPt */
CALL[ ]	/* CallFunction */
CALL[ ]	/* CallFunction */
SRP0[ ]	/* SetRefPoint0 */
MIRP[11100]	/* MoveIndirectRelPt */
MIRP[11100]	/* MoveIndirectRelPt */
SRP0[ ]	/* SetRefPoint0 */
MIRP[11100]	/* MoveIndirectRelPt */
SVTCA[0]	/* SetFreedomAndProjectionVectorToAxis */
CALL[ ]	/* CallFunction */
IUP[0]	/* InterpolateUntPts */
IUP[1]	/* InterpolateUntPts */";
};
width = 600;
}
);
note = paragraph;
unicode = 182;
},
{
color = 7;
glyphname = periodcentered;
lastChange = "2025-01-18 15:47:43 +0000";
layers = (
{
layerId = m01;
shapes = (
{
closed = 1;
nodes = (
(250,341.667,o),
(273.333,364,o),
(300,364,cs),
(328,364,o),
(350,341.667,o),
(350,315,cs),
(350,287,o),
(328,266,o),
(300,266,cs),
(273.333,266,o),
(250,287,o),
(250,315,cs)
);
}
);
userData = {
assembly = "NPUSHB[ ]	/* 8 values pushed */
3 0 9 4 6 3 0 4 
CALL[ ]	/* CallFunction */
SVTCA[0]	/* SetFreedomAndProjectionVectorToAxis */
CALL[ ]	/* CallFunction */
IUP[0]	/* InterpolateUntPts */
IUP[1]	/* InterpolateUntPts */";
};
width = 600;
}
);
note = periodcentered;
unicode = 183;
},
{
color = 7;
glyphname = cedilla;
lastChange = "2025-01-18 15:47:43 +0000";
layers = (
{
layerId = m01;
shapes = (
{
closed = 1;
nodes = (
(391,-211,o),
(438,-170,o),
(438,-120,cs),
(438,-49,o),
(334,-50,o),
(334,-11,c),
(261,-11,l),
(261,-73,o),
(376,-84,o),
(376,-120,cs),
(376,-141,o),
(344,-152,o),
(306,-152,cs),
(269,-152,o),
(239,-136,o),
(223,-127,cs),
(206,-117,o),
(191,-120,o),
(181,-137,cs),
(170,-157,o),
(181,-173,o),
(200,-184,cs),
(217,-195,o),
(250,-211,o),
(312,-211,cs)
);
}
);
userData = {
assembly = "NPUSHB[ ]	/* 3 values pushed */
1 10 18 
SVTCA[0]	/* SetFreedomAndProjectionVectorToAxis */
MDAP[1]	/* MoveDirectAbsPt */
MIAP[1]	/* MoveIndirectAbsPt */
IUP[0]	/* InterpolateUntPts */
IUP[1]	/* InterpolateUntPts */";
};
width = 600;
}
);
note = cedilla;
unicode = 184;
},
{
color = 7;
glyphname = uni00B9;
lastChange = "2025-02-01 23:49:17 +0000";
layers = (
{
guides = (
{
pos = (130,698);
}
);
layerId = m01;
shapes = (
{
closed = 1;
nodes = (
(413,310,ls),
(425,310,o),
(444,322,o),
(444,342,cs),
(444,363,o),
(427,373,o),
(413,373,cs),
(333,373,l),
(333,669,ls),
(333,686,o),
(328,697,o),
(314,697,cs),
(302,697,o),
(291,692,o),
(278,678,cs),
(186,577,ls),
(172,561,o),
(173,546,o),
(188,532,cs),
(202,519,o),
(222,518,o),
(235,534,cs),
(282,593,l),
(272,593,l),
(272,373,l),
(188,373,ls),
(173,373,o),
(156,361,o),
(156,342,cs),
(156,324,o),
(175,310,o),
(188,310,cs)
);
}
);
width = 600;
}
);
note = uni00B9;
unicode = 185;
},
{
color = 7;
glyphname = ordmasculine;
lastChange = "2025-01-18 15:47:43 +0000";
layers = (
{
layerId = m01;
shapes = (
{
closed = 1;
nodes = (
(399,397,o),
(480,478,o),
(480,577,cs),
(480,676,o),
(399,757,o),
(300,757,cs),
(201,757,o),
(120,676,o),
(120,577,cs),
(120,478,o),
(201,397,o),
(300,397,cs)
);
},
{
closed = 1;
nodes = (
(246,479,o),
(202,523,o),
(202,577,cs),
(202,631,o),
(246,675,o),
(300,675,cs),
(354,675,o),
(398,631,o),
(398,577,cs),
(398,523,o),
(354,479,o),
(300,479,cs)
);
}
);
userData = {
assembly = "NPUSHB[ ]	/* 17 values pushed */
8 0 24 0 0 16 4 24 6 11 3 21 4 28 3 4 4 
CALL[ ]	/* CallFunction */
CALL[ ]	/* CallFunction */
SVTCA[0]	/* SetFreedomAndProjectionVectorToAxis */
MIAP[1]	/* MoveIndirectAbsPt */
CALL[ ]	/* CallFunction */
SRP0[ ]	/* SetRefPoint0 */
MIRP[11100]	/* MoveIndirectRelPt */
IUP[0]	/* InterpolateUntPts */
IUP[1]	/* InterpolateUntPts */";
};
width = 600;
}
);
note = ordmasculine;
unicode = 186;
},
{
color = 7;
glyphname = guillemotright;
lastChange = "2025-01-18 15:47:43 +0000";
layers = (
{
layerId = m01;
shapes = (
{
closed = 1;
nodes = (
(286,123,o),
(282,100,o),
(292,82,cs),
(304,62,o),
(332,50,o),
(351,66,cs),
(535,222,ls),
(562,245,o),
(561,281,o),
(534,304,cs),
(348,462,ls),
(329,478,o),
(304,465,o),
(292,445,cs),
(280,423,o),
(288,402,o),
(307,386,cs),
(452,263,l),
(305,139,ls)
);
},
{
closed = 1;
nodes = (
(46,123,o),
(42,100,o),
(52,82,cs),
(64,62,o),
(92,50,o),
(111,66,cs),
(295,222,ls),
(322,245,o),
(321,281,o),
(294,304,cs),
(108,462,ls),
(89,478,o),
(64,465,o),
(52,445,cs),
(40,423,o),
(48,402,o),
(67,386,cs),
(212,263,l),
(65,139,ls)
);
}
);
userData = {
assembly = "NPUSHB[ ]	/* 2 values pushed */
48 33 
SVTCA[0]	/* SetFreedomAndProjectionVectorToAxis */
MDAP[1]	/* MoveDirectAbsPt */
MDAP[1]	/* MoveDirectAbsPt */
IUP[0]	/* InterpolateUntPts */
IUP[1]	/* InterpolateUntPts */";
};
width = 600;
}
);
note = guillemotright;
unicode = 187;
},
{
color = 7;
glyphname = onequarter;
lastChange = "2025-02-03 20:24:38 +0000";
layers = (
{
layerId = m01;
shapes = (
{
closed = 1;
nodes = (
(532,589,o),
(526,613,o),
(510,624,cs),
(491,634,o),
(472,630,o),
(458,611,cs),
(105,125,ls),
(91,105,o),
(96,84,o),
(113,73,cs),
(131,61,o),
(150,67,o),
(164,86,cs),
(519,572,ls)
);
},
{
closed = 1;
nodes = (
(260,390,ls),
(272,390,o),
(291,402,o),
(291,422,cs),
(291,443,o),
(274,453,o),
(260,453,cs),
(190,453,l),
(190,749,ls),
(190,766,o),
(185,777,o),
(171,777,cs),
(159,777,o),
(148,772,o),
(135,758,cs),
(43,657,ls),
(29,641,o),
(30,626,o),
(45,612,cs),
(59,599,o),
(79,598,o),
(92,614,cs),
(139,673,l),
(129,673,l),
(129,453,l),
(55,453,ls),
(40,453,o),
(23,441,o),
(23,422,cs),
(23,404,o),
(42,390,o),
(55,390,cs)
);
},
{
closed = 1;
nodes = (
(480,-41,ls),
(480,-57,o),
(494,-69,o),
(509,-69,cs),
(527,-69,o),
(539,-59,o),
(539,-42,cs),
(539,269,ls),
(539,286,o),
(524,297,o),
(509,297,cs),
(495,297,o),
(480,285,o),
(480,268,cs)
);
},
{
closed = 1;
nodes = (
(541,28,ls),
(564,28,o),
(577,41,o),
(577,60,cs),
(577,78,o),
(564,91,o),
(541,91,cs),
(392,91,l),
(406,144,o),
(420,206,o),
(420,281,cs),
(420,307,o),
(420,329,o),
(397,332,cs),
(377,335,o),
(359,324,o),
(359,294,cs),
(358,210,o),
(337,137,o),
(320,77,cs),
(311,46,o),
(315,28,o),
(345,28,cs)
);
}
);
userData = {
assembly = "NPUSHB[ ]	/* 31 values pushed */
87 87 100 100 0 93 4 24 0 38 13 0 38 10 30 10 35 69 87 101 3 87 4 63 22 31 15 15 3 22 4 
CALL[ ]	/* CallFunction */
SRP0[ ]	/* SetRefPoint0 */
MDRP[10000]	/* MoveDirectRelPt */
SRP0[ ]	/* SetRefPoint0 */
MDRP[10000]	/* MoveDirectRelPt */
CALL[ ]	/* CallFunction */
SRP0[ ]	/* SetRefPoint0 */
MDRP[10000]	/* MoveDirectRelPt */
SVTCA[0]	/* SetFreedomAndProjectionVectorToAxis */
MDAP[1]	/* MoveDirectAbsPt */
MIAP[1]	/* MoveIndirectAbsPt */
MIAP[1]	/* MoveIndirectAbsPt */
MIRP[11100]	/* MoveIndirectRelPt */
SRP0[ ]	/* SetRefPoint0 */
MIRP[11100]	/* MoveIndirectRelPt */
CALL[ ]	/* CallFunction */
SRP0[ ]	/* SetRefPoint0 */
MDRP[10000]	/* MoveDirectRelPt */
MDAP[1]	/* MoveDirectAbsPt */
IUP[0]	/* InterpolateUntPts */
IUP[1]	/* InterpolateUntPts */";
};
width = 600;
}
);
note = onequarter;
unicode = 188;
},
{
color = 7;
glyphname = onehalf;
lastChange = "2025-01-18 15:47:43 +0000";
layers = (
{
layerId = m01;
shapes = (
{
closed = 1;
nodes = (
(532,589,o),
(526,613,o),
(510,624,cs),
(491,634,o),
(472,630,o),
(458,611,cs),
(105,125,ls),
(91,105,o),
(96,84,o),
(113,73,cs),
(131,61,o),
(150,67,o),
(164,86,cs),
(519,572,ls)
);
},
{
closed = 1;
nodes = (
(260,390,ls),
(272,390,o),
(291,402,o),
(291,422,cs),
(291,443,o),
(274,453,o),
(260,453,cs),
(190,453,l),
(190,749,ls),
(190,766,o),
(185,777,o),
(171,777,cs),
(159,777,o),
(148,772,o),
(135,758,cs),
(43,657,ls),
(29,641,o),
(30,626,o),
(45,612,cs),
(59,599,o),
(79,598,o),
(92,614,cs),
(139,673,l),
(129,673,l),
(129,453,l),
(55,453,ls),
(40,453,o),
(23,441,o),
(23,422,cs),
(23,404,o),
(42,390,o),
(55,390,cs)
);
},
{
closed = 1;
nodes = (
(368,207,cs),
(387,207,o),
(400,217,o),
(400,237,cs),
(400,271,o),
(422,284,o),
(449,284,cs),
(486,284,o),
(507,268,o),
(507,223,cs),
(507,191,o),
(470,147,o),
(447,121,cs),
(364,26,ls),
(347,6,o),
(333,-11,o),
(333,-29,cs),
(333,-50,o),
(351,-61,o),
(377,-61,cs),
(549,-61,l),
(564,-61,o),
(577,-50,o),
(577,-31,cs),
(577,-14,o),
(565,-2,o),
(550,-2,cs),
(416,-2,l),
(501,94,ls),
(542,141,o),
(570,185,o),
(570,227,cs),
(570,298,o),
(528,341,o),
(452,341,cs),
(394,341,o),
(338,308,o),
(338,241,cs),
(338,219,o),
(349,207,o)
);
}
);
userData = {
assembly = "NPUSHB[ ]	/* 20 values pushed */
90 90 103 103 0 96 4 13 0 22 21 10 22 10 72 90 104 3 90 4 
CALL[ ]	/* CallFunction */
SRP0[ ]	/* SetRefPoint0 */
MDRP[10000]	/* MoveDirectRelPt */
SVTCA[0]	/* SetFreedomAndProjectionVectorToAxis */
MIAP[1]	/* MoveIndirectAbsPt */
MIAP[1]	/* MoveIndirectAbsPt */
SRP0[ ]	/* SetRefPoint0 */
MIRP[11100]	/* MoveIndirectRelPt */
CALL[ ]	/* CallFunction */
SRP0[ ]	/* SetRefPoint0 */
MDRP[10000]	/* MoveDirectRelPt */
MDAP[1]	/* MoveDirectAbsPt */
IUP[0]	/* InterpolateUntPts */
IUP[1]	/* InterpolateUntPts */";
};
width = 600;
}
);
note = onehalf;
unicode = 189;
},
{
color = 7;
glyphname = threequarters;
lastChange = "2025-02-03 20:24:54 +0000";
layers = (
{
layerId = m01;
shapes = (
{
closed = 1;
nodes = (
(522,589,o),
(516,613,o),
(500,624,cs),
(481,634,o),
(462,630,o),
(448,611,cs),
(95,125,ls),
(81,105,o),
(86,84,o),
(103,73,cs),
(121,61,o),
(140,67,o),
(154,86,cs),
(509,572,ls)
);
},
{
closed = 1;
nodes = (
(128,605,o),
(119,598,o),
(119,581,cs),
(119,565,o),
(128,557,o),
(144,555,cs),
(189,549,o),
(221,532,o),
(221,482,cs),
(221,441,o),
(181,427,o),
(164,427,cs),
(138,427,o),
(110,434,o),
(90,452,cs),
(74,465,o),
(63,469,o),
(51,457,cs),
(38,444,o),
(35,425,o),
(49,411,cs),
(77,383,o),
(120,368,o),
(160,368,cs),
(222,368,o),
(283,405,o),
(283,476,cs),
(283,530,o),
(259,570,o),
(206,585,c),
(259,603,o),
(271,646,o),
(271,678,cs),
(271,736,o),
(228,773,o),
(159,773,cs),
(119,773,o),
(81,758,o),
(58,734,cs),
(44,720,o),
(47,706,o),
(59,694,cs),
(70,682,o),
(88,685,o),
(101,695,cs),
(119,709,o),
(137,718,o),
(163,718,cs),
(187,718,o),
(210,710,o),
(210,678,cs),
(210,645,o),
(191,613,o),
(144,607,cs)
);
},
{
closed = 1;
nodes = (
(480,-41,ls),
(480,-57,o),
(494,-69,o),
(509,-69,cs),
(527,-69,o),
(539,-59,o),
(539,-42,cs),
(539,269,ls),
(539,286,o),
(524,297,o),
(509,297,cs),
(495,297,o),
(480,285,o),
(480,268,cs)
);
},
{
closed = 1;
nodes = (
(541,28,ls),
(564,28,o),
(577,41,o),
(577,60,cs),
(577,78,o),
(564,91,o),
(541,91,cs),
(392,91,l),
(406,144,o),
(420,206,o),
(420,281,cs),
(420,307,o),
(420,329,o),
(397,332,cs),
(377,335,o),
(359,324,o),
(359,294,cs),
(358,210,o),
(337,137,o),
(320,77,cs),
(311,46,o),
(315,28,o),
(345,28,cs)
);
}
);
userData = {
assembly = "NPUSHB[ ]	/* 25 values pushed */
121 0 135 107 0 135 10 127 10 6 8 132 0 148 102 128 109 109 3 119 4 146 3 102 4 
CALL[ ]	/* CallFunction */
CALL[ ]	/* CallFunction */
SRP0[ ]	/* SetRefPoint0 */
MDRP[10000]	/* MoveDirectRelPt */
SRP0[ ]	/* SetRefPoint0 */
MDRP[10000]	/* MoveDirectRelPt */
SVTCA[0]	/* SetFreedomAndProjectionVectorToAxis */
MDAP[1]	/* MoveDirectAbsPt */
MDAP[1]	/* MoveDirectAbsPt */
MIAP[1]	/* MoveIndirectAbsPt */
MIAP[1]	/* MoveIndirectAbsPt */
MIAP[1]	/* MoveIndirectAbsPt */
MIRP[11100]	/* MoveIndirectRelPt */
SRP0[ ]	/* SetRefPoint0 */
MIRP[11100]	/* MoveIndirectRelPt */
IUP[0]	/* InterpolateUntPts */
IUP[1]	/* InterpolateUntPts */";
};
width = 600;
}
);
note = threequarters;
unicode = 190;
},
{
color = 7;
glyphname = AE;
lastChange = "2025-02-03 20:30:48 +0000";
layers = (
{
background = {
shapes = (
{
closed = 1;
nodes = (
(540,14.667,o),
(519.667,0,o),
(479,0,cs),
(324,0,ls),
(292,0,o),
(277.333,46.333,o),
(280,139,cs),
(280,226.392,o),
(279,232.261,o),
(279,272,c),
(220,272,l),
(153,21,ls),
(147.667,5,o),
(129.667,-3,o),
(99,-3,cs),
(73,-3,o),
(60,3.667,o),
(60,17,cs),
(60,33.667,o),
(81.333,123,o),
(124,285,cs),
(137.333,335,o),
(150.833,384.833,o),
(164.5,434.5,cs),
(178.167,484.167,o),
(191.667,534,o),
(205,584,cs),
(219.667,642,o),
(246.667,671,o),
(286,671,cs),
(491,670,ls),
(521.667,670,o),
(537,655.333,o),
(537,626,cs),
(537,600.667,o),
(516.333,584,o),
(491,584,cs),
(366,584,l),
(367,359,l),
(371.667,359,o),
(379,359.333,o),
(389,360,cs),
(399,360.667,o),
(408.333,360.333,o),
(417,359,c),
(454.333,360.333,o),
(473,346.333,o),
(473,317,cs),
(473,286.333,o),
(452.333,271.333,o),
(411,272,c),
(404.333,271.333,o),
(396.167,271.167,o),
(386.5,271.5,cs),
(376.833,271.833,o),
(370,272,o),
(366,272,c),
(366,80,l),
(382.667,80,o),
(393.333,80,o),
(398,80,cs),
(402.667,80,o),
(432.667,80,o),
(488,80,cs),
(522,80,o),
(539.333,68,o),
(540,44,cs)
);
},
{
closed = 1;
nodes = (
(236,359,l),
(280,359,l),
(279,536,l),
(279,536,l)
);
}
);
};
layerId = m01;
shapes = (
{
closed = 1;
nodes = (
(42,34,o),
(47,13,o),
(72,3,cs),
(97,-5,o),
(122,0,o),
(133,40,cs),
(275,553,l),
(280,553,l),
(273,75,ls),
(272,27,o),
(300,0,o),
(348,0,cs),
(501,0,ls),
(538,0,o),
(552,18,o),
(552,41,cs),
(552,62,o),
(538,80,o),
(501,80,cs),
(360,80,l),
(360,570,l),
(501,570,ls),
(538,570,o),
(552,587,o),
(552,611,cs),
(552,632,o),
(538,650,o),
(501,650,cs),
(261,650,ls),
(237,650,o),
(223,635,o),
(215,610,cs),
(53,71,ls)
);
},
{
closed = 1;
nodes = (
(293,175,ls),
(330,175,o),
(344,192,o),
(344,215,cs),
(344,237,o),
(330,255,o),
(293,255,cs),
(166,255,ls),
(129,255,o),
(115,238,o),
(115,212,cs),
(115,193,o),
(129,175,o),
(166,175,cs)
);
},
{
closed = 1;
nodes = (
(473,305,ls),
(510,305,o),
(524,322,o),
(524,345,cs),
(524,367,o),
(510,385,o),
(473,385,cs),
(336,385,ls),
(299,385,o),
(285,368,o),
(285,342,cs),
(285,323,o),
(299,305,o),
(336,305,cs)
);
}
);
userData = {
assembly = "NPUSHB[ ]	/* 25 values pushed */
48 0 36 4 23 0 18 4 13 0 8 4 2 0 45 4 33 36 3 29 4 5 3 42 4 
CALL[ ]	/* CallFunction */
CALL[ ]	/* CallFunction */
SVTCA[0]	/* SetFreedomAndProjectionVectorToAxis */
MDAP[1]	/* MoveDirectAbsPt */
CALL[ ]	/* CallFunction */
CALL[ ]	/* CallFunction */
CALL[ ]	/* CallFunction */
CALL[ ]	/* CallFunction */
IUP[0]	/* InterpolateUntPts */
IUP[1]	/* InterpolateUntPts */";
};
width = 600;
}
);
note = AE;
unicode = 198;
},
{
color = 7;
glyphname = Ccedilla;
lastChange = "2025-01-18 15:47:43 +0000";
layers = (
{
layerId = m01;
shapes = (
{
closed = 1;
nodes = (
(422,-9,o),
(498,38,o),
(548,142,cs),
(558,163,o),
(556,183,o),
(534,196,cs),
(514,208,o),
(491,199,o),
(480,181,cs),
(426,96,o),
(381,75,o),
(323,76,cs),
(211,77,o),
(150,174,o),
(150,331,cs),
(150,483,o),
(210,573,o),
(323,573,cs),
(391,573,o),
(431,549,o),
(460,473,cs),
(468,451,o),
(489,440,o),
(512,450,cs),
(536,460,o),
(537,479,o),
(533,498,cs),
(512,601,o),
(429,658,o),
(323,659,cs),
(147,658,o),
(60,501,o),
(60,331,cs),
(60,132,o),
(156,-9,o),
(323,-10,cs)
);
},
{
closed = 1;
nodes = (
(381,-199,o),
(428,-158,o),
(428,-108,cs),
(428,-37,o),
(324,-38,o),
(324,1,c),
(251,1,l),
(251,-61,o),
(366,-72,o),
(366,-108,cs),
(366,-129,o),
(334,-140,o),
(296,-140,cs),
(259,-140,o),
(229,-124,o),
(213,-115,cs),
(196,-105,o),
(181,-108,o),
(171,-125,cs),
(160,-145,o),
(171,-161,o),
(190,-172,cs),
(207,-183,o),
(240,-199,o),
(302,-199,cs)
);
}
);
width = 600;
}
);
unicode = 199;
},
{
color = 7;
glyphname = Eth;
lastChange = "2025-01-18 15:48:01 +0000";
layers = (
{
layerId = m01;
shapes = (
{
closed = 1;
nodes = (
(37,375,o),
(20,353,o),
(20,332,cs),
(20,309,o),
(39,289,o),
(63,289,cs),
(314,289,ls),
(337,289,o),
(356,307,o),
(356,332,cs),
(356,356,o),
(339,375,o),
(316,375,cs),
(60,375,ls)
);
},
{
ref = D;
}
);
userData = {
assembly = "NPUSHB[ ]	/* 28 values pushed */
79 0 38 4 35 0 50 4 73 0 11 4 10 0 0 4 37 3 39 4 64 3 25 4 10 3 79 4 
CALL[ ]	/* CallFunction */
CALL[ ]	/* CallFunction */
CALL[ ]	/* CallFunction */
SVTCA[0]	/* SetFreedomAndProjectionVectorToAxis */
CALL[ ]	/* CallFunction */
CALL[ ]	/* CallFunction */
CALL[ ]	/* CallFunction */
CALL[ ]	/* CallFunction */
IUP[0]	/* InterpolateUntPts */
IUP[1]	/* InterpolateUntPts */";
};
width = 600;
}
);
note = Eth;
unicode = 208;
},
{
color = 7;
glyphname = multiply;
lastChange = "2025-01-27 19:18:21 +0000";
layers = (
{
layerId = m01;
shapes = (
{
closed = 1;
nodes = (
(202,489,o),
(175,486,o),
(160,471,cs),
(144,455,o),
(143,427,o),
(160,410,cs),
(239,331,l),
(159,251,ls),
(143,235,o),
(142,209,o),
(160,191,cs),
(177,174,o),
(202,173,o),
(219,189,cs),
(300,270,l),
(380,190,ls),
(396,174,o),
(422,173,o),
(440,191,cs),
(457,208,o),
(458,233,o),
(442,250,cs),
(361,331,l),
(442,412,ls),
(458,429,o),
(455,456,o),
(440,471,cs),
(424,487,o),
(396,488,o),
(379,471,cs),
(300,392,l),
(219,473,ls)
);
}
);
userData = {
assembly = "NPUSHB[ ]	/* 4 values pushed */
47 0 19 4 
SVTCA[0]	/* SetFreedomAndProjectionVectorToAxis */
CALL[ ]	/* CallFunction */
IUP[0]	/* InterpolateUntPts */
IUP[1]	/* InterpolateUntPts */";
};
width = 600;
}
);
note = multiply;
unicode = 215;
},
{
color = 7;
glyphname = Oslash;
lastChange = "2025-01-26 17:03:49 +0000";
layers = (
{
anchors = (
{
name = bottom;
pos = (300,0);
},
{
name = center;
pos = (300,325);
},
{
name = ogonek;
pos = (541,10);
},
{
name = top;
pos = (300,690);
},
{
name = topleft;
pos = (19,650);
},
{
name = topright;
pos = (581,650);
}
);
layerId = m01;
shapes = (
{
closed = 1;
nodes = (
(467,-9,o),
(561,132,o),
(561,331,cs),
(561,506,o),
(476,663,o),
(300,664,cs),
(124,663,o),
(39,506,o),
(39,331,cs),
(39,132,o),
(133,-9,o),
(300,-10,cs)
);
},
{
closed = 1;
nodes = (
(188,76,o),
(129,170,o),
(129,331,cs),
(129,492,o),
(187,578,o),
(300,578,cs),
(413,578,o),
(471,492,o),
(471,331,cs),
(471,170,o),
(412,76,o),
(300,76,cs)
);
},
{
closed = 1;
nodes = (
(145,-38,o),
(168,-29,o),
(179,-6,cs),
(487,622,ls),
(497,645,o),
(489,668,o),
(469,678,cs),
(448,687,o),
(426,678,o),
(415,656,cs),
(107,27,ls),
(96,5,o),
(104,-19,o),
(124,-28,cs)
);
}
);
userData = {
assembly = "NPUSHB[ ]	/* 16 values pushed */
15 0 45 4 28 0 4 4 47 3 11 4 2 3 32 4 
CALL[ ]	/* CallFunction */
CALL[ ]	/* CallFunction */
SVTCA[0]	/* SetFreedomAndProjectionVectorToAxis */
CALL[ ]	/* CallFunction */
CALL[ ]	/* CallFunction */
IUP[0]	/* InterpolateUntPts */
IUP[1]	/* InterpolateUntPts */";
};
width = 600;
}
);
note = Oslash;
unicode = 216;
},
{
color = 7;
glyphname = Thorn;
lastChange = "2025-01-18 15:48:32 +0000";
layers = (
{
background = {
shapes = (
{
closed = 1;
nodes = (
(147,452,o),
(154,456,o),
(160,459,cs),
(165,462,o),
(170,464,o),
(175,466,c),
(188,474,o),
(203,480,o),
(220,484,cs),
(225,485,o),
(230,486,o),
(235,487,cs),
(239,488,o),
(243,488,o),
(246,489,cs),
(350,500,o),
(427,479,o),
(478,426,cs),
(501,403,o),
(517,376,o),
(526,344,cs),
(535,316,o),
(539,286,o),
(539,254,cs),
(539,211,o),
(530,172,o),
(511,135,cs),
(468,52,o),
(398,9,o),
(301,4,cs),
(252,2,o),
(199,16,o),
(141,46,c),
(139,-100,ls),
(139,-108,o),
(135,-114,o),
(127,-119,cs),
(119,-122,o),
(109,-125,o),
(98,-126,cs),
(68,-127,o),
(53,-119,o),
(53,-101,cs),
(53,546,ls),
(53,563,o),
(58,575,o),
(68,582,cs),
(77,589,o),
(87,593,o),
(98,592,cs),
(107,591,o),
(116,588,o),
(125,583,c),
(135,576,o),
(140,568,o),
(140,560,cs),
(140,449,l),
(140,449,l)
);
},
{
closed = 1;
nodes = (
(231,400,o),
(212,392,o),
(193,380,cs),
(173,367,o),
(155,354,o),
(140,340,c),
(140,140,l),
(186,113,o),
(229,96,o),
(269,91,cs),
(347,83,o),
(402,106,o),
(434,161,cs),
(447,184,o),
(455,213,o),
(456,246,cs),
(456,302,o),
(438,345,o),
(401,375,cs),
(384,389,o),
(363,399,o),
(336,405,cs),
(308,411,o),
(279,411,o),
(249,404,cs)
);
}
);
};
layerId = m01;
shapes = (
{
closed = 1;
nodes = (
(134,349,l),
(165,383,o),
(222,412,o),
(295,412,cs),
(362,412,o),
(447,372,o),
(447,252,cs),
(447,132,o),
(362,92,o),
(295,92,cs),
(222,92,o),
(165,121,o),
(134,155,c),
(134,45,l),
(171,23,o),
(240,5,o),
(301,5,cs),
(426,5,o),
(545,99,o),
(545,252,cs),
(545,405,o),
(426,499,o),
(301,499,cs),
(240,499,o),
(171,481,o),
(134,459,c)
);
},
{
closed = 1;
nodes = (
(60,-69,ls),
(60,-106,o),
(77,-120,o),
(100,-120,cs),
(123,-120,o),
(141,-118,o),
(141,-69,cs),
(141,542,ls),
(141,579,o),
(124,593,o),
(100,593,cs),
(78,593,o),
(60,579,o),
(60,542,cs)
);
}
);
userData = {
assembly = "NPUSHB[ ]	/* 20 values pushed */
29 0 37 4 47 0 19 4 23 3 43 4 16 3 10 4 50 3 9 4 
CALL[ ]	/* CallFunction */
CALL[ ]	/* CallFunction */
CALL[ ]	/* CallFunction */
SVTCA[0]	/* SetFreedomAndProjectionVectorToAxis */
CALL[ ]	/* CallFunction */
CALL[ ]	/* CallFunction */
IUP[0]	/* InterpolateUntPts */
IUP[1]	/* InterpolateUntPts */";
};
width = 600;
}
);
note = Thorn;
unicode = 222;
},
{
color = 7;
glyphname = germandbls;
lastChange = "2025-01-18 15:48:32 +0000";
layers = (
{
layerId = m01;
shapes = (
{
closed = 1;
nodes = (
(217,14,o),
(237,-1,o),
(273,-1,cs),
(397,-1,o),
(497,60,o),
(497,177,cs),
(497,257,o),
(458,323,o),
(370,347,c),
(458,378,o),
(477,449,o),
(477,501,cs),
(477,597,o),
(407,659,o),
(292,659,cs),
(183,659,o),
(92,604,o),
(92,436,cs),
(92,45,ls),
(92,16,o),
(108,0,o),
(136,0,cs),
(164,0,o),
(179,16,o),
(179,45,cs),
(179,446,ls),
(179,544,o),
(225,574,o),
(299,574,cs),
(345,574,o),
(387,561,o),
(387,501,cs),
(387,447,o),
(351,394,o),
(274,384,cs),
(247,381,o),
(232,369,o),
(232,341,cs),
(232,314,o),
(247,302,o),
(274,298,cs),
(349,288,o),
(407,260,o),
(407,187,cs),
(407,112,o),
(335,90,o),
(280,90,cs),
(240,90,o),
(217,76,o),
(217,44,cs)
);
}
);
userData = {
assembly = "NPUSHB[ ]	/* 24 values pushed */
41 0 53 24 0 11 53 10 19 10 11 8 22 3 14 4 7 3 28 4 0 3 39 4 
CALL[ ]	/* CallFunction */
CALL[ ]	/* CallFunction */
CALL[ ]	/* CallFunction */
SVTCA[0]	/* SetFreedomAndProjectionVectorToAxis */
MIAP[1]	/* MoveIndirectAbsPt */
MIAP[1]	/* MoveIndirectAbsPt */
MIAP[1]	/* MoveIndirectAbsPt */
SRP0[ ]	/* SetRefPoint0 */
MIRP[11100]	/* MoveIndirectRelPt */
SRP0[ ]	/* SetRefPoint0 */
MIRP[11100]	/* MoveIndirectRelPt */
IUP[0]	/* InterpolateUntPts */
IUP[1]	/* InterpolateUntPts */";
};
width = 600;
}
);
note = germandbls;
unicode = 223;
},
{
color = 7;
glyphname = ae;
lastChange = "2025-02-03 20:28:37 +0000";
layers = (
{
background = {
shapes = (
{
closed = 1;
nodes = (
(569,239,o),
(565,225,o),
(557,219,cs),
(552,214,o),
(537,212,o),
(513,212,cs),
(342,211,l),
(343,168,o),
(349,138,o),
(358,121,cs),
(372,96,o),
(398,83,o),
(436,83,cs),
(460,83,o),
(482,91,o),
(501,107,cs),
(520,123,o),
(531,131,o),
(534,131,cs),
(544,131,o),
(552,125,o),
(558,112,cs),
(563,101,o),
(566,91,o),
(566,80,cs),
(566,72,o),
(562,63,o),
(555,52,cs),
(538,29,o),
(516,12,o),
(487,3,cs),
(468,-2,o),
(440,-4,o),
(402,-4,cs),
(363,-4,o),
(335,4,o),
(319,20,c),
(283,3,o),
(246,-6,o),
(208,-6,cs),
(147,-6,o),
(105,0,o),
(82,13,cs),
(47,32,o),
(30,68,o),
(30,122,cs),
(30,163,o),
(44,201,o),
(72,236,cs),
(101,275,o),
(135,294,o),
(175,294,cs),
(208,294,o),
(238,290,o),
(263,282,c),
(270,311,o),
(274,335,o),
(274,356,cs),
(274,386,o),
(258,401,o),
(225,401,cs),
(209,401,o),
(185,395,o),
(153,384,cs),
(122,373,o),
(106,367,o),
(105,367,cs),
(89,367,o),
(75,386,o),
(75,403,cs),
(75,425,o),
(91,443,o),
(124,458,cs),
(152,471,o),
(178,478,o),
(201,478,cs),
(266,478,o),
(306,461,o),
(320,427,c),
(345,460,o),
(379,476,o),
(423,476,cs),
(472,476,o),
(510,451,o),
(537,402,cs),
(558,363,o),
(569,316,o),
(569,261,cs)
);
},
{
closed = 1;
nodes = (
(490,354,o),
(469,388,o),
(429,399,c),
(402,396,o),
(383,385,o),
(370,364,cs),
(362,351,o),
(355,329,o),
(349,296,c),
(492,296,l),
(492,296,l)
);
},
{
closed = 1;
nodes = (
(257,132,o),
(252,168,o),
(251,208,c),
(236,215,o),
(219,218,o),
(201,218,cs),
(145,218,o),
(113,181,o),
(113,128,cs),
(113,94,o),
(134,77,o),
(177,77,cs),
(215,77,o),
(244,84,o),
(265,99,c)
);
}
);
};
layerId = m01;
shapes = (
{
closed = 1;
nodes = (
(234,-10,o),
(284,36,o),
(316,119,c),
(290,119,l),
(313,28,o),
(372,-11,o),
(433,-11,cs),
(486,-11,o),
(529,18,o),
(553,62,cs),
(568,89,o),
(569,115,o),
(553,129,cs),
(534,145,o),
(518,132,o),
(504,109,cs),
(486,83,o),
(461,69,o),
(432,69,cs),
(388,69,o),
(349,117,o),
(351,201,c),
(512,201,ls),
(558,201,o),
(565,209,o),
(565,240,cs),
(565,363,o),
(537,484,o),
(431,484,cs),
(359,484,o),
(316,443,o),
(299,381,c),
(313,381,l),
(299,441,o),
(281,483,o),
(205,483,cs),
(130,483,o),
(95,457,o),
(78,443,cs),
(60,427,o),
(50,406,o),
(61,381,cs),
(69,363,o),
(91,359,o),
(102,368,cs),
(117,381,o),
(155,408,o),
(203,408,cs),
(242,408,o),
(253,363,o),
(252,283,cs),
(252,279,l),
(228,294,o),
(215,307,o),
(172,307,cs),
(101,307,o),
(37,246,o),
(37,152,cs),
(37,42,o),
(106,-10,o),
(171,-10,cs)
);
},
{
closed = 1;
nodes = (
(107,198,o),
(138,239,o),
(179,239,cs),
(218,239,o),
(244,221,o),
(262,204,c),
(248,116,o),
(228,73,o),
(169,73,cs),
(149,73,o),
(107,89,o),
(107,152,cs)
);
},
{
closed = 1;
nodes = (
(347,348,o),
(386,414,o),
(425,414,cs),
(468,414,o),
(495,355,o),
(494,272,c),
(348,272,l)
);
}
);
userData = {
assembly = "NPUSHB[ ]	/* 32 values pushed */
61 0 57 4 51 0 40 4 70 0 34 4 26 0 75 4 8 0 19 4 4 0 66 4 54 3 68 4 62 3 24 4 
CALL[ ]	/* CallFunction */
CALL[ ]	/* CallFunction */
SVTCA[0]	/* SetFreedomAndProjectionVectorToAxis */
CALL[ ]	/* CallFunction */
CALL[ ]	/* CallFunction */
CALL[ ]	/* CallFunction */
CALL[ ]	/* CallFunction */
CALL[ ]	/* CallFunction */
CALL[ ]	/* CallFunction */
IUP[0]	/* InterpolateUntPts */
IUP[1]	/* InterpolateUntPts */";
};
width = 600;
}
);
note = ae;
unicode = 230;
},
{
color = 7;
glyphname = igrave;
lastChange = "2025-02-01 23:49:56 +0000";
layers = (
{
layerId = m01;
shapes = (
{
closed = 1;
nodes = (
(276,51,ls),
(276,14,o),
(293,0,o),
(316,0,cs),
(339,0,o),
(357,14,o),
(357,51,cs),
(357,422,ls),
(357,459,o),
(340,473,o),
(316,473,cs),
(294,473,o),
(276,459,o),
(276,422,cs)
);
},
{
closed = 1;
nodes = (
(199,473,ls),
(162,473,o),
(148,456,o),
(148,434,cs),
(148,412,o),
(162,395,o),
(199,395,cs),
(238,395,o),
(277,395,o),
(316,395,c),
(316,473,l)
);
},
{
closed = 1;
nodes = (
(183,77,ls),
(146,77,o),
(132,60,o),
(132,38,cs),
(132,16,o),
(146,-1,o),
(183,-1,cs),
(449,-1,ls),
(486,-1,o),
(500,16,o),
(500,38,cs),
(500,60,o),
(486,77,o),
(449,77,cs)
);
},
{
pos = (530,0);
ref = acutecomb;
scale = (-1,1);
}
);
width = 600;
}
);
unicode = 236;
},
{
color = 7;
glyphname = iacute;
lastChange = "2025-01-18 15:48:32 +0000";
layers = (
{
layerId = m01;
shapes = (
{
pos = (80,30);
ref = acutecomb;
},
{
closed = 1;
nodes = (
(284,51,ls),
(284,14,o),
(301,0,o),
(324,0,cs),
(347,0,o),
(365,14,o),
(365,51,cs),
(365,422,ls),
(365,459,o),
(348,473,o),
(324,473,cs),
(302,473,o),
(284,459,o),
(284,422,cs)
);
},
{
closed = 1;
nodes = (
(207,473,ls),
(170,473,o),
(156,456,o),
(156,434,cs),
(156,412,o),
(170,395,o),
(207,395,cs),
(246,395,o),
(285,395,o),
(324,395,c),
(324,473,l)
);
}
);
width = 600;
}
);
unicode = 237;
},
{
color = 7;
glyphname = icircumflex;
lastChange = "2025-01-18 15:48:32 +0000";
layers = (
{
layerId = m01;
shapes = (
{
closed = 1;
nodes = (
(468,534,o),
(465,555,o),
(448,567,cs),
(320,658,ls),
(314,662,o),
(307,664,o),
(300,664,cs),
(293,664,o),
(286,662,o),
(280,658,cs),
(152,567,ls),
(135,555,o),
(132,534,o),
(143,518,cs),
(153,503,o),
(174,500,o),
(191,512,cs),
(300,589,l),
(409,512,ls),
(426,500,o),
(447,503,o),
(457,518,cs)
);
},
{
closed = 1;
nodes = (
(274,51,ls),
(274,14,o),
(291,0,o),
(314,0,cs),
(337,0,o),
(355,14,o),
(355,51,cs),
(355,422,ls),
(355,459,o),
(338,473,o),
(314,473,cs),
(292,473,o),
(274,459,o),
(274,422,cs)
);
},
{
closed = 1;
nodes = (
(197,473,ls),
(160,473,o),
(146,456,o),
(146,434,cs),
(146,412,o),
(160,395,o),
(197,395,cs),
(236,395,o),
(275,395,o),
(314,395,c),
(314,473,l)
);
}
);
width = 600;
}
);
unicode = 238;
},
{
color = 7;
glyphname = idieresis;
lastChange = "2025-01-26 11:48:58 +0000";
layers = (
{
layerId = m01;
shapes = (
{
closed = 1;
nodes = (
(274,51,ls),
(274,14,o),
(291,0,o),
(314,0,cs),
(337,0,o),
(355,14,o),
(355,51,cs),
(355,422,ls),
(355,459,o),
(338,473,o),
(314,473,cs),
(292,473,o),
(274,459,o),
(274,422,cs)
);
},
{
closed = 1;
nodes = (
(197,473,ls),
(160,473,o),
(146,456,o),
(146,434,cs),
(146,412,o),
(160,395,o),
(197,395,cs),
(236,395,o),
(275,395,o),
(314,395,c),
(314,473,l)
);
},
{
ref = dieresis;
}
);
width = 600;
}
);
unicode = 239;
},
{
color = 7;
glyphname = eth;
lastChange = "2025-01-18 15:48:32 +0000";
layers = (
{
layerId = m01;
shapes = (
{
closed = 1;
nodes = (
(429,-8,o),
(501,99,o),
(501,238,cs),
(501,473,o),
(263,650,o),
(233,676,cs),
(220,687,o),
(194,695,o),
(173,681,cs),
(153,667,o),
(145,639,o),
(170,615,cs),
(237,553,o),
(324,493,o),
(350,425,c),
(242,425,o),
(93,341,o),
(93,178,cs),
(93,47,o),
(188,-8,o),
(280,-8,cs)
);
},
{
closed = 1;
nodes = (
(229,69,o),
(182,113,o),
(182,187,cs),
(182,293,o),
(280,353,o),
(381,353,c),
(403,312,o),
(411,271,o),
(411,233,cs),
(411,142,o),
(366,69,o),
(283,69,cs)
);
},
{
closed = 1;
nodes = (
(469,572,ls),
(492,583,o),
(499,606,o),
(492,627,cs),
(480,647,o),
(458,654,o),
(436,644,cs),
(132,505,ls),
(109,494,o),
(100,471,o),
(110,452,cs),
(120,431,o),
(142,422,o),
(166,433,cs)
);
}
);
userData = {
assembly = "NPUSHB[ ]	/* 16 values pushed */
79 0 25 17 0 68 4 25 31 3 71 4 62 3 21 4 
CALL[ ]	/* CallFunction */
CALL[ ]	/* CallFunction */
SVTCA[0]	/* SetFreedomAndProjectionVectorToAxis */
MDAP[1]	/* MoveDirectAbsPt */
CALL[ ]	/* CallFunction */
SRP0[ ]	/* SetRefPoint0 */
MIRP[11100]	/* MoveIndirectRelPt */
IUP[0]	/* InterpolateUntPts */
IUP[1]	/* InterpolateUntPts */";
};
width = 600;
}
);
note = eth;
unicode = 240;
},
{
color = 7;
glyphname = divide;
lastChange = "2025-01-27 19:25:22 +0000";
layers = (
{
layerId = m01;
shapes = (
{
closed = 1;
nodes = (
(342,444,o),
(375,477,o),
(375,519,cs),
(375,560,o),
(342,593,o),
(301,593,cs),
(259,593,o),
(226,560,o),
(226,519,cs),
(226,477,o),
(259,444,o),
(301,444,cs)
);
},
{
closed = 1;
nodes = (
(341,71,o),
(374,104,o),
(374,145,cs),
(374,185,o),
(341,218,o),
(301,218,cs),
(260,218,o),
(227,185,o),
(227,145,cs),
(227,104,o),
(260,71,o),
(301,71,cs)
);
},
{
closed = 1;
nodes = (
(119,374,o),
(102,352,o),
(102,331,cs),
(102,308,o),
(121,288,o),
(145,288,cs),
(456,288,ls),
(479,288,o),
(498,306,o),
(498,331,cs),
(498,355,o),
(481,374,o),
(458,374,cs),
(142,374,ls)
);
}
);
userData = {
assembly = "NPUSHB[ ]	/* 4 values pushed */
19 0 25 4 
SVTCA[0]	/* SetFreedomAndProjectionVectorToAxis */
CALL[ ]	/* CallFunction */
IUP[0]	/* InterpolateUntPts */
IUP[1]	/* InterpolateUntPts */";
};
width = 600;
}
);
note = divide;
unicode = 247;
},
{
color = 7;
glyphname = oslash;
lastChange = "2025-01-18 15:48:32 +0000";
layers = (
{
layerId = m01;
shapes = (
{
ref = o;
},
{
closed = 1;
nodes = (
(464,503,o),
(457,522,o),
(441,530,cs),
(423,537,o),
(405,530,o),
(396,513,cs),
(147,2,ls),
(138,-16,o),
(145,-35,o),
(161,-42,cs),
(178,-51,o),
(196,-43,o),
(205,-25,cs),
(455,485,ls)
);
}
);
userData = {
assembly = "NPUSHB[ ]	/* 28 values pushed */
50 0 12 38 0 30 14 19 7 27 30 10 12 6 34 3 0 46 3 16 4 25 5 8 4 0 22 3 
CALL[ ]	/* CallFunction */
CALL[ ]	/* CallFunction */
CALL[ ]	/* CallFunction */
SRP0[ ]	/* SetRefPoint0 */
MIRP[11100]	/* MoveIndirectRelPt */
SVTCA[0]	/* SetFreedomAndProjectionVectorToAxis */
MIAP[1]	/* MoveIndirectAbsPt */
MIAP[1]	/* MoveIndirectAbsPt */
SRP0[ ]	/* SetRefPoint0 */
MDRP[11100]	/* MoveDirectRelPt */
SRP0[ ]	/* SetRefPoint0 */
MDRP[11100]	/* MoveDirectRelPt */
SRP0[ ]	/* SetRefPoint0 */
MIRP[11100]	/* MoveIndirectRelPt */
SRP0[ ]	/* SetRefPoint0 */
MIRP[11100]	/* MoveIndirectRelPt */
IUP[0]	/* InterpolateUntPts */
IUP[1]	/* InterpolateUntPts */";
};
width = 600;
}
);
metricRight = o;
note = oslash;
unicode = 248;
},
{
color = 7;
glyphname = thorn;
lastChange = "2025-01-18 15:48:32 +0000";
layers = (
{
layerId = m01;
shapes = (
{
closed = 1;
nodes = (
(100,-190,ls),
(100,-227,o),
(117,-241,o),
(141,-241,cs),
(165,-241,o),
(183,-227,o),
(183,-190,cs),
(183,600,ls),
(183,637,o),
(166,651,o),
(141,651,cs),
(118,651,o),
(100,637,o),
(100,600,cs)
);
},
{
closed = 1;
nodes = (
(437,116,o),
(381,71,o),
(313,71,cs),
(240,71,o),
(205,100,o),
(164,159,c),
(151,84,l),
(173,46,o),
(218,-10,o),
(318,-10,cs),
(414,-10,o),
(521,57,o),
(521,233,cs),
(521,387,o),
(424,483,o),
(319,483,cs),
(239,483,o),
(176,430,o),
(161,342,c),
(182,288,l),
(200,353,o),
(245,404,o),
(312,404,cs),
(372,404,o),
(437,352,o),
(437,233,cs)
);
}
);
userData = {
assembly = "NPUSHB[ ]	/* 28 values pushed */
30 0 33 4 44 0 17 4 23 3 40 4 14 3 8 4 46 3 8 4 1 3 7 4 47 3 7 4 
CALL[ ]	/* CallFunction */
CALL[ ]	/* CallFunction */
CALL[ ]	/* CallFunction */
CALL[ ]	/* CallFunction */
CALL[ ]	/* CallFunction */
SVTCA[0]	/* SetFreedomAndProjectionVectorToAxis */
CALL[ ]	/* CallFunction */
CALL[ ]	/* CallFunction */
IUP[0]	/* InterpolateUntPts */
IUP[1]	/* InterpolateUntPts */";
};
width = 600;
}
);
note = thorn;
unicode = 254;
},
{
color = 7;
glyphname = Aogonek;
lastChange = "2025-01-18 16:11:24 +0000";
layers = (
{
anchors = (
{
name = bottom;
pos = (300,0);
},
{
name = ogonek;
pos = (540,10);
},
{
name = top;
pos = (300,650);
}
);
layerId = m01;
shapes = (
{
closed = 1;
nodes = (
(93,-5,o),
(115,1,o),
(129,40,cs),
(299,503,l),
(469,40,ls),
(472,32,o),
(475,25,o),
(479,20,c),
(442,-19,o),
(429,-46,o),
(429,-85,cs),
(429,-135,o),
(473,-176,o),
(542,-152,cs),
(569,-143,o),
(577,-126,o),
(575,-109,cs),
(573,-94,o),
(561,-83,o),
(543,-90,cs),
(506,-105,o),
(493,-93,o),
(493,-74,cs),
(493,-57,o),
(502,-34,o),
(535,5,c),
(550,25,o),
(566,36,o),
(553,71,cs),
(345,620,ls),
(335,646,o),
(323,659,o),
(299,659,cs),
(275,659,o),
(263,646,o),
(253,620,cs),
(45,71,ls),
(31,34,o),
(43,13,o),
(68,3,cs)
);
},
{
closed = 1;
nodes = (
(427,176,l),
(427,256,l),
(171,256,l),
(171,176,l)
);
}
);
width = 600;
}
);
unicode = 260;
},
{
color = 7;
glyphname = aogonek;
lastChange = "2025-02-01 23:50:31 +0000";
layers = (
{
anchors = (
{
name = bottom;
pos = (259,-10);
},
{
name = ogonek;
pos = (259,10);
},
{
name = top;
pos = (296,483);
}
);
layerId = m01;
shapes = (
{
closed = 1;
nodes = (
(333,-10,o),
(393,31,o),
(429,85,c),
(487,95,l),
(487,165,o),
(482,315,o),
(412,304,c),
(423,269,l),
(382,290,o),
(349,307,o),
(279,307,cs),
(174,307,o),
(95,246,o),
(95,152,cs),
(95,42,o),
(181,-10,o),
(269,-10,cs)
);
},
{
closed = 1;
nodes = (
(235,68,o),
(175,84,o),
(175,152,cs),
(175,203,o),
(219,244,o),
(284,244,cs),
(341,244,o),
(377,232,o),
(411,209,c),
(411,140,l),
(373,91,o),
(322,68,o),
(281,68,cs)
);
},
{
closed = 1;
nodes = (
(372,404,o),
(408,373,o),
(408,281,cs),
(408,50,l),
(409,21,l),
(375,-26,o),
(365,-46,o),
(365,-86,cs),
(365,-136,o),
(409,-177,o),
(478,-153,cs),
(505,-144,o),
(513,-127,o),
(511,-110,cs),
(509,-95,o),
(497,-84,o),
(479,-91,cs),
(442,-106,o),
(429,-94,o),
(429,-75,cs),
(429,-56,o),
(455,-11,o),
(484,17,cs),
(487,20,o),
(488,23,o),
(488,26,cs),
(491,281,ls),
(491,397,o),
(434,483,o),
(306,483,cs),
(159,483,o),
(263,404,o),
(304,404,cs)
);
},
{
closed = 1;
nodes = (
(198,381,o),
(236,404,o),
(304,404,c),
(306,483,l),
(215,483,o),
(165,457,o),
(142,443,cs),
(116,427,o),
(104,406,o),
(118,381,cs),
(132,357,o),
(153,355,o),
(175,368,cs)
);
}
);
width = 600;
}
);
unicode = 261;
},
{
color = 7;
glyphname = dcaron;
lastChange = "2025-01-18 16:11:24 +0000";
layers = (
{
layerId = m01;
shapes = (
{
pos = (-40,0);
ref = d;
},
{
closed = 1;
nodes = (
(570,726,o),
(548,743,o),
(527,743,cs),
(504,743,o),
(484,724,o),
(484,700,cs),
(484,479,ls),
(484,456,o),
(502,437,o),
(527,437,cs),
(551,437,o),
(570,454,o),
(570,477,cs),
(570,703,ls)
);
}
);
userData = {
assembly = "NPUSHB[ ]	/* 22 values pushed */
42 48 3 39 0 9 31 0 17 35 13 3 0 29 3 22 10 17 10 9 6 3 
SVTCA[0]	/* SetFreedomAndProjectionVectorToAxis */
MDAP[1]	/* MoveDirectAbsPt */
MIAP[1]	/* MoveIndirectAbsPt */
MIAP[1]	/* MoveIndirectAbsPt */
MIAP[1]	/* MoveIndirectAbsPt */
CALL[ ]	/* CallFunction */
CALL[ ]	/* CallFunction */
SRP0[ ]	/* SetRefPoint0 */
MIRP[11100]	/* MoveIndirectRelPt */
SRP0[ ]	/* SetRefPoint0 */
MIRP[11100]	/* MoveIndirectRelPt */
CALL[ ]	/* CallFunction */
IUP[0]	/* InterpolateUntPts */
IUP[1]	/* InterpolateUntPts */";
};
width = 600;
}
);
note = dcaron;
unicode = 271;
},
{
color = 7;
glyphname = Dcroat;
lastChange = "2025-01-18 16:11:24 +0000";
layers = (
{
layerId = m01;
shapes = (
{
closed = 1;
nodes = (
(37,375,o),
(20,353,o),
(20,332,cs),
(20,309,o),
(39,289,o),
(63,289,cs),
(314,289,ls),
(337,289,o),
(356,307,o),
(356,332,cs),
(356,356,o),
(339,375,o),
(316,375,cs),
(60,375,ls)
);
},
{
closed = 1;
nodes = (
(249,0,ls),
(421,0,o),
(554,123,o),
(554,330,cs),
(554,536,o),
(413,650,o),
(224,650,cs),
(155,650,ls),
(107,650,o),
(80,623,o),
(80,575,cs),
(80,75,ls),
(80,27,o),
(107,0,o),
(155,0,cs)
);
},
{
closed = 1;
nodes = (
(167,570,l),
(224,570,ls),
(340,570,o),
(466,513,o),
(464,334,cs),
(462,156,o),
(358,79,o),
(250,79,cs),
(167,79,l)
);
}
);
userData = {
assembly = "NPUSHB[ ]	/* 21 values pushed */
34 0 27 4 20 0 2 19 0 9 10 2 8 19 3 5 4 0 3 16 4 
CALL[ ]	/* CallFunction */
CALL[ ]	/* CallFunction */
SVTCA[0]	/* SetFreedomAndProjectionVectorToAxis */
MIAP[1]	/* MoveIndirectAbsPt */
MIAP[1]	/* MoveIndirectAbsPt */
MIRP[11100]	/* MoveIndirectRelPt */
SRP0[ ]	/* SetRefPoint0 */
MIRP[11100]	/* MoveIndirectRelPt */
CALL[ ]	/* CallFunction */
IUP[0]	/* InterpolateUntPts */
IUP[1]	/* InterpolateUntPts */";
};
width = 600;
}
);
note = Dcroat;
unicode = 272;
},
{
color = 7;
glyphname = dcroat;
lastChange = "2025-01-18 16:11:24 +0000";
layers = (
{
layerId = m01;
shapes = (
{
closed = 1;
nodes = (
(195,601,o),
(180,581,o),
(180,562,cs),
(180,541,o),
(197,523,o),
(219,523,cs),
(494,523,ls),
(515,523,o),
(532,539,o),
(532,562,cs),
(532,584,o),
(517,601,o),
(496,601,cs),
(216,601,ls)
);
},
{
ref = d;
}
);
userData = {
assembly = "NPUSHB[ ]	/* 24 values pushed */
57 0 45 4 39 0 9 31 0 17 22 10 17 10 9 6 35 3 13 4 0 3 29 4 
CALL[ ]	/* CallFunction */
CALL[ ]	/* CallFunction */
SVTCA[0]	/* SetFreedomAndProjectionVectorToAxis */
MIAP[1]	/* MoveIndirectAbsPt */
MIAP[1]	/* MoveIndirectAbsPt */
MIAP[1]	/* MoveIndirectAbsPt */
SRP0[ ]	/* SetRefPoint0 */
MIRP[11100]	/* MoveIndirectRelPt */
SRP0[ ]	/* SetRefPoint0 */
MIRP[11100]	/* MoveIndirectRelPt */
CALL[ ]	/* CallFunction */
IUP[0]	/* InterpolateUntPts */
IUP[1]	/* InterpolateUntPts */";
};
width = 600;
}
);
metricLeft = d;
note = dcroat;
unicode = 273;
},
{
color = 7;
glyphname = eogonek;
lastChange = "2025-02-01 23:51:16 +0000";
layers = (
{
layerId = m01;
shapes = (
{
closed = 1;
nodes = (
(399,-11,o),
(460,18,o),
(494,62,cs),
(515,89,o),
(516,115,o),
(493,129,cs),
(467,145,o),
(444,132,o),
(424,109,cs),
(399,83,o),
(364,69,o),
(323,69,cs),
(237,69,o),
(176,131,o),
(176,237,cs),
(176,341,o),
(235,404,o),
(308,404,cs),
(399,404,o),
(436,341,o),
(436,201,c),
(501,201,o),
(511,199,o),
(511,240,cs),
(511,363,o),
(457,484,o),
(307,484,cs),
(188,484,o),
(84,384,o),
(84,237,cs),
(84,86,o),
(192,-11,o),
(325,-11,cs)
);
},
{
closed = 1;
nodes = (
(386,-168,o),
(394,-151,o),
(392,-134,cs),
(390,-119,o),
(378,-108,o),
(360,-115,cs),
(323,-130,o),
(310,-118,o),
(310,-99,cs),
(310,-80,o),
(322,-53,o),
(366,-3,c),
(298,-3,l),
(259,-43,o),
(246,-70,o),
(246,-110,cs),
(246,-160,o),
(290,-201,o),
(359,-177,cs)
);
},
{
closed = 1;
nodes = (
(444,201,ls),
(481,201,o),
(510,218,o),
(510,240,cs),
(510,262,o),
(496,275,o),
(459,275,cs),
(165,275,ls),
(128,275,o),
(114,262,o),
(114,240,cs),
(114,218,o),
(128,201,o),
(165,201,cs)
);
}
);
width = 600;
}
);
unicode = 281;
},
{
color = 7;
glyphname = Gcommaaccent;
lastChange = "2025-01-24 17:44:28 +0000";
layers = (
{
layerId = m01;
shapes = (
{
ref = G;
},
{
closed = 1;
nodes = (
(302,-154,o),
(307,-155,o),
(318,-146,c),
(314,-195,o),
(281,-204,o),
(252,-201,cs),
(237,-200,o),
(228,-211,o),
(227,-226,cs),
(226,-240,o),
(237,-249,o),
(250,-250,cs),
(302,-254,o),
(362,-226,o),
(369,-125,cs),
(373,-80,o),
(350,-48,o),
(306,-45,cs),
(267,-42,o),
(244,-71,o),
(242,-100,cs),
(239,-129,o),
(268,-153,o),
(290,-154,cs)
);
}
);
width = 600;
}
);
metricLeft = G;
metricRight = G;
unicode = 290;
},
{
color = 7;
glyphname = gcommaaccent;
lastChange = "2025-01-24 17:49:32 +0000";
layers = (
{
layerId = m01;
shapes = (
{
ref = g;
},
{
closed = 1;
nodes = (
(304,613,o),
(299,614,o),
(289,605,c),
(290,652,o),
(320,663,o),
(348,662,cs),
(363,662,o),
(370,673,o),
(370,687,cs),
(370,700,o),
(360,709,o),
(347,709,cs),
(297,709,o),
(242,678,o),
(242,582,cs),
(241,539,o),
(265,509,o),
(307,509,cs),
(344,509,o),
(364,539,o),
(364,566,cs),
(365,594,o),
(337,615,o),
(316,614,cs)
);
}
);
userData = {
assembly = "NPUSHB[ ]	/* 29 values pushed */
47 0 37 4 8 0 21 4 0 31 10 21 6 51 3 57 4 50 3 33 4 6 3 25 4 11 3 0 4 
CALL[ ]	/* CallFunction */
CALL[ ]	/* CallFunction */
CALL[ ]	/* CallFunction */
CALL[ ]	/* CallFunction */
SVTCA[0]	/* SetFreedomAndProjectionVectorToAxis */
MIAP[1]	/* MoveIndirectAbsPt */
MIAP[1]	/* MoveIndirectAbsPt */
MIRP[11100]	/* MoveIndirectRelPt */
SRP0[ ]	/* SetRefPoint0 */
MIRP[11100]	/* MoveIndirectRelPt */
CALL[ ]	/* CallFunction */
IUP[0]	/* InterpolateUntPts */
IUP[1]	/* InterpolateUntPts */";
};
width = 600;
}
);
metricLeft = g;
metricRight = g;
note = gcommaaccent;
unicode = 291;
},
{
color = 7;
glyphname = Hbar;
lastChange = "2025-02-01 23:51:22 +0000";
layers = (
{
anchors = (
{
name = bottom;
pos = (301,0);
},
{
name = center;
pos = (301,325);
},
{
name = top;
pos = (301,670);
},
{
name = topleft;
pos = (295,550);
}
);
layerId = m01;
shapes = (
{
closed = 1;
nodes = (
(472,296,ls),
(509,296,o),
(523,312,o),
(523,336,cs),
(523,360,o),
(509,376,o),
(472,376,cs),
(129,376,ls),
(92,376,o),
(78,361,o),
(78,337,cs),
(78,313,o),
(92,296,o),
(129,296,cs)
);
},
{
closed = 1;
nodes = (
(159,598,ls),
(159,636,o),
(142,650,o),
(116,650,cs),
(90,650,o),
(72,636,o),
(72,598,cs),
(72,52,ls),
(72,14,o),
(89,0,o),
(115,0,cs),
(141,0,o),
(159,14,o),
(159,52,cs)
);
},
{
closed = 1;
nodes = (
(529,598,ls),
(529,636,o),
(512,650,o),
(486,650,cs),
(460,650,o),
(442,636,o),
(442,598,cs),
(442,52,ls),
(442,14,o),
(459,0,o),
(485,0,cs),
(511,0,o),
(529,14,o),
(529,52,cs)
);
},
{
closed = 1;
nodes = (
(542,466,ls),
(579,466,o),
(593,482,o),
(593,506,cs),
(593,530,o),
(579,546,o),
(542,546,cs),
(59,546,ls),
(22,546,o),
(8,531,o),
(8,507,cs),
(8,483,o),
(22,466,o),
(59,466,cs)
);
}
);
userData = {
assembly = "NPUSHB[ ]	/* 40 values pushed */
37 0 44 4 46 0 15 4 42 10 33 10 11 8 20 8 36 3 30 4 45 3 29 4 17 3 23 4 8 3 14 4 1 3 46 4 0 3 39 4 
CALL[ ]	/* CallFunction */
CALL[ ]	/* CallFunction */
CALL[ ]	/* CallFunction */
CALL[ ]	/* CallFunction */
CALL[ ]	/* CallFunction */
CALL[ ]	/* CallFunction */
SVTCA[0]	/* SetFreedomAndProjectionVectorToAxis */
MIAP[1]	/* MoveIndirectAbsPt */
MIAP[1]	/* MoveIndirectAbsPt */
MIAP[1]	/* MoveIndirectAbsPt */
MIAP[1]	/* MoveIndirectAbsPt */
CALL[ ]	/* CallFunction */
CALL[ ]	/* CallFunction */
IUP[0]	/* InterpolateUntPts */
IUP[1]	/* InterpolateUntPts */";
};
width = 600;
}
);
note = Hbar;
unicode = 294;
},
{
color = 7;
glyphname = hbar;
lastChange = "2025-01-18 16:11:24 +0000";
layers = (
{
layerId = m01;
shapes = (
{
closed = 1;
nodes = (
(55,593,o),
(40,573,o),
(40,554,cs),
(40,533,o),
(57,515,o),
(79,515,cs),
(334,515,ls),
(355,515,o),
(372,531,o),
(372,554,cs),
(372,576,o),
(357,593,o),
(336,593,cs),
(76,593,ls)
);
},
{
pos = (-20,0);
ref = h;
}
);
userData = {
assembly = "NPUSHB[ ]	/* 29 values pushed */
32 0 45 18 0 13 4 50 0 3 4 38 10 22 10 45 6 41 3 35 4 26 3 20 4 49 3 19 4 
CALL[ ]	/* CallFunction */
CALL[ ]	/* CallFunction */
CALL[ ]	/* CallFunction */
SVTCA[0]	/* SetFreedomAndProjectionVectorToAxis */
MIAP[1]	/* MoveIndirectAbsPt */
MIAP[1]	/* MoveIndirectAbsPt */
MIAP[1]	/* MoveIndirectAbsPt */
CALL[ ]	/* CallFunction */
CALL[ ]	/* CallFunction */
SRP0[ ]	/* SetRefPoint0 */
MIRP[11100]	/* MoveIndirectRelPt */
IUP[0]	/* InterpolateUntPts */
IUP[1]	/* InterpolateUntPts */";
};
width = 600;
}
);
note = hbar;
unicode = 295;
},
